SplineFontDB: 3.2
FontName: Rom-Regular
FullName: Rom Regular
FamilyName: Rom
Weight: Regular
Copyright: (c) designteam 2020
UComments: "2016-4-23: Created with FontForge (http://fontforge.org)"
Version: 001.000
ItalicAngle: 0
UnderlinePosition: -100
UnderlineWidth: 50
Ascent: 750
Descent: 250
InvalidEm: 0
LayerCount: 2
Layer: 0 0 "Back" 1
Layer: 1 0 "Fore" 0
XUID: [1021 595 1893679584 1335976]
StyleMap: 0x0000
FSType: 8
OS2Version: 0
OS2_WeightWidthSlopeOnly: 0
OS2_UseTypoMetrics: 1
CreationTime: 1461399474
ModificationTime: 1601114210
PfmFamily: 33
TTFWeight: 400
TTFWidth: 5
LineGap: 90
VLineGap: 0
OS2TypoAscent: 0
OS2TypoAOffset: 1
OS2TypoDescent: 0
OS2TypoDOffset: 1
OS2TypoLinegap: 90
OS2WinAscent: 0
OS2WinAOffset: 1
OS2WinDescent: 0
OS2WinDOffset: 1
HheadAscent: 0
HheadAOffset: 1
HheadDescent: 0
HheadDOffset: 1
OS2Vendor: 'DtEu'
Lookup: 258 0 0 "'kern' Horizontal Kerning in Greek lookup 0" { "'kern' Horizontal Kerning in Greek lookup 0 subtable"  } ['kern' ('grek' <'dflt' > ) ]
Lookup: 258 0 0 "'kern' Horizontal Kerning in Latin lookup 0" { "'kern' Horizontal Kerning in Latin lookup 0 subtable"  } ['kern' ('latn' <'dflt' > ) ]
Lookup: 258 0 0 "'kern' Horizontal Kerning lookup 0" { "'kern' Horizontal Kerning lookup 0 subtable"  } ['kern' ('DFLT' <'dflt' > ) ]
MarkAttachClasses: 1
DEI: 91125
LangName: 1033 "" "" "" "" "" "" "" "" "" "" "" "" "" "" "" "" "Rom" "Regular"
Encoding: UnicodeBmp
UnicodeInterp: none
NameList: AGL For New Fonts
DisplaySize: -36
AntiAlias: 1
FitToEm: 0
WinInfo: 0 23 14
BeginPrivate: 0
EndPrivate
BeginChars: 65551 852

StartChar: .notdef
Encoding: 65536 -1 0
Width: 500
Flags: W
HStem: 0 50<80 420> 650 50<80 420>
VStem: 0 50<95 605> 450 50<95 605>
LayerCount: 2
Fore
SplineSet
0 0 m 1
 0 700 l 1
 500 700 l 1
 500 0 l 1
 0 0 l 1
250 395 m 1
 420 650 l 1
 80 650 l 1
 250 395 l 1
280 350 m 1
 450 95 l 1
 450 605 l 1
 280 350 l 1
80 50 m 1
 420 50 l 1
 250 305 l 1
 80 50 l 1
50 605 m 1
 50 95 l 1
 220 350 l 1
 50 605 l 1
EndSplineSet
Validated: 1
EndChar

StartChar: exclam
Encoding: 33 33 2
Width: 214
Flags: W
HStem: -11 100.55<68.986 146.035> 654 20G<71.69 142.23>
VStem: 61.36 92.54<-3.78139 82.5368> 71.69 70.54<351.021 674> 82.34 49.24<182.61 505.589>
LayerCount: 2
Fore
SplineSet
131.58 182.61 m 1xc8
 82.34 182.61 l 1xc8
 71.69 674 l 1
 142.23 674 l 1xd0
 131.58 182.61 l 1xc8
106.96 -11 m 0
 80 -11 60.69 11.31 61.36 38.94 c 0
 61.36 68.24 80.33 89.55 107.63 89.55 c 0
 135.59 89.55 153.9 68.24 153.9 38.94 c 0xe0
 153.9 11.31 135.59 -11 106.96 -11 c 0
EndSplineSet
Validated: 33
EndChar

StartChar: quotedbl
Encoding: 34 34 3
Width: 312
Flags: W
HStem: 457.73 227.27<71.02 110.28 202.93 241.86>
VStem: 71.02 39.26<457.73 568.826> 202.93 38.93<457.73 568.826>
LayerCount: 2
Fore
SplineSet
57.03 685 m 1
 124.6 685 l 1
 110.28 457.73 l 1
 71.02 457.73 l 1
 57.03 685 l 1
188.61 685 m 1
 256.18 685 l 1
 241.86 457.73 l 1
 202.93 457.73 l 1
 188.61 685 l 1
EndSplineSet
Validated: 1
EndChar

StartChar: numbersign
Encoding: 35 35 4
Width: 475
Flags: W
HStem: 0 21G<93.67 144.167 250.3 300.797> 203.37 44.93<37 119.67 173.93 276.3 330.56 417.9> 406.7 44.93<58.99 146.33 199.59 302.96 356.22 438.89> 630 20G<176.029 224.59 332.329 381.89>
LayerCount: 2
Fore
SplineSet
173.93 248.3 m 1
 282.62 248.3 l 1
 302.96 406.7 l 1
 193.6 406.7 l 1
 173.93 248.3 l 1
141.61 0 m 1
 93.67 0 l 1
 119.67 203.37 l 1
 37 203.37 l 1
 37 248.3 l 1
 125.99 248.3 l 1
 146.33 406.7 l 1
 58.99 406.7 l 1
 58.99 451.63 l 1
 152.65 451.63 l 1
 178.65 650 l 1
 224.59 650 l 1
 199.59 451.63 l 1
 308.95 451.63 l 1
 334.95 650 l 1
 381.89 650 l 1
 356.22 451.63 l 1
 438.89 451.63 l 1
 438.89 406.7 l 1
 349.9 406.7 l 1
 330.56 248.3 l 1
 417.9 248.3 l 1
 417.9 203.37 l 1
 324.24 203.37 l 1
 298.24 0 l 1
 250.3 0 l 1
 276.3 203.37 l 1
 167.61 203.37 l 1
 141.61 0 l 1
EndSplineSet
Validated: 1
EndChar

StartChar: dollar
Encoding: 36 36 5
Width: 496
Flags: W
HStem: 17.68 48.57<128.506 215.32 263.58 302.272> 588.42 46.25<177.773 222.32 270.25 348.548>
VStem: 79.36 58.53<428.034 550.002> 215.32 48.26<-84.66 17.68> 222.32 47.93<636.66 737.68> 354.01 59.53<114.118 244.449>
LayerCount: 2
Fore
SplineSet
263.58 -84.66 m 1xf4
 215.32 -84.66 l 1
 215.32 17.68 l 1xf4
 160.67 18.01 103.35 36.01 69.69 62.35 c 1
 91.01 109.25 l 1
 124.33 84.58 173.65 66.25 225.63 66.25 c 0
 302.66 66.25 354.01 114.62 354.01 178.99 c 0
 354.01 240.69 312.33 278.71 238.33 310.72 c 0
 138.34 352.73 79.36 397.39 79.36 480.37 c 0
 79.36 561.36 137.02 621.68 222.32 634.67 c 1
 222.32 737.68 l 1
 270.25 737.68 l 1
 270.25 636.66 l 1xec
 327.57 634.66 366.56 617.99 393.55 600.99 c 1
 371.23 554.42 l 1
 351.57 566.42 312.58 588.42 251.93 588.42 c 0
 170.24 588.42 137.89 535.05 137.89 489.69 c 0
 137.89 430.32 175.56 402.31 263.23 364.3 c 0
 359.53 321.63 413.54 271.64 413.54 183.98 c 0
 413.54 108.33 361.89 35 263.58 19.34 c 1
 263.58 -84.66 l 1xf4
EndSplineSet
Validated: 1
EndChar

StartChar: percent
Encoding: 37 37 6
Width: 755
Flags: W
HStem: -6.33 40.27<531.981 628.985> 262 40.27<126.524 223.832> 351.73 40.27<532.374 630.965> 620.73 40.27<128.82 225.742>
VStem: 31.34 51.91<353.008 568.691> 267.33 51.24<350.629 573.762> 436.58 51.58<84.3535 299.957> 672.57 50.91<82.0286 304.762>
LayerCount: 2
Fore
SplineSet
178.29 661 m 0
 260.58 661 318.57 596.36 318.57 467 c 0
 318.57 328.66 252.6 262 173.29 262 c 0
 98.99 262 33.01 323.65 31.34 458 c 0
 31.34 594.03 102.34 661 178.29 661 c 0
175.29 620.73 m 0
 116.27 620.73 83.25 549.7 83.25 461.67 c 0
 80.58 372.64 115.6 302.27 174.62 302.27 c 0
 239.32 302.27 267.33 372.98 267.33 463.67 c 0
 267.33 548.7 242.32 620.73 175.29 620.73 c 0
207.21 -11 m 1
 161.93 -11 l 1
 546.61 661 l 1
 591.89 661 l 1
 207.21 -11 l 1
583.53 392 m 0
 665.82 392 723.48 327.36 723.48 198 c 0
 723.48 60.33 657.51 -6.33 578.53 -6.33 c 0
 504.23 -6.33 438.25 55.32 436.58 188.67 c 0
 436.58 325.7 507.58 392 583.53 392 c 0
580.53 351.73 m 0
 521.51 351.73 488.16 281.37 488.16 192.67 c 0
 485.82 103.64 521.84 33.94 579.86 33.94 c 0
 644.56 33.94 672.57 103.98 672.57 194.67 c 0
 672.57 279.7 647.56 351.73 580.53 351.73 c 0
EndSplineSet
Validated: 33
EndChar

StartChar: ampersand
Encoding: 38 38 7
Width: 574
Flags: W
HStem: -11 47.91<160.424 330.911> 0 21G<488.835 573.86> 639.74 45.26<199.665 315.109>
VStem: 31 59.88<107.672 263.611> 106.33 56.55<447.448 601.562> 344.64 55.56<479.892 610.805> 499.29 57.22<262.327 359.96>
LayerCount: 2
Fore
SplineSet
573.86 0 m 1x7e
 499.34 0 l 1x7e
 478.33 21.01 458.99 42.02 428.97 73.37 c 1
 364.27 11.33 298.6 -11 226.61 -11 c 0xbe
 109.68 -11 31 73.65 31 177.33 c 0
 31 270.67 88.01 332.33 164.34 375.67 c 1
 164.34 378.67 l 1
 127.33 427.36 106.33 476.36 106.33 523.69 c 0
 106.33 605.02 162.65 685 264.6 685 c 0
 340.56 685 400.2 631.68 400.2 548.03 c 0
 400.2 476.36 357.86 421.03 246.17 365.35 c 1
 246.17 362.35 l 1
 310.54 286.97 383.92 203.59 431.61 149.56 c 1
 463.95 198.57 484.95 264.91 499.29 359.96 c 1
 556.51 359.96 l 1
 538.51 252.62 511.52 169.96 465.54 113.64 c 1
 500.2 77.65 533.86 42.33 573.86 0 c 1x7e
238.93 36.91 m 0xbe
 304.97 36.91 360 66.93 396.69 108.63 c 1
 357.36 153.97 274.32 244.68 191.95 340.73 c 1
 151.26 315.72 90.88 268.03 90.88 185.64 c 0
 90.88 99.93 153.24 36.91 238.93 36.91 c 0xbe
257.93 639.74 m 0
 195.9 639.74 162.88 587.71 162.88 529.68 c 0
 162.88 475.65 188.9 435.3 216.56 398.63 c 1
 292.6 439.64 344.64 479.66 344.64 544.03 c 0
 344.64 589.72 318.96 639.74 257.93 639.74 c 0
EndSplineSet
Validated: 1
EndChar

StartChar: quoteright
Encoding: 8217 8217 8
Width: 184
Flags: W
HStem: 455.74 229.26
VStem: 92.33 68.89<613.691 676>
LayerCount: 2
Fore
SplineSet
92.33 676 m 1
 161.22 685 l 1
 141.57 607.03 98.57 495.34 78.61 461.4 c 1
 38.02 455.74 l 1
 56 503.35 82.67 610.7 92.33 676 c 1
EndSplineSet
Validated: 1
EndChar

StartChar: parenleft
Encoding: 40 40 9
Width: 271
Flags: W
VStem: 66.68 54.57<112.032 459.442>
LayerCount: 2
Fore
SplineSet
204.38 696.01 m 1
 257.3 696.01 l 1
 177.6 594.66 121.25 466.67 121.25 284.33 c 0
 121.25 104.99 180.27 -19.66 257.3 -122.34 c 1
 204.38 -122.34 l 1
 136.69 -37.33 66.68 88.66 66.68 285 c 0
 67.01 482.67 136.69 609.33 204.38 696.01 c 1
EndSplineSet
Validated: 1
EndChar

StartChar: parenright
Encoding: 41 41 10
Width: 271
Flags: W
VStem: 150.02 54.91<113.651 464.726>
LayerCount: 2
Fore
SplineSet
66.56 -122.34 m 1
 13.97 -122.34 l 1
 91 -20.66 150.02 106.66 150.02 288 c 0
 150.02 468.34 92.67 593.66 13.97 696.01 c 1
 66.56 696.01 l 1
 134.58 611.33 204.93 484.67 204.93 287 c 0
 204.93 90.33 134.58 -35.33 66.56 -122.34 c 1
EndSplineSet
Validated: 1
EndChar

StartChar: asterisk
Encoding: 42 42 11
Width: 398
Flags: W
HStem: 356.77 328.23 492.75 21G<30 174.65 221.94 368.92>
LayerCount: 2
Fore
SplineSet
262.97 685 m 1x80
 311.58 657.7 l 1
 221.27 534.04 l 1
 221.27 532.04 l 1
 368.92 546.68 l 1
 368.92 492.75 l 1x40
 221.94 507.4 l 1
 221.94 504.73 l 1
 312.58 386.07 l 1
 260.97 356.77 l 1x80
 198.96 490.74 l 1
 196.96 490.74 l 1
 129.28 355.77 l 1
 84.34 385.07 l 1
 174.65 505.73 l 1
 174.65 508.4 l 1
 30 492.75 l 1x40
 30 546.68 l 1
 172.98 533.04 l 1
 172.98 535.04 l 1
 84.34 655.7 l 1
 133.95 684 l 1
 198.63 551.03 l 1
 200.63 551.03 l 1
 262.97 685 l 1x80
EndSplineSet
Validated: 1
EndChar

StartChar: plus
Encoding: 43 43 12
Width: 596
Flags: W
HStem: 0 21G<273.37 323.3> 243.7 46.6<40 273.37 323.3 556>
VStem: 273.37 49.93<0 243.7 290.3 532>
LayerCount: 2
Fore
SplineSet
273.37 532 m 1
 323.3 532 l 1
 323.3 290.3 l 1
 556 290.3 l 1
 556 243.7 l 1
 323.3 243.7 l 1
 323.3 0 l 1
 273.37 0 l 1
 273.37 243.7 l 1
 40 243.7 l 1
 40 290.3 l 1
 273.37 290.3 l 1
 273.37 532 l 1
EndSplineSet
Validated: 1
EndChar

StartChar: comma
Encoding: 44 44 13
Width: 184
Flags: W
HStem: -125.01 230.91
VStem: 77.34 74.55<34.1215 95.9>
LayerCount: 2
Fore
SplineSet
68.95 -119.68 m 1
 22.7 -125.01 l 1
 40.68 -77.4 67.68 30.27 77.34 95.9 c 1
 151.89 105.9 l 1
 132.24 27.6 88.91 -85.41 68.95 -119.68 c 1
EndSplineSet
Validated: 1
EndChar

StartChar: hyphen
Encoding: 45 45 14
Width: 300
Flags: W
HStem: 248.72 49.59<30 270.97>
VStem: 30 240.97<248.72 298.31>
LayerCount: 2
Fore
SplineSet
30 298.31 m 1
 270.97 298.31 l 1
 270.97 248.72 l 1
 30 248.72 l 1
 30 298.31 l 1
EndSplineSet
Validated: 1
EndChar

StartChar: period
Encoding: 46 46 15
Width: 184
Flags: W
HStem: -11 101.88<61.0113 138.922>
VStem: 53.34 93.54<-3.58491 83.2263>
LayerCount: 2
Fore
SplineSet
99.61 -11 m 0
 71.98 -11 52.67 11.98 53.34 39.94 c 0
 53.34 69.57 72.98 90.88 100.61 90.88 c 0
 128.24 90.88 146.88 69.57 146.88 39.94 c 0
 146.88 11.98 128.57 -11 99.61 -11 c 0
EndSplineSet
Validated: 33
EndChar

StartChar: slash
Encoding: 47 47 16
Width: 348
Flags: W
HStem: 665 20G<289.013 352.7>
LayerCount: 2
Fore
SplineSet
45.23 -40 m 1
 -7.7 -40 l 1
 297.43 685 l 1
 352.7 685 l 1
 45.23 -40 l 1
EndSplineSet
Validated: 1
EndChar

StartChar: zero
Encoding: 48 48 17
Width: 496
Flags: W
HStem: -11 49.24<184.752 312.347> 612.43 48.57<186.018 314.54>
VStem: 37.34 61.87<159.194 482.214> 396.37 62.54<160.027 498.281>
LayerCount: 2
Fore
SplineSet
254.63 661 m 0
 376.89 661 458.91 552.4 458.91 333.34 c 0
 458.91 104.3 375.57 -11 240.95 -11 c 0
 131.37 -11 40.01 94.6 37.34 322.33 c 0
 37.34 553.06 138.04 661 254.63 661 c 0
248.29 612.43 m 0
 163.25 612.43 99.21 508.38 99.21 321.33 c 0
 99.21 144.29 157.91 38.24 247.29 38.24 c 0
 349.35 38.24 396.37 155.3 396.37 328.67 c 0
 396.37 495.37 352.02 612.43 248.29 612.43 c 0
EndSplineSet
Validated: 1
EndChar

StartChar: one
Encoding: 49 49 18
Width: 496
Flags: W
HStem: 0 21G<236 295.54> 630 20G<206.367 295.54>
VStem: 236 59.54<0 590.78>
LayerCount: 2
Fore
SplineSet
236 0 m 1
 236 590.78 l 1
 234 590.78 l 1
 125.69 528.44 l 1
 112.04 576.01 l 1
 241.31 650 l 1
 295.54 650 l 1
 295.54 0 l 1
 236 0 l 1
EndSplineSet
Validated: 1
EndChar

StartChar: two
Encoding: 50 50 19
Width: 496
Flags: W
HStem: 0 51.56<131.15 441.91> 608.77 52.23<138.526 307.84>
VStem: 362.7 61.87<376.041 554.35>
LayerCount: 2
Fore
SplineSet
441.91 0 m 1
 45.67 0 l 1
 45.67 37.92 l 1
 108.64 101.57 l 1
 284.69 272.3 362.37 360.99 362.7 468.37 c 0
 362.7 539.73 331.37 608.77 225.66 608.77 c 0
 164.65 608.77 116.32 577.43 87.66 553.1 c 1
 65.69 595.67 l 1
 108.68 633.67 167.99 661 237.63 661 c 0
 374.28 661 424.57 560.98 424.57 478.7 c 0
 424.57 353.34 333.55 252.32 179.13 100.89 c 1
 131.15 53.56 l 1
 131.15 51.56 l 1
 441.91 51.56 l 1
 441.91 0 l 1
EndSplineSet
Validated: 1
EndChar

StartChar: three
Encoding: 51 51 20
Width: 496
Flags: W
HStem: -11 50.9<102.688 297.762> 327.39 47.91<137.32 272.085> 610.1 50.9<128.771 295.876>
VStem: 340.03 62.2<435.716 568.175> 365.04 62.86<106.248 254.647>
LayerCount: 2
Fore
SplineSet
44.01 33 m 1xe8
 64.66 80.9 l 1
 88.99 64.9 144.98 39.9 205.98 39.9 c 0
 332.38 39.9 365.37 125.3 365.04 181.98 c 0xe8
 363.37 284.37 273.33 327.39 181.63 327.39 c 2
 137.32 327.39 l 1
 137.32 375.3 l 1
 182.3 375.3 l 2
 251.66 375.3 340.03 413.66 340.03 500.04 c 0
 340.03 557.4 305.69 610.1 217.99 610.1 c 0
 166.66 610.1 119.34 587.1 90.67 565.76 c 1
 70.35 610.33 l 1
 102.34 635.33 163.65 661 227.62 661 c 0
 351.6 661 402.23 584.33 402.23 508.68 c 0xf0
 402.23 442.35 360.89 384.01 281.56 355.01 c 1
 281.56 353.01 l 1
 362.23 337.01 427.9 275.67 427.9 182.66 c 0
 427.9 83.35 354.94 -11 202.29 -11 c 0
 133.98 -11 73.33 12 44.01 33 c 1xe8
EndSplineSet
Validated: 33
EndChar

StartChar: four
Encoding: 52 52 21
Width: 496
Flags: W
HStem: 0 21G<319.01 377.22> 186.38 49.57<79.21 319.01 377.22 474.25> 630 20G<305.174 377.22>
VStem: 319.01 58.21<0 186.38 235.95 577.73>
LayerCount: 2
Fore
SplineSet
377.22 0 m 1
 319.01 0 l 1
 319.01 186.38 l 1
 11.65 186.38 l 1
 11.65 226.96 l 1
 319.74 650 l 1
 377.22 650 l 1
 377.22 235.95 l 1
 474.25 235.95 l 1
 474.25 186.38 l 1
 377.22 186.38 l 1
 377.22 0 l 1
79.21 235.95 m 1
 319.01 235.95 l 1
 319.01 483.77 l 2
 319.01 515.76 320.01 547.08 322.01 577.73 c 1
 319.01 578.4 l 1
 299.01 541.07 283.68 517.09 267.69 491.78 c 2
 79.21 237.95 l 1
 79.21 235.95 l 1
EndSplineSet
Validated: 1
EndChar

StartChar: five
Encoding: 53 53 22
Width: 496
Flags: W
HStem: -11 50.9<92.7373 281.724> 357.06 49.91<140.957 279.861> 597.44 52.56<169.59 414.91>
VStem: 361.69 60.86<118.268 282.591>
LayerCount: 2
Fore
SplineSet
414.91 650 m 1
 414.91 597.44 l 1
 169.59 597.44 l 1
 139.9 402.3 l 1
 154.9 404.97 169.57 406.97 196.92 406.97 c 0
 242.9 406.97 286.2 397.31 324.19 376.66 c 0
 375.19 350.34 422.55 293 422.55 208.32 c 0
 422.55 79.31 323.56 -11 196.63 -11 c 0
 128.31 -11 70.99 9.67 42 30.34 c 1
 61.99 77.91 l 1
 87.65 61.24 138.64 39.9 198.31 39.9 c 0
 288.68 39.9 361.69 104.62 361.69 198.99 c 0
 360.69 289.69 303.35 357.06 173.35 357.06 c 0
 135.01 357.06 104.67 353.06 82.01 350.06 c 1
 124.01 650 l 1
 414.91 650 l 1
EndSplineSet
Validated: 1
EndChar

StartChar: six
Encoding: 54 54 23
Width: 496
Flags: W
HStem: -11 49.24<176.876 327.981> 376.07 49.25<173.971 329.655> 602.09 52.24<263.655 398.58>
VStem: 36.01 60.87<133.066 406.466> 398.37 62.2<115.949 304.721>
LayerCount: 2
Fore
SplineSet
398.58 660.67 m 1
 399.25 607.43 l 1
 380.58 607.76 356.24 606.76 329.9 602.09 c 0
 190.56 575.07 112.2 460.67 99.21 339.6 c 1
 101.54 339.6 l 1
 131.87 385.29 189.22 425.32 265.91 425.32 c 0
 384.26 425.32 460.57 338.97 460.57 215.99 c 0
 460.57 101.01 386.27 -11 253.28 -11 c 0
 129.02 -11 36.01 88.29 36.01 263.32 c 0
 36.01 393.33 82.01 494.33 143.33 557.66 c 0
 192.64 607.98 259.95 641.65 333.91 654.33 c 0
 359.24 659 381.91 660.67 398.58 660.67 c 1
255.29 38.24 m 0
 340 38.24 398.37 107.94 398.37 211.66 c 0
 398.37 318.73 335.99 376.07 248.96 376.07 c 0
 190.6 376.07 134.9 340.39 107.55 286.69 c 0
 101.55 276.02 96.88 263.02 96.88 248.36 c 0
 97.54 125.28 153.24 38.24 255.29 38.24 c 0
EndSplineSet
Validated: 33
EndChar

StartChar: seven
Encoding: 55 55 24
Width: 496
Flags: W
HStem: 0 21G<99.03 170.089> 599.11 50.89<60.35 386.39>
LayerCount: 2
Fore
SplineSet
60.35 650 m 1
 450.25 650 l 1
 450.25 607.41 l 1
 160.55 0 l 1
 99.03 0 l 1
 386.39 597.11 l 1
 386.39 599.11 l 1
 60.35 599.11 l 1
 60.35 650 l 1
EndSplineSet
Validated: 1
EndChar

StartChar: eight
Encoding: 56 56 25
Width: 496
Flags: W
HStem: -11 47.92<164.13 333.067> 614.08 46.92<171.902 327.932>
VStem: 39.68 62.53<98.5377 246.766> 64.68 58.88<429.948 565.64> 373.36 59.88<428.357 567.814> 395.04 61.53<94.8913 243.052>
LayerCount: 2
Fore
SplineSet
246.96 -11 m 0xc4
 124.36 -11 39.68 65.31 39.68 162.99 c 0xe4
 39.68 246.33 90.02 306.34 173.37 341.68 c 1
 172.37 345.35 l 1
 96.35 379.35 64.68 436.02 64.68 492.02 c 0
 64.68 591.67 147.66 661 255.63 661 c 0
 370.24 661 433.24 586.02 433.24 504.35 c 0xd8
 433.24 449.35 406.91 388.34 321.55 349 c 1
 321.55 345.33 l 1
 409.25 310.65 456.57 250.97 456.57 174.65 c 0
 456.57 63.66 360.91 -11 246.96 -11 c 0xc4
247.62 36.92 m 0
 337.34 36.92 395.04 91.28 395.04 166.99 c 0
 395.04 254.7 334.68 294.71 235.29 323.06 c 1
 148.57 297.71 102.21 241.68 102.21 173.65 c 0
 98.54 100.28 153.9 36.92 247.62 36.92 c 0
250.63 614.08 m 0
 168.92 614.08 123.56 560.72 123.56 498.69 c 0
 123.56 424.98 177.25 387.3 260.96 365.96 c 1
 325 388.31 373.36 430.99 373.36 498.7 c 0xd8
 373.36 554.72 339.01 614.08 250.63 614.08 c 0
EndSplineSet
Validated: 33
EndChar

StartChar: nine
Encoding: 57 57 26
Width: 496
Flags: W
HStem: -10.67 53.24<99.35 230.646> 233.68 49.58<170.72 325.26> 612.09 48.91<179.68 321.867>
VStem: 45.02 60.87<349.128 533.056> 399.05 60.86<238.597 517.391>
LayerCount: 2
Fore
SplineSet
99.35 -10.67 m 1
 99.35 42.57 l 1
 117.68 40.57 141.69 42.57 171.69 46.91 c 0
 224.03 55.25 272.7 78.93 311.71 118.62 c 0
 354.04 162.98 386.38 225.34 398.38 313.73 c 1
 396.05 313.06 l 1
 356.7 263.03 300.68 233.68 233 233.68 c 0
 113.32 233.68 45.02 327.04 45.02 432.01 c 0
 45.02 552.33 129.33 661 258.31 661 c 0
 376.57 661 459.91 561.71 459.91 389.01 c 0
 459.91 243.33 409.9 142.66 348.58 82 c 0
 303.94 36.35 241.64 6.35 184.37 -2.99 c 0
 150.36 -9.33 121.02 -11.67 99.35 -10.67 c 1
249.97 612.09 m 0
 164.92 612.09 105.89 537.38 105.89 435.33 c 0
 105.89 344.28 162.26 283.26 244.96 283.26 c 0
 310.66 283.26 364.03 316.95 391.05 362.65 c 0
 395.38 369.98 399.05 379.31 399.05 391.97 c 0
 399.05 520.39 351.35 612.09 249.97 612.09 c 0
EndSplineSet
Validated: 33
EndChar

StartChar: colon
Encoding: 58 58 27
Width: 184
Flags: W
HStem: -11 101.55<61.0113 138.779> 354.73 101.55<61.6361 138.779>
VStem: 53.34 93.54<-3.59831 82.8963 361.949 448.429>
LayerCount: 2
Fore
SplineSet
99.61 354.73 m 0
 71.98 354.73 52.67 377.04 53.34 404.67 c 0
 53.34 434.3 72.98 456.28 100.61 456.28 c 0
 128.24 456.28 146.55 434.3 146.88 404.67 c 0
 146.88 377.04 128.57 354.73 99.61 354.73 c 0
99.61 -11 m 0
 71.98 -11 52.67 11.98 53.34 39.61 c 0
 53.34 69.24 72.98 90.55 100.61 90.55 c 0
 128.24 90.55 146.55 69.24 146.88 39.61 c 0
 146.88 11.98 128.57 -11 99.61 -11 c 0
EndSplineSet
Validated: 33
EndChar

StartChar: semicolon
Encoding: 59 59 28
Width: 184
Flags: W
HStem: 354.73 101.55<70.3041 147.315>
VStem: 62.01 93.21<361.949 449.07> 77.67 74.22<34.1215 95.9>
LayerCount: 2
Fore
SplineSet
68.62 -119.68 m 1xa0
 23.03 -125.01 l 1
 41.01 -77.4 68.01 30.27 77.67 95.9 c 1
 151.89 105.9 l 1
 131.91 27.6 88.58 -85.41 68.62 -119.68 c 1xa0
108.28 354.73 m 0
 80.65 354.73 61.34 377.04 62.01 404.67 c 0
 62.01 434.3 81.65 456.28 108.95 456.28 c 0
 136.91 456.28 155.22 434.3 155.22 404.67 c 0xc0
 155.22 377.04 136.91 354.73 108.28 354.73 c 0
EndSplineSet
Validated: 33
EndChar

StartChar: less
Encoding: 60 60 29
Width: 596
Flags: W
HStem: 0 21G<489.426 526.65>
LayerCount: 2
Fore
SplineSet
69.35 245.7 m 1
 69.35 286.97 l 1
 526.65 532 l 1
 526.65 478.41 l 1
 124.26 267 l 1
 124.26 265 l 1
 526.65 54.26 l 1
 526.65 0 l 1
 69.35 245.7 l 1
EndSplineSet
Validated: 1
EndChar

StartChar: equal
Encoding: 61 61 30
Width: 596
Flags: W
HStem: 150.38 46.6<40 556> 342.36 46.6<40 556>
LayerCount: 2
Fore
SplineSet
556 342.36 m 1
 40 342.36 l 1
 40 388.96 l 1
 556 388.96 l 1
 556 342.36 l 1
556 150.38 m 1
 40 150.38 l 1
 40 196.98 l 1
 556 196.98 l 1
 556 150.38 l 1
EndSplineSet
Validated: 1
EndChar

StartChar: greater
Encoding: 62 62 31
Width: 596
Flags: W
HStem: 0 21G<69.35 106.624>
LayerCount: 2
Fore
SplineSet
526.65 287.3 m 1
 526.65 245.37 l 1
 69.35 0 l 1
 69.35 54.26 l 1
 472.73 265 l 1
 472.73 267 l 1
 69.35 478.41 l 1
 69.35 532 l 1
 526.65 287.3 l 1
EndSplineSet
Validated: 1
EndChar

StartChar: question
Encoding: 63 63 32
Width: 389
Flags: W
HStem: -11 101.55<130.021 208.119> 632.43 52.57<85.9158 244.089>
VStem: 122.35 93.54<-3.59831 82.8963> 143.01 55.22<179.61 312.633> 277.7 64.54<459.048 600.821>
LayerCount: 2
Fore
SplineSet
198.23 179.61 m 1xd8
 143.01 179.61 l 1
 139.67 205.61 l 2
 132.33 260.95 151.67 322.63 203.01 385.31 c 0
 253.37 445.01 277.7 486.02 277.7 535.71 c 0
 277.7 593.41 242.35 632.1 173.32 632.43 c 0
 136.65 632.43 96.65 621.1 71.65 601.43 c 1
 51.67 645 l 1
 84.67 670.34 139.66 685 185.29 685 c 0
 292.92 685 342.24 614.67 342.24 541.35 c 0
 342.24 477.37 307.59 428.37 255.57 366.01 c 0
 208.22 308.65 192.22 261.97 196.56 208.96 c 2
 198.23 179.61 l 1xd8
168.62 -11 m 0
 140.99 -11 121.68 11.98 122.35 39.61 c 0
 122.35 69.24 141.99 90.55 169.62 90.55 c 0
 197.92 90.55 215.89 69.24 215.89 39.61 c 0xe8
 215.89 11.98 198.25 -11 168.62 -11 c 0
EndSplineSet
Validated: 33
EndChar

StartChar: at
Encoding: 64 64 33
Width: 723
Flags: W
HStem: -104 41.97<243.818 466.616> 65.67 42.61<261.288 369.88 493.807 577.878> 386.39 42.28<341.212 473.807> 552.03 39.97<287.683 498.355>
VStem: 39.65 48.96<92.3715 340.653> 188.64 51.26<128.871 280.716> 637.98 48.96<185.455 411.481>
LayerCount: 2
Fore
SplineSet
450.68 257.01 m 2
 474.36 377.38 l 1
 463.02 381.05 444.01 386.39 416.32 386.39 c 0
 318.94 386.39 239.9 295.35 239.9 189.64 c 0
 239.9 142.96 264.58 108.28 313.27 108.28 c 0
 379.31 108.28 438.34 193.67 450.68 257.01 c 2
499.96 -25.02 m 1
 514.62 -62.66 l 1
 461.63 -91.66 404.29 -104 339.3 -104 c 0
 175.3 -104 39.65 16 39.65 207.33 c 0
 39.65 413.33 179.97 592 401.3 592 c 0
 574.63 592 686.94 469.33 686.94 303.67 c 0
 686.94 151.66 602.27 65.67 514.3 65.67 c 0
 477.65 65.67 439.31 92.67 444.99 157.69 c 1
 440.99 157.69 l 1
 403.98 95.34 357.31 65.67 294.63 65.67 c 0
 239.31 65.67 188.64 112 188.64 188.99 c 0
 188.64 314.33 289.99 428.67 426.31 428.67 c 0
 468.64 428.67 502.62 420.34 528.62 409.01 c 1
 493.28 229.35 l 2
 476.27 145.98 489.61 107.63 525.29 107.3 c 0
 579.64 105.63 637.98 179.66 637.98 295.66 c 0
 637.98 446.69 549.64 552.03 393.97 552.03 c 0
 226.95 552.03 88.61 419.01 88.61 211.32 c 0
 88.61 44.99 198.95 -62.03 346.28 -62.03 c 0
 405.96 -62.03 458.96 -49.36 499.96 -25.02 c 1
EndSplineSet
Validated: 33
EndChar

StartChar: A
Encoding: 65 65 34
Width: 593
Flags: W
HStem: 0 21G<28.35 97.782 500.983 571.58> 228.08 49.24<185.58 411.36> 654 20G<260.307 339.953>
LayerCount: 2
Fore
SplineSet
427.35 228.08 m 1
 169.59 228.08 l 1
 90.88 0 l 1
 28.35 0 l 1
 267.4 674 l 1
 332.87 674 l 1
 571.58 0 l 1
 508.06 0 l 1
 427.35 228.08 l 1
185.58 277.32 m 1
 411.36 277.32 l 1
 334.64 492.09 l 2
 318.97 538.1 309.64 574.08 299.64 612.41 c 1
 297.64 612.41 l 1
 287.64 573.08 276.64 536.1 262.97 493.76 c 2
 185.58 277.32 l 1
EndSplineSet
Validated: 1
EndChar

StartChar: B
Encoding: 66 66 35
Width: 517
Flags: W
HStem: -5.33 49.24<140.22 334.022> 333.72 47.91<140.22 322.524> 630.09 48.91<140.87 329.743>
VStem: 80.02 60.2<45.7708 333.72 381.63 627.143> 386.66 61.87<438.786 578.617> 411.01 63.19<112.125 263.551>
LayerCount: 2
Fore
SplineSet
80.02 1.33 m 1xf4
 80.02 665 l 1
 117.35 673.67 169.31 679 222.94 679 c 0
 307.93 679 363.26 661.99 402.58 625.98 c 0
 432.22 598.64 448.53 561.32 448.53 512.34 c 0xf8
 448.53 444.66 401.51 386.99 333.19 362.33 c 1
 333.19 360.33 l 1
 391.83 346.34 474.2 296.02 474.2 189.32 c 0
 474.2 133.33 453.88 90.67 421.89 58.34 c 0
 376.9 13.33 302.91 -5.33 202.96 -5.33 c 0
 148.32 -5.33 107.01 -1.33 80.02 1.33 c 1xf4
140.22 623.42 m 1
 140.22 381.63 l 1
 232.62 381.63 l 2
 327.97 381.63 386.66 435.66 386.66 507.36 c 0
 386.66 597.08 319.29 630.09 223.25 630.09 c 0
 179.9 630.09 154.89 627.09 140.22 623.42 c 1
140.22 333.72 m 1
 140.22 48.58 l 1
 159.23 44.91 186.24 43.91 219.92 43.91 c 0
 318.63 43.91 411.01 79.59 411.01 188.98 c 0xf4
 411.01 290.36 323.97 333.72 220.93 333.72 c 2
 140.22 333.72 l 1
EndSplineSet
Validated: 1
EndChar

StartChar: C
Encoding: 67 67 36
Width: 573
Flags: W
HStem: -10 51.56<259.927 506.371> 633.44 51.56<264.696 507.137>
VStem: 37.34 63.19<205.69 462.219>
LayerCount: 2
Fore
SplineSet
525.65 71.57 m 5
 540.97 23.34 l 5
 507.63 6 442.96 -10 360.96 -10 c 4
 189.05 -10 37.34 99.28 37.34 332.34 c 4
 37.34 535.97 170.96 685 381.97 685 c 4
 467.31 685 518.3 666.33 539.96 655 c 5
 522.31 604.77 l 5
 488.64 621.44 440.3 633.44 383.63 633.44 c 4
 209.55 633.44 100.53 521.05 100.53 332.66 c 4
 100.53 155.6 202.23 41.56 376.95 41.56 c 4
 433.3 41.56 488.64 53.23 525.65 71.57 c 5
EndSplineSet
Validated: 1
EndChar

StartChar: D
Encoding: 68 68 37
Width: 653
Flags: W
HStem: -5.33 49.9<140.22 376.9> 629.43 49.57<141.432 389.983>
VStem: 80.02 60.2<47.1013 623.165> 553.41 62.86<222.386 474.985>
LayerCount: 2
Fore
SplineSet
80.02 1.33 m 1
 80.02 665 l 1
 131.68 673 191.33 679 256.31 679 c 0
 379.97 679 471.65 647.32 528.64 589.64 c 0
 584.62 533.97 616.27 457.98 616.27 353.67 c 0
 616.27 251.04 586.96 161.04 525.3 95.69 c 0
 464.31 31.35 362.32 -5.33 231.99 -5.33 c 0
 176.69 -5.33 126.7 -3.67 80.02 1.33 c 1
140.22 619.76 m 1
 140.22 49.57 l 1
 166.24 45.57 202.93 44.57 242.29 44.57 c 0
 448.39 44.57 553.41 159.96 553.41 350.67 c 0
 554.41 517.71 461.06 629.43 255.62 629.43 c 0
 205.93 629.43 167.24 624.76 140.22 619.76 c 1
EndSplineSet
Validated: 33
EndChar

StartChar: E
Encoding: 69 69 38
Width: 474
Flags: W
HStem: 0 50.89<140.22 438.92> 328.73 50.56<140.22 407.58> 623.11 50.89<140.22 423.25>
VStem: 80.02 60.2<50.89 328.73 379.29 623.11>
LayerCount: 2
Fore
SplineSet
407.58 379.29 m 1
 407.58 328.73 l 1
 140.22 328.73 l 1
 140.22 50.89 l 1
 438.92 50.89 l 1
 438.92 0 l 1
 80.02 0 l 1
 80.02 674 l 1
 423.25 674 l 1
 423.25 623.11 l 1
 140.22 623.11 l 1
 140.22 379.29 l 1
 407.58 379.29 l 1
EndSplineSet
Validated: 1
EndChar

StartChar: F
Encoding: 70 70 39
Width: 470
Flags: W
HStem: 0 21G<80.02 140.22> 319.07 50.56<140.22 399.91> 623.11 50.89<140.22 422.92>
VStem: 80.02 60.2<0 319.07 369.63 623.11>
LayerCount: 2
Fore
SplineSet
80.02 0 m 1
 80.02 674 l 1
 422.92 674 l 1
 422.92 623.11 l 1
 140.22 623.11 l 1
 140.22 369.63 l 1
 399.91 369.63 l 1
 399.91 319.07 l 1
 140.22 319.07 l 1
 140.22 0 l 1
 80.02 0 l 1
EndSplineSet
Validated: 1
EndChar

StartChar: G
Encoding: 71 71 40
Width: 631
Flags: W
HStem: -7 51.23<262.971 512.376> 291.37 49.23<362.98 513.38> 629.44 51.56<268.439 519.355>
VStem: 37.34 63.19<211.284 459.734> 513.38 59.54<57.1773 291.37>
LayerCount: 2
Fore
SplineSet
572.92 340.6 m 1
 572.92 30 l 1
 537.27 16 464.96 -7 373.29 -7 c 0
 280 -7 197.34 16.99 130 82 c 0
 74.01 136.66 37.34 226.66 37.34 334.34 c 0
 37.67 525.96 164.95 681 392.96 681 c 0
 467.61 681 526.6 663.33 553.59 650.67 c 1
 536.61 600.44 l 1
 501.28 617.11 456.28 629.44 390.96 629.44 c 0
 212.22 629.44 100.53 515.38 100.53 337 c 0
 100.53 153.27 209.56 44.23 380.63 44.23 c 0
 446.34 44.23 490.03 53.57 513.38 65.58 c 1
 513.38 291.37 l 1
 362.98 291.37 l 1
 362.98 340.6 l 1
 572.92 340.6 l 1
EndSplineSet
Validated: 1
EndChar

StartChar: H
Encoding: 72 72 41
Width: 637
Flags: W
HStem: 0 21G<80.02 140.22 497.04 557.57> 330.07 52.55<140.22 497.04> 654 20G<80.02 140.22 497.04 557.57>
VStem: 80.02 60.2<0 330.07 382.62 674> 497.04 60.53<0 330.07 382.62 674>
LayerCount: 2
Fore
SplineSet
80.02 674 m 1
 140.22 674 l 1
 140.22 382.62 l 1
 497.04 382.62 l 1
 497.04 674 l 1
 557.57 674 l 1
 557.57 0 l 1
 497.04 0 l 1
 497.04 330.07 l 1
 140.22 330.07 l 1
 140.22 0 l 1
 80.02 0 l 1
 80.02 674 l 1
EndSplineSet
Validated: 1
EndChar

StartChar: I
Encoding: 73 73 42
Width: 220
Flags: W
HStem: 0 21G<80.02 140.22> 654 20G<80.02 140.22>
VStem: 80.02 60.2<0 674>
LayerCount: 2
Fore
SplineSet
80.02 674 m 1
 140.22 674 l 1
 140.22 0 l 1
 80.02 0 l 1
 80.02 674 l 1
EndSplineSet
Validated: 1
EndChar

StartChar: J
Encoding: 74 74 43
Width: 353
Flags: W
HStem: -11 51.89<13.7632 169.421> 654 20G<220.03 280.9>
VStem: 220.03 60.87<99.5827 674>
LayerCount: 2
Fore
SplineSet
220.03 222.63 m 2
 220.03 674 l 1
 280.9 674 l 1
 280.9 213.62 l 2
 280.9 39.31 194.91 -11 91.64 -11 c 0
 60.98 -11 24.66 -3.33 6.01 5 c 1
 17 54.56 l 1
 34.33 47.56 59.66 40.89 89.33 40.89 c 0
 172.69 40.89 220.03 79.24 220.03 222.63 c 2
EndSplineSet
Validated: 1
EndChar

StartChar: K
Encoding: 75 75 44
Width: 512
Flags: W
HStem: 0 21G<80.02 140.22 438.245 525.2> 654 20G<80.02 140.22 410.468 502.85>
VStem: 80.02 60.2<0 271.74 338.28 674>
LayerCount: 2
Fore
SplineSet
80.02 0 m 1
 80.02 674 l 1
 140.22 674 l 1
 140.22 338.28 l 1
 143.89 338.28 l 1
 162.56 364.28 181.9 387.61 199.57 408.94 c 2
 427.68 674 l 1
 502.85 674 l 1
 250.14 388 l 1
 525.2 0 l 1
 452.35 0 l 1
 207.57 347.08 l 1
 140.22 271.74 l 1
 140.22 0 l 1
 80.02 0 l 1
EndSplineSet
Validated: 1
EndChar

StartChar: L
Encoding: 76 76 45
Width: 455
Flags: W
HStem: 0 50.89<140.22 436.93> 654 20G<80.02 140.22>
VStem: 80.02 60.2<50.89 674>
LayerCount: 2
Fore
SplineSet
80.02 0 m 1
 80.02 674 l 1
 140.22 674 l 1
 140.22 50.89 l 1
 436.93 50.89 l 1
 436.93 0 l 1
 80.02 0 l 1
EndSplineSet
Validated: 1
EndChar

StartChar: M
Encoding: 77 77 46
Width: 786
Flags: W
HStem: 0 21G<61.35 121.55 665.812 726.57> 654 20G<108.256 190.522 599.46 683.216>
LayerCount: 2
Fore
SplineSet
667.03 0 m 1
 648.02 312.08 l 2
 641.68 410.77 634.34 531.14 635.34 607.77 c 1
 632.34 607.77 l 1
 608.67 532.79 580.67 452.81 543.99 355.12 c 2
 409.58 1.32 l 1
 365.69 1.32 l 1
 240.61 347.11 l 2
 204.59 448.81 176.25 531.79 156.58 607.77 c 1
 153.91 607.77 l 1
 152.58 527.12 147.58 411.44 140.24 303.07 c 2
 120.23 0 l 1
 61.35 0 l 1
 109.69 674 l 1
 183.17 674 l 1
 318.27 306.46 l 2
 348.28 221.45 371.95 151.47 390.29 84.82 c 1
 392.62 84.82 l 1
 410.29 148.8 434.29 217.44 466.97 305.79 c 2
 607.07 674 l 1
 681.89 674 l 1
 726.57 0 l 1
 667.03 0 l 1
EndSplineSet
Validated: 33
EndChar

StartChar: N
Encoding: 78 78 47
Width: 644
Flags: W
HStem: 0 21G<80.02 137.9 493.127 565.25> 654 20G<80.02 154.574 506.7 565.25>
VStem: 80.02 57.88<0 594.81> 506.7 58.55<131.491 674>
LayerCount: 2
Fore
SplineSet
137.9 0 m 1
 80.02 0 l 1
 80.02 674 l 1
 141.52 674 l 1
 389.01 294.81 l 2
 441.69 212.46 480.69 146.82 513.36 80.5 c 1
 515.36 81.5 l 1
 508.03 172.17 506.7 250.82 506.7 356.49 c 2
 506.7 674 l 1
 565.25 674 l 1
 565.25 0 l 1
 506.06 0 l 1
 263.25 375.5 l 2
 214.24 452.51 168.57 525.49 133.9 595.81 c 1
 131.57 594.81 l 1
 136.57 511.15 137.9 435.51 137.9 323.51 c 2
 137.9 0 l 1
EndSplineSet
Validated: 1
EndChar

StartChar: O
Encoding: 79 79 48
Width: 676
Flags: W
HStem: -11 50.23<242.988 431.693> 634.77 50.23<244.449 434.154>
VStem: 37.34 63.52<204.781 462.853> 576.08 63.19<208.852 466.37>
LayerCount: 2
Fore
SplineSet
342.97 685 m 0
 517.59 685 639.27 550.03 639.27 344 c 0
 639.27 107.98 495.59 -11 334.31 -11 c 0
 164.35 -11 37.34 122.31 37.34 330.33 c 0
 37.34 549.02 170.34 685 342.97 685 c 0
339.64 634.77 m 0
 177.55 634.77 100.86 486.36 100.86 332.33 c 0
 100.86 182.97 185.56 39.23 337.97 39.23 c 0
 490.71 39.23 576.08 178.29 576.08 340.67 c 0
 576.08 480.03 500.72 634.77 339.64 634.77 c 0
EndSplineSet
Validated: 1
EndChar

StartChar: P
Encoding: 80 80 49
Width: 511
Flags: W
HStem: 0 21G<80.02 140.22> 274.72 49.9<141.279 326.877> 629.43 49.57<140.914 335.734>
VStem: 80.02 60.2<0 282.06 328.928 625.473> 406.68 60.87<398.295 564.836>
LayerCount: 2
Fore
SplineSet
80.02 0 m 1
 80.02 666 l 1
 120.01 673.67 170.32 679 231.61 679 c 0
 313.59 679 375.25 659 413.24 622.33 c 0
 446.89 591 467.55 545.35 467.55 487.36 c 0
 467.55 428.37 450.22 383.72 418.9 350.06 c 0
 374.91 300.39 301.25 274.72 218.26 274.72 c 0
 189.58 274.72 162.9 275.72 140.22 282.06 c 1
 140.22 0 l 1
 80.02 0 l 1
140.22 621.76 m 1
 140.22 333.63 l 1
 162.57 327.29 189.92 324.62 221.6 324.62 c 0
 336.65 324.62 406.68 380.98 406.68 483.36 c 0
 406.68 583.75 334.3 629.43 230.93 629.43 c 0
 188.91 629.43 157.23 625.76 140.22 621.76 c 1
EndSplineSet
Validated: 1
EndChar

StartChar: Q
Encoding: 81 81 50
Width: 676
Flags: W
HStem: -11 50.23<246.273 409.479> 634.77 50.23<245.031 434.899>
VStem: 37.34 63.52<210.256 462.194> 576.08 63.19<209.487 466.242>
LayerCount: 2
Fore
SplineSet
645.61 -38.06 m 1
 627.31 -91.63 l 1
 538.99 -69.64 445.97 -43.31 373.33 -20.33 c 0
 359.33 -16 346.67 -11 334.34 -11 c 0
 170.99 -6.34 37.34 113.67 37.34 330 c 0
 37.34 551.36 170.01 685 343.97 685 c 0
 517.59 685 639.27 549.03 639.27 344 c 0
 639.27 162.29 555.25 50.62 433.87 10.95 c 1
 433.87 7.62 l 1
 506.9 -10.05 586.6 -28.06 645.61 -38.06 c 1
336.3 39.23 m 0
 490.04 39.23 576.08 177.96 576.08 340.67 c 0
 576.08 480.36 500.72 634.77 341.64 634.77 c 0
 177.22 634.77 100.53 484.03 100.86 330.66 c 0
 100.53 181.63 186.23 39.23 336.3 39.23 c 0
EndSplineSet
Validated: 33
EndChar

StartChar: R
Encoding: 82 82 51
Width: 515
Flags: W
HStem: 0 21G<80.02 140.22 421.845 490.21> 303.39 47.91<140.22 316.124> 630.76 48.24<140.786 338.959>
VStem: 80.02 60.2<0 303.39 351.3 626.055> 406.68 60.87<415.758 569.948>
LayerCount: 2
Fore
SplineSet
80.02 0 m 1
 80.02 665 l 1
 122.01 674 181.66 679 232.28 679 c 0
 321.93 679 378.58 660.66 418.57 623.33 c 0
 449.22 594.67 467.55 549.34 467.55 500.69 c 0
 467.55 410.35 412.89 352.02 337.2 326.01 c 1
 337.2 323.68 l 1
 390.54 306.35 423.55 256.34 439.55 182.99 c 0
 462.22 81.62 476.21 26.67 490.21 0 c 1
 427.01 0 l 1
 416.68 19.67 401.68 78.34 383.35 163.01 c 0
 363.35 258.69 323.33 299.72 237.63 303.39 c 1
 140.22 303.39 l 1
 140.22 0 l 1
 80.02 0 l 1
140.22 622.09 m 1
 140.22 351.3 l 1
 241.28 351.3 l 2
 341.65 351.3 406.68 406.99 406.68 492.03 c 0
 406.68 589.75 334.97 630.43 233.59 630.76 c 0
 188.91 630.76 156.23 626.09 140.22 622.09 c 1
EndSplineSet
Validated: 1
EndChar

StartChar: S
Encoding: 83 83 52
Width: 473
Flags: W
HStem: -10 50.56<105.084 303.708> 634.44 50.56<173.579 361.479>
VStem: 58.68 60.53<447.011 584.236> 367.03 60.86<100.61 248.61>
LayerCount: 2
Fore
SplineSet
42 34.34 m 1
 61.32 85.23 l 1
 99.65 59.89 153.97 40.56 211.96 40.56 c 0
 308.33 40.56 367.03 94.26 367.03 172.31 c 0
 367.03 244.02 329.02 285.38 234 322.39 c 0
 124.67 360.72 58.68 417.05 58.68 510.04 c 0
 58.68 611.02 142.33 685 261.94 685 c 0
 326.92 685 375.58 668.33 400.89 652.67 c 1
 380.91 602.44 l 1
 361.59 615.11 317.93 634.44 258.94 634.44 c 0
 155.55 634.44 119.21 569.39 119.21 518.7 c 0
 119.21 447.66 161.55 411.97 257.23 374.63 c 0
 369.22 329.96 427.89 278.31 427.89 177.97 c 0
 427.89 77.99 355.58 -10 206.63 -10 c 0
 146.32 -10 77.33 9 42 34.34 c 1
EndSplineSet
Validated: 1
EndChar

StartChar: T
Encoding: 84 84 53
Width: 475
Flags: W
HStem: 0 21G<207.35 268.55> 622.78 51.22<-7.03 207.35 268.55 483.93>
VStem: 207.35 61.2<0 622.78>
LayerCount: 2
Fore
SplineSet
207.35 0 m 1
 207.35 622.78 l 1
 -7.03 622.78 l 1
 -7.03 674 l 1
 483.93 674 l 1
 483.93 622.78 l 1
 268.55 622.78 l 1
 268.55 0 l 1
 207.35 0 l 1
EndSplineSet
Validated: 1
EndChar

StartChar: U
Encoding: 85 85 54
Width: 632
Flags: W
HStem: -11 50.9<230.66 400.249> 654 20G<79.69 140.22 492.71 553.91>
VStem: 79.69 60.53<144.143 674> 492.71 61.2<145.581 674>
LayerCount: 2
Fore
SplineSet
79.69 674 m 1
 140.22 674 l 1
 140.22 269.64 l 2
 140.22 105.24 215.93 39.9 312.63 39.9 c 0
 420 39.9 492.71 109.92 492.71 269.64 c 2
 492.71 674 l 1
 553.91 674 l 1
 553.91 274.97 l 2
 553.91 67.97 442.9 -11 309.63 -11 c 0
 185.03 -11 79.69 61.3 79.69 268.29 c 2
 79.69 674 l 1
EndSplineSet
Validated: 1
EndChar

StartChar: V
Encoding: 86 86 55
Width: 525
Flags: W
HStem: 0 21G<217.392 293.16> 654 20G<1.32 72.3494 460.871 532.86>
LayerCount: 2
Fore
SplineSet
285.83 0 m 1
 224 0 l 1
 1.32 674 l 1
 65.84 674 l 1
 180.22 322.57 l 2
 211.9 226.88 238.24 142.87 256.91 66.55 c 1
 259.58 66.55 l 1
 279.25 143.21 309.26 229.55 342.61 322.24 c 2
 468 674 l 1
 532.86 674 l 1
 285.83 0 l 1
EndSplineSet
Validated: 1
EndChar

StartChar: W
Encoding: 87 87 56
Width: 828
Flags: W
HStem: 0 21G<184.827 256.611 558.91 630.776> 654 20G<15 82.5351 383.686 455.358 755.393 823.26>
VStem: 761.06 62.2<650.216 674>
LayerCount: 2
Fore
SplineSet
250.87 0 m 1
 190.02 0 l 1
 15 674 l 1
 77.52 674 l 1
 169.58 306.87 l 2
 191.59 220.86 210.93 138.87 223.6 75.21 c 1
 226.27 75.21 l 1
 237.27 139.53 260.28 219.53 285.29 307.2 c 2
 389.36 674 l 1
 450.21 674 l 1
 544.27 308.55 l 2
 564.61 227.21 585.96 144.53 595.96 75.54 c 1
 598.63 75.54 l 1
 613.3 148.87 633.64 222.53 657.32 307.87 c 2
 761.06 674 l 1
 823.26 674 l 1
 624.89 0 l 1
 564.04 0 l 1
 467.65 375.79 l 2
 443.3 470.5 427.96 537.17 418.29 601.82 c 1
 416.29 601.82 l 1
 404.96 537.5 387.95 471.5 358.93 376.46 c 2
 250.87 0 l 1
EndSplineSet
Validated: 1
EndChar

StartChar: X
Encoding: 88 88 57
Width: 554
Flags: W
HStem: 0 21G<28.35 110.295 442.989 525.23> 654 20G<37.02 118.978 440.109 522.91>
LayerCount: 2
Fore
SplineSet
525.23 0 m 1
 455.05 0 l 1
 358.33 160.39 l 2
 318.64 221.41 295.3 259.08 273.63 298.08 c 1
 270.96 298.08 l 1
 250.62 259.08 229.61 222.41 189.92 159.39 c 2
 98.87 0 l 1
 28.35 0 l 1
 239.71 341.67 l 1
 37.02 674 l 1
 107.2 674 l 1
 208.93 501.26 l 2
 235.94 456.59 256.28 422.59 276.29 386.59 c 1
 278.62 386.59 l 1
 298.96 425.25 318.64 456.92 346.32 501.26 c 2
 452.39 674 l 1
 522.91 674 l 1
 310.54 346 l 1
 525.23 0 l 1
EndSplineSet
Validated: 1
EndChar

StartChar: Y
Encoding: 89 89 58
Width: 515
Flags: W
HStem: 0 21G<228.68 289.21> 654 20G<14.34 93.975 436.536 516.55>
VStem: 228.68 60.53<0 289.68>
LayerCount: 2
Fore
SplineSet
289.21 0 m 1
 228.68 0 l 1
 228.68 290.02 l 1
 14.34 674 l 1
 83.19 674 l 1
 188.91 477.95 l 2
 216.25 425.61 239.6 383.27 261.94 334.93 c 1
 263.94 334.93 l 1
 284.28 380.27 309.96 426.28 338.64 478.62 c 2
 447.7 674 l 1
 516.55 674 l 1
 289.21 289.68 l 1
 289.21 0 l 1
EndSplineSet
Validated: 1
EndChar

StartChar: Z
Encoding: 90 90 59
Width: 543
Flags: W
HStem: 0 50.89<110.83 511.28> 623.11 50.89<65.35 428.12>
LayerCount: 2
Fore
SplineSet
32.68 0 m 1
 32.68 38.27 l 1
 428.12 620.11 l 1
 428.12 623.11 l 1
 65.35 623.11 l 1
 65.35 674 l 1
 506.28 674 l 1
 506.28 635.07 l 1
 110.83 53.89 l 1
 110.83 50.89 l 1
 511.28 50.89 l 1
 511.28 0 l 1
 32.68 0 l 1
EndSplineSet
Validated: 1
EndChar

StartChar: bracketleft
Encoding: 91 91 60
Width: 271
Flags: W
HStem: -112 42.94<138.61 261.65> 642.06 42.94<138.61 261.65>
VStem: 87.36 51.25<-69.06 642.06>
LayerCount: 2
Fore
SplineSet
261.65 -112 m 1
 87.36 -112 l 1
 87.36 685 l 1
 261.65 685 l 1
 261.65 642.06 l 1
 138.61 642.06 l 1
 138.61 -69.06 l 1
 261.65 -69.06 l 1
 261.65 -112 l 1
EndSplineSet
Validated: 1
EndChar

StartChar: backslash
Encoding: 92 92 61
Width: 345
Flags: W
HStem: 665 20G<-2.02 60.2267>
LayerCount: 2
Fore
SplineSet
353.39 -40 m 1
 299.46 -40 l 1
 -2.02 685 l 1
 51.91 685 l 1
 353.39 -40 l 1
EndSplineSet
Validated: 1
EndChar

StartChar: bracketright
Encoding: 93 93 62
Width: 271
Flags: W
HStem: -112 42.94<9.62 132.66> 643.06 42.94<9.62 132.66>
VStem: 132.66 51.92<-69.06 643.06>
LayerCount: 2
Fore
SplineSet
9.62 686 m 1
 184.58 686 l 1
 184.58 -112 l 1
 9.62 -112 l 1
 9.62 -69.06 l 1
 132.66 -69.06 l 1
 132.66 643.06 l 1
 9.62 643.06 l 1
 9.62 686 l 1
EndSplineSet
Validated: 1
EndChar

StartChar: asciicircum
Encoding: 94 94 63
Width: 596
Flags: W
HStem: 630 20G<264.045 331.984>
LayerCount: 2
Fore
SplineSet
528.63 193.69 m 1
 474.71 193.69 l 1
 299 595.09 l 1
 297 595.09 l 1
 121.96 193.69 l 1
 68.04 193.69 l 1
 273.03 650 l 1
 322.97 650 l 1
 528.63 193.69 l 1
EndSplineSet
Validated: 1
EndChar

StartChar: underscore
Encoding: 95 95 64
Width: 500
Flags: W
HStem: -125 50<0 500>
LayerCount: 2
Fore
SplineSet
0 -75 m 1
 500 -75 l 1
 500 -125 l 1
 0 -125 l 1
 0 -75 l 1
EndSplineSet
Validated: 1
EndChar

StartChar: quoteleft
Encoding: 8216 8216 65
Width: 184
Flags: W
HStem: 455.74 229.26
VStem: 38.35 68.56<465.74 527.113>
LayerCount: 2
Fore
SplineSet
106.91 465.74 m 1
 38.35 455.74 l 1
 58 533.71 101 645.73 120.63 679.67 c 1
 161.22 685 l 1
 143.57 637.39 116.57 531.04 106.91 465.74 c 1
EndSplineSet
Validated: 1
EndChar

StartChar: a
Encoding: 97 97 66
Width: 463
Flags: W
HStem: -11 48.25<130.708 270.18> 0 21G<340.23 397.55> 253.7 46.93<173.021 330.02> 444.07 48.25<113.099 287.165>
VStem: 37.68 62.54<67.5439 195.85> 330.68 59.54<97.0845 253.7 300.63 396.094>
LayerCount: 2
Fore
SplineSet
397.55 0 m 1x7c
 342.34 0 l 1x7c
 335.34 66.36 l 1
 332.34 66.36 l 1
 308.02 29.03 255.35 -11 180.99 -11 c 0xbc
 84.33 -11 37.68 57.33 37.68 123.31 c 0
 37.68 236.29 137.66 302.3 330.02 300.63 c 1
 330.02 311.97 l 2
 330.02 357.33 320.36 444.74 211.31 444.07 c 0
 168.32 444.07 123.33 432.08 89.33 408.07 c 1
 72.68 450.66 l 1
 114.69 478.67 170.01 492.32 218.95 492.32 c 0
 360.92 492.32 390.22 389.31 390.22 299.68 c 2
 390.22 114.66 l 2
 390.22 75.34 392.22 35.68 397.55 0 c 1x7c
330.68 156.97 m 2
 330.68 253.7 l 1
 228.65 256.37 100.22 240.04 100.22 131.97 c 0
 100.22 66.93 143.58 37.25 191.93 37.25 c 0xbc
 266.32 37.25 309.67 83.28 325.68 128.3 c 0
 328.68 137.97 330.68 147.97 330.68 156.97 c 2
EndSplineSet
Validated: 33
EndChar

StartChar: b
Encoding: 98 98 67
Width: 557
Flags: W
HStem: -11 49.9<212.728 372.047> 0 21G<74.36 129.036> 443.09 49.23<218.656 371.841> 690 20G<78.36 138.56>
VStem: 74.36 53.89<0 84.69> 456.4 61.2<134.732 345.929>
LayerCount: 2
Fore
SplineSet
128.25 0 m 1x7c
 74.36 0 l 1x7c
 76.36 33.67 78.36 77.98 78.36 116.29 c 2
 78.36 710 l 1
 138.56 710 l 1
 138.56 395.95 l 1
 140.56 395.95 l 1
 172.23 455.31 230.24 492.32 312.93 492.32 c 0
 433.6 492.32 517.93 391.65 517.6 245.99 c 0
 517.6 74.33 408.6 -11 302.61 -11 c 0xbc
 227.92 -11 171.25 18.68 133.91 84.69 c 1
 131.58 84.69 l 1
 128.25 0 l 1x7c
138.56 281 m 2
 138.56 187.97 l 2
 138.56 176.97 140.56 165.3 142.56 153.96 c 0
 162.24 84.92 220.61 38.9 291.98 38.9 c 0xbc
 396.04 38.9 456.4 123.95 456.4 244.33 c 0
 456.4 350.04 399.7 443.09 295.65 443.09 c 0
 228.95 443.09 165.58 396.73 144.23 321.02 c 0
 141.56 309.68 138.56 297.01 138.56 281 c 2
EndSplineSet
Validated: 33
EndChar

StartChar: c
Encoding: 99 99 68
Width: 446
Flags: W
HStem: -10 50.57<194.729 389.68> 441.42 50.57<200.228 389.716>
VStem: 40.01 61.53<140.406 338.972>
LayerCount: 2
Fore
SplineSet
400.32 66.58 m 1
 413.98 20.01 l 1
 392.32 8.68 341.99 -10 274.31 -10 c 0
 133 -10 40.01 89.67 40.01 235.66 c 0
 40.01 386.67 143.35 491.99 291.97 491.99 c 0
 348.66 491.99 396 476.31 416.65 463.64 c 1
 398.66 415.07 l 1
 375.65 427.74 339.97 441.42 288.62 441.42 c 0
 165.56 441.42 101.54 348.03 101.54 238.99 c 0
 101.54 118.28 178.23 40.57 284.28 40.57 c 0
 338.97 40.57 374.65 55.58 400.32 66.58 c 1
EndSplineSet
Validated: 1
EndChar

StartChar: d
Encoding: 100 100 69
Width: 550
Flags: W
HStem: -11 50.23<183.871 336.879> 0 21G<420.609 476.24> 443.42 48.9<186.373 339.937> 690 20G<411.71 472.24>
VStem: 40.01 61.53<133.416 346.275> 411.71 60.53<24.3553 88.69 115.79 371.663 411.62 710>
LayerCount: 2
Fore
SplineSet
411.71 710 m 1xbc
 472.24 710 l 1
 472.24 116.29 l 2
 472.24 77.98 473.91 33.67 476.24 0 c 1
 421.36 0 l 1x7c
 418.03 88.69 l 1
 416.03 88.69 l 1
 390.37 35.36 332.71 -11 247.01 -11 c 0
 129.34 -11 40.01 88 40.01 232.32 c 0
 39.01 392.65 138.34 492.32 256.34 492.32 c 0
 336.37 492.32 387.71 451.96 409.71 411.62 c 1
 411.71 411.62 l 1
 411.71 710 l 1xbc
411.71 196.97 m 2
 411.71 289.01 l 2
 411.71 301.35 410.04 318.36 407.04 330.7 c 0
 391.36 392.06 338 443.42 263.96 443.42 c 0
 163.58 443.42 101.54 356.05 101.54 236.99 c 0
 101.54 132.29 153.56 39.23 261.29 39.23 c 0xbc
 326.99 39.23 387.69 82.25 407.04 157.63 c 0
 410.04 170.3 411.71 182.3 411.71 196.97 c 2
EndSplineSet
Validated: 33
EndChar

StartChar: e
Encoding: 101 101 70
Width: 490
Flags: W
HStem: -10 49.91<187.647 399.648> 238.73 46.25<101.56 389.38> 445.4 46.92<179.573 329.059>
VStem: 40.01 59.21<133.999 238.73 284.98 349.912> 389.38 61.55<284.98 379.283>
LayerCount: 2
Fore
SplineSet
448.6 238.73 m 1
 99.22 238.73 l 1
 99.88 96.28 181.24 39.91 276.61 39.91 c 0
 344.3 39.91 380.96 52.92 409.94 66.25 c 1
 422.93 20 l 1
 400.64 8.68 350.32 -10 268.63 -10 c 0
 127 -10 40.01 89.34 40.01 231.99 c 0
 40.01 387.37 130.03 492.32 259.64 492.32 c 0
 416.97 492.32 450.93 347.29 450.93 271.69 c 0
 450.93 257.04 450.27 247.06 448.6 238.73 c 1
101.56 284.98 m 1
 389.38 284.98 l 1
 390.38 348.35 363.7 445.4 253.31 445.4 c 0
 152.92 445.4 109.23 354.69 101.56 284.98 c 1
EndSplineSet
Validated: 33
EndChar

StartChar: f
Encoding: 102 102 71
Width: 271
Flags: W
HStem: 0 21G<83.34 143.54> 433.75 47.57<14.67 83.34 143.54 268.58> 670.77 50.23<184.786 310.705>
VStem: 83.34 60.2<0 433.75 481.32 623.006>
LayerCount: 2
Fore
SplineSet
143.54 0 m 1
 83.34 0 l 1
 83.34 433.75 l 1
 14.67 433.75 l 1
 14.67 481.32 l 1
 83.34 481.32 l 1
 83.34 506.33 l 2
 83.34 578.35 97.67 639.01 137.33 678.01 c 0
 167.65 708 208.97 721 247.29 721 c 0
 278.29 721 305.29 713.33 320.28 705.66 c 1
 306.27 657.76 l 1
 293.27 664.43 274.6 670.77 246.92 670.77 c 0
 162.54 670.77 143.54 594.05 143.54 507.99 c 2
 143.54 481.32 l 1
 268.58 481.32 l 1
 268.58 433.75 l 1
 143.54 433.75 l 1
 143.54 0 l 1
EndSplineSet
Validated: 1
EndChar

StartChar: g
Encoding: 103 103 72
Width: 548
Flags: W
HStem: -209 49.57<134.355 335.494> 0.66 48.91<181.759 337.718> 443.42 48.9<187.236 341.302> 461.32 20G<419.021 474.59>
VStem: 40.01 61.53<139.003 346.725> 419.7 54.89<402.96 481.32>
LayerCount: 2
Fore
SplineSet
419.7 481.32 m 1xdc
 474.59 481.32 l 1xdc
 472.59 445.65 470.59 407.32 470.59 354.35 c 2
 470.59 70 l 2
 470.59 -49.04 446.58 -112.35 404.27 -151.67 c 0
 359.28 -194.33 293.29 -209 236.98 -209 c 0
 180.99 -209 119 -195 82.01 -168.33 c 1
 100.66 -120.09 l 1
 133.33 -141.43 181.32 -159.43 242.66 -159.43 c 0
 340.03 -159.43 410.72 -109.08 410.72 26.32 c 2
 410.72 89.7 l 1
 408.72 89.7 l 1
 383.06 42.02 328.38 0.66 246.01 0.66 c 0
 125.34 0.66 40.01 104.67 40.01 236.66 c 0
 40.01 402.67 149.02 492.32 256.67 492.32 c 0xec
 348.04 492.32 394.71 442.96 415.04 402.96 c 1
 417.04 402.96 l 1
 419.7 481.32 l 1xdc
410.39 201.31 m 2
 410.39 295.01 l 2
 410.39 311.35 408.72 325.69 404.72 339.03 c 0
 386.04 394.72 337.68 443.42 264.3 443.42 c 0xec
 168.24 443.42 101.54 363.71 101.54 241.66 c 0
 101.54 137.95 155.57 49.57 262.63 49.57 c 0
 323.33 49.57 379.7 86.92 402.05 151.63 c 0
 407.72 167.3 410.39 184.97 410.39 201.31 c 2
EndSplineSet
Validated: 1
EndChar

StartChar: h
Encoding: 104 104 73
Width: 542
Flags: W
HStem: 0 21G<78.36 138.89 407.05 467.58> 440.76 51.56<214.388 353.247> 690 20G<78.36 138.89>
VStem: 78.36 60.53<0 368.919 398.62 710> 407.05 60.53<0 378.536>
LayerCount: 2
Fore
SplineSet
78.36 0 m 1
 78.36 710 l 1
 138.89 710 l 1
 138.89 398.62 l 1
 140.89 398.62 l 1
 154.89 424.96 177.56 449.64 205.9 465.98 c 0
 232.57 482.32 264.91 492.32 300.59 492.32 c 0
 352.19 492.32 467.58 463.71 467.58 289.34 c 2
 467.58 0 l 1
 407.05 0 l 1
 407.05 282.02 l 2
 407.05 366.05 374.7 440.76 281.65 440.76 c 0
 217.28 440.76 164.24 394.73 145.56 338.69 c 0
 140.56 325.35 138.89 311.68 138.89 293.34 c 2
 138.89 0 l 1
 78.36 0 l 1
EndSplineSet
Validated: 1
EndChar

StartChar: i
Encoding: 105 105 74
Width: 217
Flags: W
HStem: 0 21G<78.36 138.89> 461.32 20G<78.36 138.89> 572.7 91.58<71.4738 146.017>
VStem: 64.68 87.56<578.781 657.596> 78.36 60.53<0 481.32>
LayerCount: 2
Fore
SplineSet
138.89 0 m 1xe8
 78.36 0 l 1
 78.36 481.32 l 1
 138.89 481.32 l 1
 138.89 0 l 1xe8
108.96 664.28 m 0
 135.26 664.28 152.24 643.63 152.24 617.99 c 0
 152.57 593.35 135.26 572.7 106.96 572.7 c 0
 81.99 572.7 64.68 593.35 64.68 617.99 c 0xf0
 64.68 642.96 83.66 664.28 108.96 664.28 c 0
EndSplineSet
Validated: 33
EndChar

StartChar: j
Encoding: 106 106 75
Width: 223
Flags: W
HStem: -209 48.9<-40.69 29.0448> 461.32 20G<86.01 146.54> 572.7 91.58<79.1426 153.451>
VStem: 72.33 87.56<578.443 657.44> 86.01 60.53<-101.393 481.32>
LayerCount: 2
Fore
SplineSet
-40.69 -209 m 1xe8
 -47.68 -160.1 l 1
 -6.34 -157.77 29.33 -145.43 51 -121.09 c 0
 75.67 -91.75 86.01 -53.75 86.01 69.62 c 2
 86.01 481.32 l 1
 146.54 481.32 l 1
 146.54 36.96 l 2
 146.54 -51.68 135.56 -111.34 93.23 -156.01 c 0
 57.58 -194.34 -3.74 -208.33 -40.69 -209 c 1xe8
117.61 664.28 m 0
 142.91 664.28 159.89 642.96 159.89 617.99 c 0
 160.22 594.35 143.91 572.7 114.94 572.7 c 0
 89.31 572.7 72.33 594.35 72.33 617.99 c 0xf0
 72.33 642.96 91.31 664.28 117.61 664.28 c 0
EndSplineSet
Validated: 33
EndChar

StartChar: k
Encoding: 107 107 76
Width: 438
Flags: W
HStem: 0 21G<78.36 138.56 357.476 446.84> 461.32 20G<327.968 420.17> 690 20G<78.36 138.56>
VStem: 78.36 60.2<0 194.06 253.29 710>
LayerCount: 2
Fore
SplineSet
138.56 710 m 1
 138.56 253.29 l 1
 140.56 253.29 l 1
 152.56 268.95 171.57 290.62 186.24 306.95 c 2
 346.33 481.32 l 1
 420.17 481.32 l 1
 228.48 282.32 l 1
 446.84 0 l 1
 372.67 0 l 1
 186.24 245.4 l 1
 138.56 194.06 l 1
 138.56 0 l 1
 78.36 0 l 1
 78.36 710 l 1
 138.56 710 l 1
EndSplineSet
Validated: 1
EndChar

StartChar: l
Encoding: 108 108 77
Width: 219
Flags: W
HStem: 0 21G<78.36 138.89> 690 20G<78.36 138.89>
VStem: 78.36 60.53<0 710>
LayerCount: 2
Fore
SplineSet
78.36 0 m 1
 78.36 710 l 1
 138.89 710 l 1
 138.89 0 l 1
 78.36 0 l 1
EndSplineSet
Validated: 1
EndChar

StartChar: m
Encoding: 109 109 78
Width: 823
Flags: W
HStem: 0 21G<78.36 138.23 384.04 443.91 689.39 749.26> 441.09 51.23<203.795 336.634 503.984 638.721> 461.32 20G<74.36 130.217>
VStem: 74.36 54.89<398.63 481.32> 78.36 59.87<0 370.679 398.63 463.088> 384.04 59.87<0 377.308> 689.39 59.87<0 380.294>
LayerCount: 2
Fore
SplineSet
78.36 0 m 1xce
 78.36 361.04 l 2xce
 78.36 407.02 76.69 442.66 74.36 481.32 c 1
 129.25 481.32 l 1xb6
 133.25 398.63 l 1
 135.58 398.63 l 1
 164.59 450.66 210.26 492.32 289.59 492.32 c 0
 356.26 492.32 406.93 449.64 427.26 389.96 c 1
 429.26 389.96 l 1
 443.59 418.3 461.25 439.3 479.91 454.3 c 0
 510.25 478.98 542.92 492.32 592.27 492.32 c 0
 644.88 492.32 749.26 461.04 749.26 283.66 c 2
 749.26 0 l 1
 689.39 0 l 1
 689.39 276.68 l 2
 689.39 379.73 650.03 441.09 570.99 441.09 c 0
 514.29 441.09 469.26 399.4 452.25 351.04 c 0
 447.58 337.7 443.91 321.7 443.91 305.03 c 2
 443.91 0 l 1
 384.04 0 l 1
 384.04 296.7 l 2
 384.04 380.4 344.68 441.09 270.98 441.09 c 0
 209.28 441.09 162.58 391.73 145.9 339.69 c 0
 140.9 326.69 138.23 310.35 138.23 294.68 c 2
 138.23 0 l 1
 78.36 0 l 1xce
EndSplineSet
Validated: 1
EndChar

StartChar: n
Encoding: 110 110 79
Width: 542
Flags: W
HStem: 0 21G<78.36 138.89 407.05 467.58> 440.76 51.56<210.163 354.612> 461.32 20G<74.36 130.603>
VStem: 74.36 55.22<396.63 481.32> 78.36 60.53<0 370.757> 407.05 60.53<0 378.025>
LayerCount: 2
Fore
SplineSet
78.36 0 m 1xcc
 78.36 361.04 l 2xcc
 78.36 407.02 76.69 442.66 74.36 481.32 c 1
 129.58 481.32 l 1xb4
 133.91 396.63 l 1
 135.91 396.63 l 1
 161.25 447.99 219.93 492.32 299.26 492.32 c 0
 352.19 492.32 467.58 463.71 467.58 288.33 c 2
 467.58 0 l 1
 407.05 0 l 1
 407.05 282.35 l 2
 407.05 366.38 374.7 440.76 280.98 440.76 c 0
 216.28 440.76 163.24 395.07 145.56 337.36 c 0
 141.56 325.69 138.89 310.02 138.89 295.02 c 2
 138.89 0 l 1
 78.36 0 l 1xcc
EndSplineSet
Validated: 1
EndChar

StartChar: o
Encoding: 111 111 80
Width: 537
Flags: W
HStem: -11 48.58<190.933 343.322> 444.41 47.91<189.403 348.812>
VStem: 40.01 61.53<138.694 344.875> 435.74 61.86<139.996 342.234>
LayerCount: 2
Fore
SplineSet
271.3 492.32 m 0
 406.28 492.32 497.6 392.66 497.6 245.33 c 0
 497.6 65.66 374.27 -11 263.97 -11 c 0
 137.66 -11 40.01 85.67 40.01 236.66 c 0
 40.01 400.67 147.35 492.32 271.3 492.32 c 0
269.97 444.41 m 0
 153.91 444.41 101.54 339.03 101.54 239.66 c 0
 101.54 124.28 173.26 37.58 267.3 37.58 c 0
 362.02 37.58 435.74 123.95 435.74 242.33 c 0
 435.74 328.35 388.71 444.41 269.97 444.41 c 0
EndSplineSet
Validated: 1
EndChar

StartChar: p
Encoding: 112 112 81
Width: 557
Flags: W
HStem: -198 21G<78.36 138.56> -11 49.57<213.718 372.382> 443.09 49.23<219.487 371.358> 461.32 20G<74.36 131.485>
VStem: 74.36 56.22<392.96 481.32> 456.4 61.2<134.846 348.394>
LayerCount: 2
Fore
SplineSet
78.36 -198 m 1xec
 78.36 326.67 l 2
 78.36 387.33 76.36 435.99 74.36 481.32 c 1
 130.58 481.32 l 1xdc
 134.58 392.96 l 1
 136.58 392.96 l 1
 171.24 455.31 229.58 492.32 311.93 492.32 c 0
 432.95 492.32 517.6 391.31 517.6 248.33 c 0
 517.6 75.67 414.28 -11 298.94 -11 c 0
 231.59 -11 172.24 19.01 140.56 73.71 c 1
 138.56 73.71 l 1
 138.56 -198 l 1
 78.36 -198 l 1xec
138.56 282.01 m 2
 138.56 191.64 l 2
 138.56 178.64 140.56 165.97 142.56 154.3 c 0
 161.24 84.59 221.61 38.57 291.98 38.57 c 0
 396.37 38.57 456.4 123.28 456.4 245.67 c 0
 456.4 350.04 399.37 443.09 295.65 443.09 c 0xec
 228.95 443.09 164.91 396.07 145.23 321.36 c 0
 142.23 309.02 138.56 294.68 138.56 282.01 c 2
EndSplineSet
Validated: 1
EndChar

StartChar: q
Encoding: 113 113 82
Width: 548
Flags: W
HStem: -198 21G<411.71 472.24> -11 49.9<183.089 336.788> 443.09 49.23<187.026 341.083> 461.32 20G<418.45 475.91>
VStem: 40.01 61.53<128.637 345.716> 419.04 56.87<402.29 481.32>
LayerCount: 2
Fore
SplineSet
411.71 -198 m 1xdc
 411.71 80.36 l 1
 409.04 80.36 l 1
 385.05 31.69 329.04 -11 246.35 -11 c 0
 130 -11 40.01 88.34 40.01 231.99 c 0
 40.01 416.34 159.02 492.32 260.35 492.32 c 0xec
 340.71 492.32 392.05 449.96 414.71 402.29 c 1
 416.71 402.29 l 1
 419.04 481.32 l 1
 475.91 481.32 l 1
 473.91 443.67 472.24 404.35 472.24 354.35 c 2
 472.24 -198 l 1
 411.71 -198 l 1xdc
411.71 190.97 m 2
 411.71 290.01 l 2
 411.71 304.02 410.04 318.69 407.04 331.7 c 0
 391.36 391.73 339 443.09 264.96 443.09 c 0
 164.58 443.09 101.54 358.05 101.54 237.66 c 0
 101.54 134.29 150.22 38.9 261.29 38.9 c 0
 323.65 38.9 379.35 76.58 403.37 145.62 c 0
 408.04 158.96 411.71 176.63 411.71 190.97 c 2
EndSplineSet
Validated: 1
EndChar

StartChar: r
Encoding: 114 114 83
Width: 305
Flags: W
HStem: 0 21G<78.36 138.56> 434.11 58.21<202.121 291.23> 461.32 20G<74.36 129.734>
VStem: 74.36 54.89<384.98 481.32>
LayerCount: 2
Fore
SplineSet
78.36 0 m 1xd0
 78.36 335.01 l 2
 78.36 385.98 76.69 435.65 74.36 481.32 c 1
 129.25 481.32 l 1xb0
 131.58 384.98 l 1
 134.24 384.98 l 1
 155.57 446.63 206.56 492.32 270.25 492.32 c 0
 277.57 492.32 284.57 491.32 291.23 489.99 c 1
 291.23 431.78 l 1
 283.57 433.78 275.91 434.11 265.92 434.11 c 0
 201.24 434.11 155.23 380.41 142.56 307.04 c 0
 140.56 293.7 138.56 278.36 138.56 262.69 c 2
 138.56 0 l 1
 78.36 0 l 1xd0
EndSplineSet
Validated: 1
EndChar

StartChar: s
Encoding: 115 115 84
Width: 380
Flags: W
HStem: -10 48.25<83.5071 246.549> 443.74 48.58<140.84 289.873>
VStem: 56.35 59.21<314.793 418.835> 277.7 59.54<68.61 181.12>
LayerCount: 2
Fore
SplineSet
42.35 23 m 1
 61 71.91 l 1
 87 55.58 128.31 38.25 171.64 38.25 c 0
 243.68 38.25 277.7 76.28 277.7 122.98 c 0
 277.7 172.35 248.01 198.7 180.33 225.38 c 0
 98.69 255.71 56.35 300.36 56.35 358.36 c 0
 56.35 430.33 113.32 492.32 210.62 492.32 c 0
 256.27 492.32 295.25 478.99 320.91 462.32 c 1
 300.92 415.07 l 1
 283.93 427.07 251.61 443.74 204.6 443.74 c 0
 146.57 443.74 115.56 407.71 115.56 366.35 c 0
 115.56 319.65 147.91 298.97 212.25 272.96 c 0
 292.23 242.3 337.24 202.31 337.24 129.64 c 0
 337.24 46.65 272.58 -10 168.97 -10 c 0
 119.99 -10 75.01 3 42.35 23 c 1
EndSplineSet
Validated: 1
EndChar

StartChar: t
Encoding: 116 116 85
Width: 316
Flags: W
HStem: -10 50.56<176.166 281.142> 433.75 47.57<18 97.02 157.56 290.93>
VStem: 97.02 60.54<59.8286 433.75 481.32 602.68>
LayerCount: 2
Fore
SplineSet
97.02 602.68 m 1
 157.56 620.32 l 1
 157.56 481.32 l 1
 290.93 481.32 l 1
 290.93 433.75 l 1
 157.56 433.75 l 1
 157.56 138.58 l 2
 157.56 77.91 175.9 40.56 226.24 40.56 c 0
 250.58 40.56 268.25 44.23 279.92 47.9 c 1
 285.26 1.33 l 1
 268.93 -5 245.28 -10 214.63 -10 c 0
 177.65 -10 147.33 1.66 128.34 24.99 c 0
 105.35 50.32 97.02 91.31 97.02 142.95 c 2
 97.02 433.75 l 1
 18 433.75 l 1
 18 481.32 l 1
 97.02 481.32 l 1
 97.02 602.68 l 1
EndSplineSet
Validated: 1
EndChar

StartChar: u
Encoding: 117 117 86
Width: 537
Flags: W
HStem: -11 52.23<185.742 327.773> 0 21G<407.138 463.24> 461.32 20G<74.69 135.22 398.71 459.24>
VStem: 74.69 60.53<98.1415 481.32> 398.71 60.53<20.5989 83.02 109.526 481.32> 408.02 55.22<0 83.02>
LayerCount: 2
Fore
SplineSet
459.24 481.32 m 1xb8
 459.24 121.95 l 2xb8
 459.24 77.31 460.91 37.33 463.24 0 c 1
 408.02 0 l 1x74
 404.36 83.02 l 1
 402.36 83.02 l 1
 378.69 40.67 325.01 -11 239.01 -11 c 0
 173.06 -11 74.69 22.96 74.69 201 c 2
 74.69 481.32 l 1
 135.22 481.32 l 1
 135.22 211.98 l 2
 135.22 111.94 166.57 41.23 256.62 41.23 c 0
 322.99 41.23 370.69 87.59 389.37 132.62 c 0
 394.37 146.96 398.71 164.97 398.71 182.98 c 2
 398.71 481.32 l 1
 459.24 481.32 l 1xb8
EndSplineSet
Validated: 1
EndChar

StartChar: v
Encoding: 118 118 87
Width: 461
Flags: W
HStem: 0 21G<193.263 264.914> 461.32 20G<14.34 86.8819 378.948 450.23>
LayerCount: 2
Fore
SplineSet
14.34 481.32 m 1
 79.53 481.32 l 1
 185.92 191.9 l 2
 203.93 145.89 218.27 105.22 230.28 65.22 c 1
 232.61 65.22 l 1
 245.62 105.22 261.63 146.56 278.97 191.9 c 2
 386.37 481.32 l 1
 450.23 481.32 l 1
 256.88 0 l 1
 201.02 0 l 1
 14.34 481.32 l 1
EndSplineSet
Validated: 1
EndChar

StartChar: w
Encoding: 119 119 88
Width: 726
Flags: W
HStem: 0 65.91<193.638 206.731 518.369 531.397> 461.32 20G<21.35 89.5387 330.853 398.869 641.943 709.61>
VStem: 648.07 61.54<460.087 481.32>
LayerCount: 2
Fore
SplineSet
21.35 481.32 m 1
 83.88 481.32 l 1
 158.6 217.23 l 2
 174.61 161.89 188.28 113.23 197.95 65.91 c 1
 200.95 65.91 l 1
 212.62 111.56 228.62 162.89 247.3 216.9 c 2
 337.69 481.32 l 1
 392.26 481.32 l 1
 478.65 219.89 l 2
 497.32 161.89 511.99 112.23 524.33 65.91 c 1
 526.66 65.91 l 1
 536 112.23 550.34 161.22 567.68 218.89 c 2
 648.07 481.32 l 1
 709.61 481.32 l 1
 550.93 0 l 1
 496.39 0 l 1
 411.67 255.12 l 2
 391.99 311.8 376.65 362.48 363.98 417.47 c 1
 361.98 417.47 l 1
 348.64 360.14 331.63 308.13 312.62 254.12 c 2
 222.56 0 l 1
 168.02 0 l 1
 21.35 481.32 l 1
EndSplineSet
Validated: 1
EndChar

StartChar: x
Encoding: 120 120 89
Width: 440
Flags: W
HStem: 0 21G<10.01 91.6874 341.249 424.2> 461.32 20G<19.35 101.659 337.899 418.53>
LayerCount: 2
Fore
SplineSet
19.35 481.32 m 1
 87.87 481.32 l 1
 165.58 368.61 l 2
 185.59 340.94 201.26 315.94 218.6 287.6 c 1
 220.93 287.6 l 1
 238.94 316.6 256.28 342.27 274.29 368.94 c 2
 351.67 481.32 l 1
 418.53 481.32 l 1
 252.19 247.32 l 1
 424.2 0 l 1
 355.02 0 l 1
 273.97 117.71 l 2
 253.63 147.05 235.62 175.39 216.61 205.73 c 1
 214.61 205.73 l 1
 197.27 175.39 178.93 148.72 157.58 117.71 c 2
 78.2 0 l 1
 10.01 0 l 1
 184.69 245.66 l 1
 19.35 481.32 l 1
EndSplineSet
Validated: 1
EndChar

StartChar: y
Encoding: 121 121 90
Width: 450
Flags: W
HStem: 461.32 20G<10.34 84.0257 369.073 441.22>
LayerCount: 2
Fore
SplineSet
10.34 481.32 m 1
 76.19 481.32 l 1
 195.59 176.56 l 2
 207.93 143.22 220.6 105.22 229.27 74.88 c 1
 231.27 74.88 l 1
 240.94 104.55 252.28 141.55 266.29 179.23 c 2
 376.36 481.32 l 1
 441.22 481.32 l 1
 301.18 127.61 l 2
 241.53 -27 199.87 -114.68 137.86 -168.69 c 0
 98.21 -202.67 61.24 -217 45.94 -221 c 1
 28.63 -169.78 l 1
 51.97 -161.44 82.98 -145.43 110.32 -119.41 c 0
 134.32 -97.73 165.66 -59.71 188.34 -6.67 c 0
 192.34 3.67 194.67 9.33 194.67 14.33 c 0
 194.67 19.33 192.67 25.66 188.67 35.99 c 2
 10.34 481.32 l 1
EndSplineSet
Validated: 1
EndChar

StartChar: z
Encoding: 122 122 91
Width: 411
Flags: W
HStem: 0 49.23<93.83 395.59> 431.76 49.56<37.33 319.43>
LayerCount: 2
Fore
SplineSet
16.66 0 m 1
 16.66 36.26 l 1
 261.79 358.78 l 2
 280.78 382.77 299.44 405.1 319.43 429.76 c 1
 319.43 431.76 l 1
 37.33 431.76 l 1
 37.33 481.32 l 1
 393.6 481.32 l 1
 392.6 441.73 l 1
 148.46 121.2 l 2
 130.47 96.88 112.48 74.89 93.83 51.23 c 1
 93.83 49.23 l 1
 395.59 49.23 l 1
 395.59 0 l 1
 16.66 0 l 1
EndSplineSet
Validated: 1
EndChar

StartChar: braceleft
Encoding: 123 123 92
Width: 271
Flags: W
HStem: -112 42.94<169.397 249.62> 267.36 40.28<27.33 90.8567> 642.06 42.94<168.516 249.62>
VStem: 27.33 67.29<278.607 298.391> 92.33 52.25<-45.2052 215.585 358.925 619.787> 110.34 50.92<26.9673 248.689 325.294 548.187>
LayerCount: 2
Fore
SplineSet
27.33 267.36 m 1xf4
 27.33 307.64 l 1
 99 306.97 110.34 346.64 110.34 384.32 c 0xf4
 110.34 413.66 105.67 441.66 101.67 470.33 c 0
 97 499 92.33 526.67 92.33 555.34 c 0
 92.33 646.67 153 685 234.65 685 c 2
 249.62 685 l 1
 249.62 642.06 l 1
 231.62 642.06 l 2
 167.26 642.06 144.58 608.72 144.58 549.36 c 0xe8
 144.58 524.35 148.92 498.34 152.92 472.33 c 0
 157.59 446.66 161.26 421.32 161.26 393.65 c 0
 162.26 334.34 134.93 301 94.62 289.67 c 1
 94.62 287.67 l 1
 134.93 276 162.26 240.66 161.26 181.35 c 0xf4
 161.26 154.35 157.59 128.01 152.92 102.67 c 0
 148.92 76.33 144.58 50.65 144.58 24.64 c 0
 144.58 -36.72 171.6 -69.06 231.62 -69.06 c 2
 249.62 -69.06 l 1
 249.62 -112 l 1
 234.65 -112 l 2
 155 -112 92.33 -76 92.33 25.67 c 0xe8
 92.33 53.34 97 81.34 101.67 108.34 c 0
 105.67 136.01 110.34 163.01 110.34 190.68 c 0
 110.34 223.69 99 268.7 27.33 267.36 c 1xf4
EndSplineSet
Validated: 33
EndChar

StartChar: bar
Encoding: 124 124 93
Width: 220
Flags: W
VStem: 85.33 50.25<-250 750>
LayerCount: 2
Fore
SplineSet
85.33 750 m 1
 135.58 750 l 1
 135.58 -250 l 1
 85.33 -250 l 1
 85.33 750 l 1
EndSplineSet
Validated: 1
EndChar

StartChar: braceright
Encoding: 125 125 94
Width: 271
Flags: W
HStem: -112 42.94<21.65 101.281> 267.36 40.28<180.533 244.61> 642.06 42.94<21.65 102.494>
VStem: 109.68 51.25<26.4131 248.837 325.223 551.092> 126.69 52.25<-44.892 184.734 390.32 619.594> 176.32 68.29<278.607 298.391>
LayerCount: 2
Fore
SplineSet
244.61 307.64 m 1xf4
 244.61 267.36 l 1
 172.27 268.7 160.93 223.69 160.93 190.68 c 0xf4
 160.93 163.01 165.6 136.01 170.27 108.34 c 0
 174.94 81.34 178.94 53.34 178.94 25.67 c 0
 178.94 -76 115.94 -112 36.62 -112 c 2
 21.65 -112 l 1
 21.65 -69.06 l 1
 39.32 -69.06 l 2
 99.34 -67.39 126.69 -36.72 126.69 24.64 c 0xe8
 126.69 50.65 122.69 76.33 118.35 102.67 c 0
 114.35 128.01 109.68 154.35 109.68 181.35 c 0
 109.68 240.66 136.34 276 176.32 287.67 c 1
 176.32 289.67 l 1
 136.34 301 109.68 334.34 109.68 393.65 c 0xf4
 109.68 421.32 114.35 446.66 118.35 472.33 c 0
 122.69 498.34 126.69 524.35 126.69 549.36 c 0
 126.69 608.72 103.68 641.06 39.65 642.06 c 2
 21.65 642.06 l 1
 21.65 685 l 1
 36.29 685 l 2
 117.94 685 178.94 646.67 178.94 555.34 c 0xe8
 178.94 526.67 174.94 499 170.27 470.33 c 0
 165.6 441.66 160.93 413.66 160.93 384.32 c 0
 160.93 346.64 172.27 306.97 244.61 307.64 c 1xf4
EndSplineSet
Validated: 33
EndChar

StartChar: asciitilde
Encoding: 126 126 95
Width: 596
Flags: W
HStem: 216.38 50.25<353.595 484.722> 303.71 50.59<113.92 240.767>
VStem: 51.01 44.93<218.04 284.773> 500.73 44.59<282.849 351.97>
LayerCount: 2
Fore
SplineSet
95.94 218.04 m 1
 51.01 218.04 l 1
 46.34 303.97 98.33 354.3 161.97 354.3 c 0
 201.29 354.3 231.95 341.97 304.31 309.97 c 0
 357.32 285.97 399.01 266.63 440.7 266.63 c 0
 482.06 266.63 500.4 298.98 500.73 351.97 c 1
 545.32 351.97 l 1
 550.32 253.37 495 216.38 437.69 216.38 c 0
 402.38 216.38 366.38 226.37 291.35 259.04 c 0
 242.34 281.37 201.99 303.71 160.63 303.71 c 0
 119.94 303.71 96.6 275.36 95.94 218.04 c 1
EndSplineSet
Validated: 33
EndChar

StartChar: exclamdown
Encoding: 161 161 96
Width: 214
Flags: W
HStem: -198 21G<72.36 143.23> 384.77 100.55<68.986 145.995>
VStem: 61.36 92.54<392.144 478.307> 72.36 70.87<-198 112.078> 83.01 49.24<-21.6983 288.38>
LayerCount: 2
Fore
SplineSet
143.23 -198 m 1xd0
 72.36 -198 l 1xd0
 83.01 288.38 l 1
 132.25 288.38 l 1xc8
 143.23 -198 l 1xd0
107.96 485.32 m 0
 135.59 485.32 153.9 464.01 153.9 434.71 c 0
 153.9 407.75 135.59 384.77 106.96 384.77 c 0
 80 384.77 60.69 407.75 61.36 434.71 c 0xe0
 61.36 464.01 80.33 485.32 107.96 485.32 c 0
EndSplineSet
Validated: 33
EndChar

StartChar: cent
Encoding: 162 162 97
Width: 496
Flags: W
HStem: 87.67 48.24<209.817 263.31 310.57 398.505> 524.75 46.24<216.571 263.31 310.57 394.329> 653.67 20G<263.31 310.57>
VStem: 63.65 59.86<227.42 426.299> 263.31 47.26<-15.34 87.67 572.32 673.67>
LayerCount: 2
Fore
SplineSet
310.57 -15.34 m 1
 263.31 -15.34 l 1
 263.31 87.67 l 1
 198.64 94.33 156.32 116.66 120.32 154.99 c 0
 86.32 191.65 63.65 249.65 63.65 325.33 c 0
 63.65 458.35 145.33 554.34 263.31 570.99 c 1
 263.31 673.67 l 1
 310.57 673.67 l 1
 310.57 572.32 l 1
 360.93 572.32 403.27 557.31 425.6 545.31 c 1
 406.94 496.4 l 1
 386.94 509.07 350.93 524.75 296.24 524.75 c 0
 189.87 524.75 123.51 434.03 123.51 327.99 c 0
 123.51 208.95 195.53 135.91 290.9 135.91 c 0
 350.59 135.91 387.6 151.92 411.6 163.59 c 1
 425.59 119.35 l 1
 407.6 108.35 363.59 90.34 310.57 87.67 c 1
 310.57 -15.34 l 1
EndSplineSet
Validated: 1
EndChar

StartChar: sterling
Encoding: 163 163 98
Width: 496
Flags: W
HStem: 0 51.56<145.53 456.93> 306.39 46.25<62 161.03 224.56 365.25> 610.77 50.23<251.754 419.351>
VStem: 148.02 57.88<354.208 562.398> 172.68 51.88<131.213 306.39>
LayerCount: 2
Fore
SplineSet
456.93 0 m 1xe8
 58.01 0 l 1
 58.01 37.27 l 1
 131.04 75.96 172.68 145.98 172.68 223.66 c 0xe8
 172.68 251.68 171.68 274.36 167.01 306.39 c 1
 62 306.39 l 1
 62 352.64 l 1
 161.03 352.64 l 1
 155.36 384.65 148.02 428.34 148.02 471.36 c 0
 148.02 586.68 224.33 661 325.95 661 c 0
 376.61 661 410.6 649 430.93 636 c 1
 413.61 589.43 l 1
 396.28 599.43 366.61 610.77 322.6 610.77 c 0
 241.25 610.77 205.9 553.42 205.9 473.04 c 0xf0
 205.9 423.34 212.57 387.32 218.57 352.64 c 1
 365.25 352.64 l 1
 365.25 306.39 l 1
 224.56 306.39 l 1
 228.9 263.03 232.24 218.33 222.57 176.97 c 0
 210.9 126.6 184.22 85.91 145.53 53.56 c 1
 145.53 51.56 l 1
 456.93 51.56 l 1
 456.93 0 l 1xe8
EndSplineSet
Validated: 33
EndChar

StartChar: fraction
Encoding: 8260 8260 99
Width: 119
Flags: W
HStem: -11 21G<-154.32 -97.6108>
LayerCount: 2
Fore
SplineSet
-109.04 -11 m 1
 -154.32 -11 l 1
 229.37 661 l 1
 274.98 661 l 1
 -109.04 -11 l 1
EndSplineSet
Validated: 1
EndChar

StartChar: yen
Encoding: 165 165 100
Width: 496
Flags: W
HStem: 0 21G<212.35 270.56> 184.37 40.62<58.02 212.35 270.56 425.89> 298.34 40.62<58.02 192.04 291.87 425.89> 630 20G<22.03 97.6667 398.637 473.55>
VStem: 212.35 58.21<0 184.37 224.99 298.34>
LayerCount: 2
Fore
SplineSet
270.56 0 m 1
 212.35 0 l 1
 212.35 184.37 l 1
 58.02 184.37 l 1
 58.02 224.99 l 1
 212.35 224.99 l 1
 212.35 298.34 l 1
 58.02 298.34 l 1
 58.02 338.96 l 1
 192.04 338.96 l 1
 22.03 650 l 1
 87.22 650 l 1
 204.62 425.24 l 2
 221.29 393.25 232.62 369.6 243.95 342.61 c 1
 247.62 342.61 l 1
 256.28 367.6 269.95 395.92 286.95 427.91 c 2
 409.69 650 l 1
 473.55 650 l 1
 291.87 338.96 l 1
 425.89 338.96 l 1
 425.89 298.34 l 1
 270.56 298.34 l 1
 270.56 224.99 l 1
 425.89 224.99 l 1
 425.89 184.37 l 1
 270.56 184.37 l 1
 270.56 0 l 1
EndSplineSet
Validated: 1
EndChar

StartChar: florin
Encoding: 402 402 101
Width: 496
Flags: W
HStem: -81.32 48.57<13.702 130.932> 350.73 46.25<110.33 207.02 272.22 399.59> 611.43 49.57<335.669 452.985>
LayerCount: 2
Fore
SplineSet
110.33 350.73 m 1
 110.33 396.98 l 1
 212.68 396.98 l 1
 219.35 448.34 l 2
 232.69 560.74 280.71 661 399.63 661 c 0
 427.62 660 449.61 654 462.27 646.67 c 1
 448.95 600.76 l 1
 432.61 606.76 415.61 611.43 394.27 611.43 c 0
 318.9 611.43 286.89 534.37 278.22 452.33 c 2
 272.22 396.98 l 1
 399.59 396.98 l 1
 399.59 350.73 l 1
 266.23 350.73 l 1
 240.89 135.68 l 2
 224.89 3.33 183.89 -81.32 76.94 -81.32 c 0
 47.29 -81.32 21.97 -74.32 4.97 -64.65 c 1
 18.29 -20.41 l 1
 36.63 -29.08 55.3 -32.75 77.64 -32.75 c 0
 145 -32.75 170.68 33.64 182.01 130.95 c 2
 207.02 350.73 l 1
 110.33 350.73 l 1
EndSplineSet
Validated: 1
EndChar

StartChar: section
Encoding: 167 167 102
Width: 501
Flags: W
HStem: -55.97 43.93<142.154 317.749> 639.07 43.26<189.677 358.128>
VStem: 65.03 52.24<304.048 416.485> 98.35 55.22<501.515 605.558> 357.01 55.55<24.9589 141.3> 384.65 52.9<222.332 346.637>
LayerCount: 2
Fore
SplineSet
117.27 355.02 m 0xe4
 117.27 317.01 142.93 284.33 230.64 252.65 c 0
 283.65 233.31 318.96 218.31 343.3 201.97 c 1
 370.31 223.32 384.65 254.67 384.65 289.02 c 0
 384.65 331.71 358.64 366.39 286.94 391.4 c 0
 248.28 405.73 199.96 421.39 166.62 443.07 c 1
 129.93 415.38 117.27 387.03 117.27 355.02 c 0xe4
399.24 648.66 m 1
 378.91 605.73 l 1
 354.92 622.4 315.59 639.07 263.6 639.07 c 0
 204.6 639.07 153.57 606.72 153.57 554.35 c 0
 153.57 494.31 210.27 473.97 285.94 448.3 c 0
 371.91 418.97 437.55 382.31 437.55 297 c 0xd4
 437.55 245.67 415.23 209.01 376.57 176.67 c 1
 392.23 162 412.56 129.67 412.56 90.01 c 0
 412.56 -7.62 328.29 -55.97 234.62 -55.97 c 0
 173.62 -55.97 121.65 -39.96 90.35 -15.31 c 1
 112.34 27.62 l 1
 133.66 10.62 177.3 -12.04 236.97 -12.04 c 0
 304.32 -12.04 357.01 21.65 357.01 82.02 c 0
 357.01 134.38 328.68 162.73 228.31 198.08 c 0
 127.32 234.42 65.03 270.08 65.03 350.05 c 0xe8
 65.03 385.37 82.35 427.69 134.01 465.71 c 1
 114.01 481.04 98.68 513.03 98.35 545.69 c 0xd0
 98.35 629 174.32 682.33 268.61 682.33 c 0
 324.61 682.33 370.6 666.32 399.24 648.66 c 1
EndSplineSet
Validated: 1
EndChar

StartChar: currency
Encoding: 164 164 103
Width: 496
Flags: W
HStem: 133.36 46.92<177.346 315.855> 480.38 46.92<176.119 316.508>
VStem: 62.99 53.58<243.595 416.329> 374.34 53.58<241.465 417.902>
LayerCount: 2
Fore
SplineSet
247.29 527.3 m 0
 294.29 527.3 335.96 510.63 362.62 485.29 c 1
 431.61 556.27 l 1
 466.9 520.32 l 1
 392.25 452.67 l 1
 413.26 425 427.92 379.65 427.92 334.33 c 0
 427.92 280.67 411.59 235.66 392.92 210.66 c 1
 463.9 140.01 l 1
 428.28 104.72 l 1
 362.29 177.03 l 1
 331.62 147.36 285.29 133.36 245.29 133.36 c 0
 203.62 133.36 157.62 149.03 131.96 173.36 c 1
 66.97 104.72 l 1
 33.35 140.01 l 1
 100.66 206.99 l 1
 79.99 233.66 62.99 280.67 62.99 326.99 c 0
 62.99 378.32 80.32 422.66 103.33 452.67 c 1
 33.02 520.32 l 1
 68.31 556.27 l 1
 133.96 484.96 l 1
 161.29 510.63 203.96 527.3 247.29 527.3 c 0
245.62 480.38 m 0
 163.58 480.38 116.57 410.68 116.57 328.66 c 0
 116.57 223.62 190.27 180.28 244.62 180.28 c 0
 305.31 180.28 374.34 220.95 374.34 333.33 c 0
 374.34 405.01 332.67 480.38 245.62 480.38 c 0
EndSplineSet
Validated: 1
EndChar

StartChar: quotesingle
Encoding: 39 39 104
Width: 181
Flags: W
HStem: 457.73 227.27<71.02 110.28>
VStem: 71.02 39.26<457.73 568.826>
LayerCount: 2
Fore
SplineSet
57.03 685 m 1
 124.6 685 l 1
 110.28 457.73 l 1
 71.02 457.73 l 1
 57.03 685 l 1
EndSplineSet
Validated: 1
EndChar

StartChar: quotedblleft
Encoding: 8220 8220 105
Width: 313
Flags: W
HStem: 455.74 229.26
VStem: 38.02 68.89<465.74 527.113> 166.92 68.56<465.74 527.113>
LayerCount: 2
Fore
SplineSet
106.91 465.74 m 1
 38.02 455.74 l 1
 57.67 533.71 100.67 645.73 120.63 679.67 c 1
 161.22 685 l 1
 143.24 637.39 116.57 531.04 106.91 465.74 c 1
235.48 465.74 m 1
 166.92 455.74 l 1
 186.24 533.71 229.57 645.73 249.2 679.67 c 1
 289.79 685 l 1
 271.81 637.39 245.14 531.04 235.48 465.74 c 1
EndSplineSet
Validated: 1
EndChar

StartChar: guillemotleft
Encoding: 171 171 106
Width: 400
Flags: W
LayerCount: 2
Fore
SplineSet
225.3 433.32 m 1
 85.94 252 l 1
 225.97 70.68 l 1
 169.04 70.68 l 1
 29.67 252 l 1
 169.04 433.32 l 1
 225.3 433.32 l 1
377.24 433.32 m 1
 237.21 252 l 1
 377.24 70.68 l 1
 320.31 70.68 l 1
 181.61 252 l 1
 320.31 433.32 l 1
 377.24 433.32 l 1
EndSplineSet
Validated: 1
EndChar

StartChar: guilsinglleft
Encoding: 8249 8249 107
Width: 248
Flags: W
VStem: 29.67 195.63
LayerCount: 2
Fore
SplineSet
225.3 433.32 m 1
 85.94 252 l 1
 225.97 70.68 l 1
 169.04 70.68 l 1
 29.67 252 l 1
 169.04 433.32 l 1
 225.3 433.32 l 1
EndSplineSet
Validated: 1
EndChar

StartChar: guilsinglright
Encoding: 8250 8250 108
Width: 248
Flags: W
VStem: 23 196.63
LayerCount: 2
Fore
SplineSet
163.03 252 m 1
 23 433.32 l 1
 79.6 433.32 l 1
 219.63 252 l 1
 79.93 70.68 l 1
 23.67 70.68 l 1
 163.03 252 l 1
EndSplineSet
Validated: 1
EndChar

StartChar: fi
Encoding: 64257 64257 109
Width: 496
Flags: W
HStem: 0 21G<83.34 143.54 357.64 418.51> 433.75 47.57<14.67 83.34 143.54 357.64> 670.77 50.23<196.198 355.531>
VStem: 83.34 60.2<0 433.75 481.32 613.636> 357.64 60.87<0 433.75>
LayerCount: 2
Fore
SplineSet
143.54 0 m 1
 83.34 0 l 1
 83.34 433.75 l 1
 14.67 433.75 l 1
 14.67 481.32 l 1
 83.34 481.32 l 1
 83.34 510.67 l 2
 83.34 635.32 146.28 721 276.25 721 c 0
 318.57 721 367.55 706.33 390.54 688.33 c 1
 367.55 641.43 l 1
 347.22 656.43 309.89 670.77 268.9 670.77 c 0
 171.21 670.77 143.54 595.72 143.54 508 c 2
 143.54 481.32 l 1
 418.51 481.32 l 1
 418.51 0 l 1
 357.64 0 l 1
 357.64 433.75 l 1
 143.54 433.75 l 1
 143.54 0 l 1
EndSplineSet
Validated: 1
EndChar

StartChar: fl
Encoding: 64258 64258 110
Width: 496
Flags: W
HStem: 0 21G<83.34 143.54 358.31 418.51> 433.75 47.57<14.67 83.34 143.54 267.26> 671.76 49.24<201.403 357.611>
VStem: 83.34 60.2<0 433.75 481.32 607.525> 358.31 60.2<0 665.185>
LayerCount: 2
Fore
SplineSet
143.54 0 m 1
 83.34 0 l 1
 83.34 433.75 l 1
 14.67 433.75 l 1
 14.67 481.32 l 1
 83.34 481.32 l 1
 83.34 502.32 l 2
 83.34 575.35 105 634.01 148.66 674.68 c 0
 182.64 704 227.95 721 291.6 721 c 0
 340.9 721 387.2 709.67 418.51 693.02 c 1
 418.51 0 l 1
 358.31 0 l 1
 358.31 657.42 l 1
 341.3 665.42 316.96 671.76 280.28 671.76 c 0
 176.22 671.76 143.54 594.71 143.54 508 c 2
 143.54 481.32 l 1
 267.26 481.32 l 1
 267.26 433.75 l 1
 143.54 433.75 l 1
 143.54 0 l 1
EndSplineSet
Validated: 1
EndChar

StartChar: endash
Encoding: 8211 8211 111
Width: 500
Flags: W
HStem: 231.37 45.26<30 470>
LayerCount: 2
Fore
SplineSet
30 276.63 m 1
 470 276.63 l 1
 470 231.37 l 1
 30 231.37 l 1
 30 276.63 l 1
EndSplineSet
Validated: 1
EndChar

StartChar: dagger
Encoding: 8224 8224 112
Width: 490
Flags: W
HStem: 410.73 53.24<47.02 221.69 268.93 443.6> 654 20G<215.7 274.92>
VStem: 215.7 59.22<-50 416.72 458.98 674>
LayerCount: 2
Fore
SplineSet
215.7 674 m 1
 274.92 674 l 1
 268.93 458.98 l 1
 443.6 463.97 l 1
 443.6 410.73 l 1
 268.93 416.72 l 1
 274.92 -50 l 1
 215.7 -50 l 1
 221.69 416.72 l 1
 47.02 410.73 l 1
 47.02 463.97 l 1
 221.69 458.98 l 1
 215.7 674 l 1
EndSplineSet
Validated: 1
EndChar

StartChar: daggerdbl
Encoding: 8225 8225 113
Width: 490
Flags: W
HStem: 155.37 52.57<47.02 220.36 269.93 443.6> 419.72 53.24<47.02 220.69 269.93 443.6> 654 20G<216.03 274.92>
VStem: 220.69 49.24<-50 160.36 202.62 425.38 466.97 674>
LayerCount: 2
Fore
SplineSet
216.03 674 m 1
 274.92 674 l 1
 269.93 466.97 l 1
 443.6 472.96 l 1
 443.6 419.72 l 1
 269.93 425.38 l 1
 269.93 202.62 l 1
 443.6 207.94 l 1
 443.6 155.37 l 1
 269.93 160.36 l 1
 274.92 -50 l 1
 216.03 -50 l 1
 220.36 160.36 l 1
 47.02 155.37 l 1
 47.02 207.94 l 1
 220.69 202.62 l 1
 220.69 425.38 l 1
 47.02 419.72 l 1
 47.02 472.96 l 1
 220.69 466.97 l 1
 216.03 674 l 1
EndSplineSet
Validated: 1
EndChar

StartChar: periodcentered
Encoding: 183 183 114
Width: 184
Flags: W
HStem: 214.07 101.21<53.3808 131.533>
VStem: 45.34 94.21<221.302 307.544>
LayerCount: 2
Fore
SplineSet
92.28 214.07 m 0
 64.65 214.07 45.01 236.38 45.34 264.34 c 0
 45.34 293.64 65.65 315.28 92.61 315.28 c 0
 120.91 315.28 139.22 293.97 139.55 264.34 c 0
 139.55 236.38 120.91 214.07 92.28 214.07 c 0
EndSplineSet
Validated: 33
EndChar

StartChar: paragraph
Encoding: 182 182 115
Width: 499
Flags: W
HStem: 628.4 46.26<291.885 358.386>
VStem: 34.67 254.31<368.366 557.651> 240.72 48.26<-50.34 264> 359.98 48.6<-50.34 628.4>
LayerCount: 2
Fore
SplineSet
288.98 -50.34 m 1xb0
 240.72 -50.34 l 1
 240.72 264 l 1xb0
 233.05 264 l 2
 145.34 264 34.67 328.67 34.67 457.34 c 0xd0
 34.67 559.67 91.34 674.66 301.63 674.66 c 0
 351.95 674.66 384.92 672.33 408.58 667.67 c 1
 408.58 -50.34 l 1
 359.98 -50.34 l 1
 359.98 628.4 l 1
 288.98 628.4 l 1
 288.98 -50.34 l 1xb0
EndSplineSet
Validated: 1
EndChar

StartChar: bullet
Encoding: 8226 8226 116
Width: 258
Flags: W
HStem: 167.72 188.23<69.6804 190.09>
VStem: 35.33 189.23<201.933 321.737>
LayerCount: 2
Fore
SplineSet
129.61 167.72 m 0
 77.64 167.72 35.33 208.7 35.33 261.67 c 0
 34.33 313.97 77.64 355.95 129.61 355.95 c 0
 182.25 355.95 224.56 313.97 224.56 262 c 0
 224.56 209.7 182.58 167.72 129.61 167.72 c 0
EndSplineSet
Validated: 33
EndChar

StartChar: quotesinglbase
Encoding: 8218 8218 117
Width: 184
Flags: W
HStem: -123.36 229.26
VStem: 76.32 69.56<34.5908 95.9>
LayerCount: 2
Fore
SplineSet
63.27 -117.7 m 1
 22.34 -123.36 l 1
 39.99 -75.75 66.99 30.93 76.32 95.9 c 1
 145.88 105.9 l 1
 126.23 27.93 83.23 -83.76 63.27 -117.7 c 1
EndSplineSet
Validated: 1
EndChar

StartChar: quotedblbase
Encoding: 8222 8222 118
Width: 313
Flags: W
HStem: -123.36 229.26
VStem: 76.32 69.23<34.5908 95.9> 204.89 69.56<34.5908 95.9>
LayerCount: 2
Fore
SplineSet
63.27 -117.7 m 1
 22.01 -123.36 l 1
 39.99 -75.75 66.66 30.93 76.32 95.9 c 1
 145.55 105.9 l 1
 126.23 27.93 82.9 -83.76 63.27 -117.7 c 1
191.84 -117.7 m 1
 150.58 -123.36 l 1
 168.56 -75.75 195.23 30.93 204.89 95.9 c 1
 274.45 105.9 l 1
 254.8 27.93 211.8 -83.76 191.84 -117.7 c 1
EndSplineSet
Validated: 1
EndChar

StartChar: quotedblright
Encoding: 8221 8221 119
Width: 313
Flags: W
HStem: 455.74 229.26
VStem: 92.33 68.56<613.691 676> 220.9 68.56<613.691 676>
LayerCount: 2
Fore
SplineSet
92.33 676 m 1
 160.89 685 l 1
 141.24 607.03 98.24 495.34 78.61 461.4 c 1
 38.02 455.74 l 1
 55.67 503.35 82.67 610.7 92.33 676 c 1
220.9 676 m 1
 289.46 685 l 1
 269.81 607.03 226.81 495.34 207.18 461.4 c 1
 166.59 455.74 l 1
 184.57 503.35 211.24 610.7 220.9 676 c 1
EndSplineSet
Validated: 1
EndChar

StartChar: guillemotright
Encoding: 187 187 120
Width: 400
Flags: W
LayerCount: 2
Fore
SplineSet
163.03 252 m 1
 23 433.32 l 1
 79.93 433.32 l 1
 219.63 252 l 1
 79.93 70.68 l 1
 24 70.68 l 1
 163.03 252 l 1
314.64 252 m 1
 174.61 433.32 l 1
 230.87 433.32 l 1
 371.24 252 l 1
 231.54 70.68 l 1
 175.61 70.68 l 1
 314.64 252 l 1
EndSplineSet
Validated: 1
EndChar

StartChar: ellipsis
Encoding: 8230 8230 121
Width: 1000
Flags: W
HStem: -11 101.88<128.297 206.035 461.882 539.169 794.401 872.312>
VStem: 120.73 93.21<-3.58491 83.8534> 453.73 93.54<-3.58491 83.2263> 786.73 93.54<-3.58491 83.2263>
LayerCount: 2
Fore
SplineSet
167 -11 m 0
 139.37 -11 119.73 11.98 120.73 39.94 c 0
 120.73 69.57 140.04 90.88 167.67 90.88 c 0
 195.63 90.88 213.94 69.57 213.94 39.94 c 0
 213.94 11.98 195.63 -11 167 -11 c 0
500 -11 m 0
 472.37 -11 452.73 11.98 453.73 39.94 c 0
 453.73 69.57 473.37 90.88 501 90.88 c 0
 528.63 90.88 546.94 69.57 547.27 39.94 c 0
 547.27 11.98 528.63 -11 500 -11 c 0
833 -11 m 0
 805.37 -11 786.06 11.98 786.73 39.94 c 0
 786.73 69.57 806.37 90.88 834 90.88 c 0
 861.63 90.88 880.27 69.57 880.27 39.94 c 0
 880.27 11.98 861.96 -11 833 -11 c 0
EndSplineSet
Validated: 33
EndChar

StartChar: perthousand
Encoding: 8240 8240 122
Width: 1103
Flags: W
HStem: -6.33 40.27<531.759 628.985 879.998 978.874> 262 40.27<126.524 223.832> 351.73 40.27<532.374 630.965 882.296 979.065> 620.73 40.27<128.82 225.742>
VStem: 31.34 51.91<353.008 568.691> 267.33 51.24<350.629 573.762> 436.58 51.58<84.3535 299.957> 672.57 50.91<82.0286 304.762> 785.17 51.24<84.3535 299.957> 1020.49 51.91<80.6599 304.762>
LayerCount: 2
Fore
SplineSet
583.53 392 m 0
 665.82 392 723.48 327.36 723.48 198 c 0
 723.48 60.33 657.51 -6.33 578.53 -6.33 c 0
 504.23 -6.33 438.25 55.32 436.58 188.67 c 0
 436.58 325.7 507.58 392 583.53 392 c 0
580.53 351.73 m 0
 521.51 351.73 488.16 281.37 488.16 192.67 c 0
 485.82 103.64 520.84 33.94 579.86 33.94 c 0
 644.56 33.94 672.57 103.98 672.57 194.67 c 0
 672.57 279.7 647.56 351.73 580.53 351.73 c 0
931.45 392 m 0
 1013.74 392 1072.4 327.36 1072.4 198 c 0
 1072.4 60.33 1005.76 -6.33 926.45 -6.33 c 0
 852.82 -6.33 786.17 55.32 785.17 188.67 c 0
 785.17 325.7 855.5 392 931.45 392 c 0
928.78 351.73 m 0
 870.43 351.73 836.41 281.37 836.41 192.67 c 0
 834.41 103.64 868.76 33.94 928.45 33.94 c 0
 992.81 33.94 1020.49 103.98 1020.49 194.67 c 0
 1020.49 279.7 995.81 351.73 928.78 351.73 c 0
178.29 661 m 0
 260.58 661 318.57 596.36 318.57 467 c 0
 318.57 328.66 252.6 262 173.29 262 c 0
 98.99 262 33.01 323.65 31.34 458 c 0
 31.34 594.03 102.34 661 178.29 661 c 0
175.29 620.73 m 0
 116.27 620.73 83.25 549.7 83.25 461.67 c 0
 80.58 372.64 115.6 302.27 174.62 302.27 c 0
 239.32 302.27 267.33 372.98 267.33 463.67 c 0
 267.33 548.7 242.32 620.73 175.29 620.73 c 0
207.21 -11 m 1
 161.93 -11 l 1
 546.61 661 l 1
 591.89 661 l 1
 207.21 -11 l 1
EndSplineSet
Validated: 33
EndChar

StartChar: questiondown
Encoding: 191 191 123
Width: 389
Flags: W
HStem: -208.01 52.9<157.802 315.314> 385.44 101.55<193.614 271.345>
VStem: 61.03 64.2<-123.952 18.3652> 186.04 93.21<392.932 479.977> 206.04 57.22<165.738 295.05>
LayerCount: 2
Fore
SplineSet
232.98 486.99 m 0xf0
 260.94 486.99 279.25 465.68 279.25 436.38 c 0
 279.25 408.75 260.94 385.44 232.31 385.44 c 0
 204.35 385.44 185.37 408.75 186.04 436.38 c 0
 186.04 465.68 205.35 486.99 232.98 486.99 c 0xf0
204.37 295.05 m 1
 260.26 295.05 l 1
 263.26 269.05 l 2
 270.6 213.71 250.93 153.36 199.59 90.68 c 0
 149.23 30.65 125.23 -9.7 125.23 -58.72 c 0
 125.23 -117.09 160.25 -155.11 229.61 -155.11 c 0
 265.95 -155.11 305.28 -143.44 331.95 -123.44 c 1
 351.26 -168.01 l 1
 318.6 -192.35 262.94 -208.01 217.31 -208.01 c 0
 110.01 -208.01 61.03 -137.68 61.03 -64.36 c 0
 61.03 -0.38 95.01 47.62 147.36 109.65 c 0
 194.38 167.34 210.38 212.69 206.04 265.7 c 2xe8
 204.37 295.05 l 1
EndSplineSet
Validated: 33
EndChar

StartChar: grave
Encoding: 96 96 124
Width: 300
Flags: W
HStem: 550 139.65
VStem: 29.37 167.25
LayerCount: 2
Fore
SplineSet
29.37 689.65 m 1
 108.28 689.65 l 1
 196.62 550 l 1
 151.37 550 l 1
 29.37 689.65 l 1
EndSplineSet
Validated: 1
EndChar

StartChar: acute
Encoding: 180 180 125
Width: 300
Flags: W
HStem: 550 139.65
VStem: 111.72 167.58
LayerCount: 2
Fore
SplineSet
200.39 689.65 m 1
 279.3 689.65 l 1
 157.3 550 l 1
 111.72 550 l 1
 200.39 689.65 l 1
EndSplineSet
Validated: 1
EndChar

StartChar: circumflex
Encoding: 710 710 126
Width: 300
Flags: W
HStem: 550 139.65
VStem: 35.05 230.23
LayerCount: 2
Fore
SplineSet
127.04 689.65 m 1
 170.62 689.65 l 1
 265.28 550 l 1
 210.68 550 l 1
 150 648.35 l 1
 148 648.35 l 1
 86.65 550 l 1
 35.05 550 l 1
 127.04 689.65 l 1
EndSplineSet
Validated: 1
EndChar

StartChar: tilde
Encoding: 732 732 127
Width: 300
Flags: W
HStem: 577.35 47.95<147.245 225.282> 616.02 47.61<78.0522 151.274>
VStem: 35.04 37.95<571.02 613.704> 228.34 37.62<627.164 666.96>
LayerCount: 2
Fore
SplineSet
72.99 571.02 m 1x70
 35.04 571.02 l 1
 33.71 627.98 58.03 663.63 97.68 663.63 c 0x70
 117.67 663.63 133.33 654.63 158.34 640.96 c 0
 174.34 632.63 187.67 625.3 200.34 625.3 c 0
 215.67 625.3 226.34 634.3 228.34 666.96 c 1
 265.96 666.96 l 1
 266.29 610.68 247.31 577.35 202.99 577.35 c 0xb0
 184 577.35 165.67 586.35 145.34 597.35 c 0
 124 609.35 112.33 616.02 100.33 616.02 c 0
 83.66 616.02 75.66 597.68 72.99 571.02 c 1x70
EndSplineSet
Validated: 33
EndChar

StartChar: macron
Encoding: 175 175 128
Width: 300
Flags: W
HStem: 588.01 45.61<43.36 257.64>
VStem: 43.36 214.28<588.01 633.62>
LayerCount: 2
Fore
SplineSet
43.36 633.62 m 1
 257.64 633.62 l 1
 257.64 588.01 l 1
 43.36 588.01 l 1
 43.36 633.62 l 1
EndSplineSet
Validated: 1
EndChar

StartChar: breve
Encoding: 728 728 129
Width: 300
Flags: W
HStem: 561.35 44.28<98.0914 203.394> 657.98 20G<32.03 76.31 225.19 267.97>
VStem: 32.03 41.28<631.8 677.98> 226.69 41.28<629.951 677.98>
LayerCount: 2
Fore
SplineSet
32.03 677.98 m 1
 73.31 677.98 l 1
 79.31 637.64 107.66 605.63 150 605.63 c 0
 200.35 605.63 223.69 644.31 226.69 677.98 c 1
 267.97 677.98 l 1
 267.97 607.33 219.64 561.35 150 561.35 c 0
 64.01 561.35 32.03 623.35 32.03 677.98 c 1
EndSplineSet
Validated: 1
EndChar

StartChar: dotaccent
Encoding: 729 729 130
Width: 300
Flags: W
HStem: 575.36 87.59<111.257 182.935>
VStem: 105.08 83.92<580.851 656.842>
LayerCount: 2
Fore
SplineSet
147.37 575.36 m 0
 122.06 575.36 105.08 596.01 105.08 618.99 c 0
 105.08 641.96 123.73 662.95 147.37 662.95 c 0
 170.68 662.95 189 642.63 189 618.99 c 0
 189 596.01 172.35 575.36 147.37 575.36 c 0
EndSplineSet
Validated: 1
EndChar

StartChar: dieresis
Encoding: 168 168 131
Width: 300
Flags: W
HStem: 575.36 85.92<26.5548 98.2687 201.745 273.219>
VStem: 21.07 82.58<580.323 656.011> 196.35 82.25<580.323 656.011>
LayerCount: 2
Fore
SplineSet
62.69 575.36 m 0
 37.38 575.36 21.07 596.01 21.07 618.32 c 0
 21.07 641.63 39.38 661.28 63.36 661.28 c 0
 86.67 661.28 103.65 641.96 103.65 618.32 c 0
 103.65 596.01 87.67 575.36 62.69 575.36 c 0
237.64 575.36 m 0
 212.33 575.36 196.35 596.01 196.35 618.32 c 0
 196.35 641.63 214.33 661.28 238.31 661.28 c 0
 261.62 661.28 278.6 641.96 278.6 618.32 c 0
 278.6 596.01 262.62 575.36 237.64 575.36 c 0
EndSplineSet
Validated: 1
EndChar

StartChar: ring
Encoding: 730 730 132
Width: 300
Flags: W
HStem: 536.33 32.31<106.392 178.851> 685 32.64<105.757 179.261>
VStem: 47.03 42.96<580.406 673.918> 195.68 40.96<581.784 672.257>
LayerCount: 2
Fore
SplineSet
142.67 536.33 m 0
 87.36 536.33 47.03 575.66 47.03 625.32 c 0
 47.03 676.31 85.36 717.64 143.67 717.64 c 0
 197.64 717.64 236.64 677.31 236.64 625.65 c 0
 236.64 574.66 193.64 536.33 142.67 536.33 c 0
141.67 568.64 m 0
 173.67 568.64 195.68 595.31 195.68 626.65 c 0
 195.68 659.33 173.67 685 141 685 c 0
 109.33 685 89.99 657.66 89.99 625.32 c 0
 89.99 597.31 111.33 568.64 141.67 568.64 c 0
EndSplineSet
Validated: 1
EndChar

StartChar: cedilla
Encoding: 184 184 133
Width: 300
Flags: W
HStem: -198.66 39.64<65.9547 167.523>
VStem: 171.02 47.27<-154.443 -94.7227>
LayerCount: 2
Fore
SplineSet
142.03 1.33 m 1
 184.64 1.33 l 1
 149.63 -52.68 l 1
 185.96 -57.68 218.29 -83.01 218.29 -120.34 c 0
 218.29 -176.66 173.31 -198.66 120.99 -198.66 c 0
 100.01 -198.66 74.01 -191.66 58.35 -182.33 c 1
 71.34 -145.36 l 1
 86.67 -154.69 106 -159.02 125.34 -159.02 c 0
 148.68 -159.02 171.69 -150.35 171.02 -125.01 c 0
 170.02 -95.66 136.67 -85 93.02 -81 c 1
 142.03 1.33 l 1
EndSplineSet
Validated: 33
EndChar

StartChar: hungarumlaut
Encoding: 733 733 134
Width: 300
Flags: W
HStem: 558.01 131.64
VStem: 62.76 290.24
LayerCount: 2
Fore
SplineSet
148.46 689.65 m 1
 220.39 689.65 l 1
 105.03 558.01 l 1
 62.76 558.01 l 1
 148.46 689.65 l 1
280.4 689.65 m 1
 353 689.65 l 1
 237.64 558.01 l 1
 195.37 558.01 l 1
 280.4 689.65 l 1
EndSplineSet
Validated: 1
EndChar

StartChar: ogonek
Encoding: 731 731 135
Width: 300
Flags: W
HStem: -199.64 44.26<129.037 222.575>
VStem: 71.71 50.6<-147.926 -54.4765>
LayerCount: 2
Fore
SplineSet
140.42 4.67 m 1
 186.7 4.67 l 1
 169.69 -15 122.31 -64.7 122.31 -106.72 c 0
 122.31 -138.72 143.31 -155.38 171.64 -155.38 c 0
 188.97 -155.38 204.97 -151.38 218.31 -145.71 c 1
 228.29 -179.99 l 1
 210.97 -193.31 179.32 -199.64 157.67 -199.64 c 0
 107.03 -199.64 71.71 -171.65 71.71 -121.68 c 0
 71.71 -71.34 111.06 -24.68 140.42 4.67 c 1
EndSplineSet
Validated: 1
EndChar

StartChar: caron
Encoding: 711 711 136
Width: 300
Flags: W
HStem: 550 139.65
VStem: 33.72 233.23
LayerCount: 2
Fore
SplineSet
174.96 550 m 1
 127.71 550 l 1
 33.72 689.65 l 1
 87.65 689.65 l 1
 150.67 591.3 l 1
 152.67 591.3 l 1
 215.02 689.65 l 1
 266.95 689.65 l 1
 174.96 550 l 1
EndSplineSet
Validated: 1
EndChar

StartChar: emdash
Encoding: 8212 8212 137
Width: 1000
Flags: W
HStem: 231.37 45.26<30 970>
LayerCount: 2
Fore
SplineSet
30 276.63 m 1
 970 276.63 l 1
 970 231.37 l 1
 30 231.37 l 1
 30 276.63 l 1
EndSplineSet
Validated: 1
EndChar

StartChar: AE
Encoding: 198 198 138
Width: 754
Flags: W
HStem: 0 50.89<477.51 721.16> 260.11 49.23<204.56 387.3> 327.4 51.23<444.16 686.17> 623.11 50.89<335.618 353.54 407.83 698.18>
LayerCount: 2
Fore
SplineSet
60.19 0 m 1
 -2.34 0 l 1
 314.37 674 l 1
 698.18 674 l 1
 698.18 623.11 l 1
 407.83 623.11 l 1
 436.51 378.63 l 1
 686.17 378.63 l 1
 686.17 327.4 l 1
 444.16 327.4 l 1
 477.51 50.89 l 1
 721.16 50.89 l 1
 721.16 0 l 1
 425.96 0 l 1
 393.28 260.11 l 1
 182.26 260.11 l 1
 60.19 0 l 1
204.56 309.34 m 1
 387.3 309.34 l 1
 363.29 515.4 l 2
 359.96 548.07 353.29 595.09 351.29 629.76 c 1
 347.29 629.76 l 1
 334.62 597.76 317.28 559.09 300.94 521.08 c 2
 204.56 309.34 l 1
EndSplineSet
Validated: 1
EndChar

StartChar: ordfeminine
Encoding: 170 170 139
Width: 332
Flags: W
HStem: 261 39.29<98.5189 202.723> 431.02 36.97<121.6 235.34> 550.71 40.29<83.1572 212.453>
VStem: 33.67 50.59<313.97 403.395> 235.67 48.59<328.456 431.02 467.99 529.286> 243.66 45.93<266 311.35>
LayerCount: 2
Fore
SplineSet
289.59 266 m 1xf4
 243.66 266 l 1xf4
 239 311.35 l 1
 237 311.35 l 1
 219.34 288.02 183.67 261 135.33 261 c 0
 68.66 261 33.67 304 33.67 355.33 c 0
 33.67 424.65 103.32 472.33 235.34 467.99 c 1
 235.34 479.33 l 2
 235.34 497.34 224.67 550.71 155.98 550.71 c 0
 125.99 550.71 97 543.05 72.66 523.71 c 1
 58.67 558 l 1
 89.01 581.01 129.67 591 165.3 591 c 0
 261.95 591 284.26 522.33 284.26 450.33 c 2
 284.26 344 l 2xf8
 284.26 317.67 285.59 291.34 289.59 266 c 1xf4
235.67 367.98 m 2xf8
 235.67 431.02 l 1
 168.65 433.36 84.26 423.03 84.26 357.32 c 0
 84.26 320.3 114.61 300.29 147.62 300.29 c 0
 182.31 300.29 208.65 319.3 222.99 339.64 c 0
 231 350.31 235.67 361.65 235.67 367.98 c 2xf8
EndSplineSet
Validated: 33
EndChar

StartChar: Lslash
Encoding: 321 321 140
Width: 459
Flags: W
HStem: 0 50.89<143.55 439.59> 654 20G<82.68 143.55>
VStem: 82.68 60.87<50.89 284.07 378.24 674>
LayerCount: 2
Fore
SplineSet
439.59 0 m 1
 82.68 0 l 1
 82.68 284.07 l 1
 -4.67 218.05 l 1
 -4.67 269.97 l 1
 82.68 335.66 l 1
 82.68 674 l 1
 143.55 674 l 1
 143.55 378.24 l 1
 280.23 479.93 l 1
 280.23 427.01 l 1
 143.55 325.65 l 1
 143.55 50.89 l 1
 439.59 50.89 l 1
 439.59 0 l 1
EndSplineSet
Validated: 1
EndChar

StartChar: Oslash
Encoding: 216 216 141
Width: 676
Flags: W
HStem: -11 49.9<242.097 429.906> 635.1 49.9<244.928 435.696>
VStem: 37.34 62.2<209.037 463.936> 577.07 62.2<209.768 468.119>
LayerCount: 2
Fore
SplineSet
95.25 -32.95 m 1
 59.65 -4.67 l 1
 124.33 84 l 1
 69.67 144 37.34 230.99 37.34 332.33 c 0
 37.34 551.36 173.68 685 342.31 685 c 0
 406.32 685 467.67 664.99 517.68 624.63 c 1
 578.69 705.63 l 1
 617.62 679.01 l 1
 553.61 592.34 l 1
 607.6 532.01 639.27 444.68 639.27 343.67 c 0
 639.27 102.64 490.92 -11 339.97 -11 c 0
 271.95 -11 208.93 10.68 158.92 51.71 c 1
 95.25 -32.95 l 1
160.59 135.22 m 1
 486.07 579.39 l 1
 447.38 613.75 398.68 635.1 339.97 635.1 c 0
 177.56 635.1 99.54 482.35 99.54 338 c 0
 99.54 251.61 123.56 190.24 158.92 134.22 c 1
 160.59 135.22 l 1
516.35 540.46 m 1
 190.53 96.95 l 1
 229.56 59.92 273.25 38.9 337.97 38.9 c 0
 493.04 38.9 577.07 182.64 577.07 340.67 c 0
 577.07 405.71 562.39 475.42 519.35 540.46 c 1
 516.35 540.46 l 1
EndSplineSet
Validated: 1
EndChar

StartChar: OE
Encoding: 338 338 142
Width: 876
Flags: W
HStem: -11 50.23<259.942 479.945> 0 50.89<542.22 840.25> 327.73 51.56<542.22 808.58> 623.11 50.89<542.22 824.58> 634.77 50.23<256.765 480.126>
VStem: 37.34 63.52<211.346 465.598> 481.02 61.2<51.2129 327.73 379.29 622.806>
LayerCount: 2
Fore
SplineSet
840.25 50.89 m 1x76
 840.25 0 l 1
 510.66 0 l 2x76
 489.99 0 466.65 -3 442.65 -6 c 0
 416.98 -8 390.31 -11 358.98 -11 c 0
 158.69 -11 37.34 134.98 37.34 332.67 c 0
 37.34 556.68 174.67 685 365.32 685 c 0xae
 399.65 685 426.98 682.67 451.98 680 c 0
 476.98 677 497.98 674.67 516.65 674 c 2
 824.58 674 l 1
 824.58 623.11 l 1
 542.22 623.11 l 1
 542.22 379.29 l 1
 808.58 379.29 l 1
 808.58 327.73 l 1
 542.22 327.73 l 1
 542.22 50.89 l 1
 840.25 50.89 l 1x76
481.02 53.57 m 1
 481.02 619.77 l 1
 452.34 628.1 417.66 634.77 363.63 634.77 c 0
 193.87 634.77 100.53 507.7 100.86 336 c 0
 100.53 158.6 200.9 39.23 370.96 39.23 c 0xae
 413.32 39.23 456.34 44.9 481.02 53.57 c 1
EndSplineSet
Validated: 33
EndChar

StartChar: ordmasculine
Encoding: 186 186 143
Width: 342
Flags: W
HStem: 261 39.95<115.721 230.116> 551.05 39.95<113.625 229.251>
VStem: 15.99 50.25<350.061 502.314> 276.7 50.25<348.621 503.901>
LayerCount: 2
Fore
SplineSet
172.3 591 m 0
 267.29 591 326.95 522 326.95 428 c 0
 325.95 311.66 243.95 261 170.97 261 c 0
 83.98 261 15.99 325 15.99 423 c 0
 15.99 528.34 93 591 172.3 591 c 0
170.97 551.05 m 0
 99.6 551.05 66.24 484.36 66.24 425 c 0
 66.24 351.63 117.28 300.95 171.3 300.95 c 0
 231 300.95 276.7 350.3 276.7 426 c 0
 276.7 479.35 247.02 551.05 170.97 551.05 c 0
EndSplineSet
Validated: 1
EndChar

StartChar: ae
Encoding: 230 230 144
Width: 760
Flags: W
HStem: -11 49.91<128.893 274.297 469.613 668.744> 245.06 46.92<166.659 331.35 388.9 660.71> 444.07 48.25<114.819 282.07 459.007 603.058>
VStem: 38.68 60.87<66.7868 189.47> 331.68 56.88<128.133 245.06 293.96 365.074>
LayerCount: 2
Fore
SplineSet
719.26 245.06 m 1
 388.56 245.06 l 1
 383.55 108.62 455.58 38.91 552.61 38.91 c 0
 621.62 38.91 660.29 55.92 681.93 66.91 c 1
 695.92 21.66 l 1
 664.29 4.01 610.97 -11 546.3 -11 c 0
 462.96 -11 388.96 30.68 363.64 104.71 c 1
 361.64 104.71 l 1
 333.99 31.01 264.64 -11 182.31 -11 c 0
 83.99 -11 38.68 56.33 38.68 120.3 c 0
 38.68 229.62 137.32 296.63 331.35 293.96 c 1
 331.35 315.97 l 2
 331.35 343.99 317.69 444.07 210.98 444.07 c 0
 166.99 444.07 117.99 428.41 88.99 407.74 c 1
 72.01 449.66 l 1
 118.36 480.01 176.35 492.32 214.3 492.32 c 0
 304.65 492.32 352.31 447.3 368.29 380.61 c 1
 370.29 380.61 l 1
 400.61 449.3 461.28 492.32 539.96 492.32 c 0
 689.3 492.32 721.59 341.95 721.59 278.03 c 0
 721.59 265.04 721.26 253.39 719.26 245.06 c 1
331.68 169.32 m 2
 331.68 248.36 l 1
 234.66 251.03 99.55 237.04 99.55 125.96 c 0
 99.55 69.6 141.57 37.25 192.93 37.25 c 0
 266.65 36.58 312.01 81.61 326.68 132.98 c 0
 330.68 144.65 331.68 157.32 331.68 169.32 c 2
388.9 291.98 m 1
 660.71 291.98 l 1
 663.71 347.68 631.35 445.4 534.31 445.4 c 0
 437.26 445.4 392.57 355.02 388.9 291.98 c 1
EndSplineSet
Validated: 33
EndChar

StartChar: dotlessi
Encoding: 305 305 145
Width: 217
Flags: W
HStem: 0 21G<78.36 138.89> 461.32 20G<78.36 138.89>
VStem: 78.36 60.53<0 481.32>
LayerCount: 2
Fore
SplineSet
138.89 0 m 1
 78.36 0 l 1
 78.36 481.32 l 1
 138.89 481.32 l 1
 138.89 0 l 1
EndSplineSet
Validated: 1
EndChar

StartChar: lslash
Encoding: 322 322 146
Width: 223
Flags: W
HStem: 0 21G<81.02 142.22> 690 20G<81.02 142.22>
VStem: 81.02 61.2<0 312.79 414.95 710>
LayerCount: 2
Fore
SplineSet
142.22 0 m 1
 81.02 0 l 1
 81.02 312.79 l 1
 11.68 251.44 l 1
 11.68 304.36 l 1
 81.02 366.04 l 1
 81.02 710 l 1
 142.22 710 l 1
 142.22 414.95 l 1
 213.22 477.29 l 1
 213.22 423.37 l 1
 142.22 361.03 l 1
 142.22 0 l 1
EndSplineSet
Validated: 1
EndChar

StartChar: oslash
Encoding: 248 248 147
Width: 537
Flags: W
HStem: -11 48.58<186.19 345.745> 444.41 47.91<187.594 349.83>
VStem: 40.01 60.21<136.458 346.146> 437.06 60.54<140.596 342.528>
LayerCount: 2
Fore
SplineSet
270.64 492.32 m 0
 314.64 492.32 358.98 479.65 395.65 454.64 c 1
 435.64 511.29 l 1
 469.28 488.31 l 1
 427.95 427.65 l 1
 472.94 382.65 497.6 318.32 497.6 245.33 c 0
 497.6 66.66 376.61 -11 268.97 -11 c 0
 222.63 -11 177.96 1.34 142.29 26.35 c 1
 100.63 -30.63 l 1
 69.66 -3.98 l 1
 110.99 53.34 l 1
 66.67 97.34 40.01 160.67 40.01 236.99 c 0
 40.01 400.67 146.68 492.32 270.64 492.32 c 0
144.92 100.24 m 1
 366.37 410.72 l 1
 341.02 432.07 308.33 444.41 268.64 444.41 c 0
 148.58 444.41 100.22 335.03 100.22 239.66 c 0
 100.22 190.96 113.23 141.6 142.92 100.57 c 1
 144.92 100.24 l 1
393.02 379.09 m 1
 172.24 69.6 l 1
 199.26 46.92 230.61 37.58 265.3 37.58 c 0
 366.68 37.58 437.06 125.29 437.06 243 c 0
 437.06 280.02 427.05 334.39 395.02 378.42 c 1
 393.02 379.09 l 1
EndSplineSet
Validated: 1
EndChar

StartChar: oe
Encoding: 339 339 148
Width: 860
Flags: W
HStem: -11 50.24<188.525 342.368 568.351 767.289> 239.06 46.25<482.94 760.09> 444.41 47.91<186.04 340.797 555.647 703.253>
VStem: 40.01 61.53<139.196 345.845> 425.06 57.88<134.769 239.06 285.31 348.207> 760.09 61.55<285.31 378.499>
LayerCount: 2
Fore
SplineSet
819.31 239.06 m 1
 482.94 239.06 l 1
 481.93 108.29 553.95 39.24 654.66 39.24 c 0
 715.33 39.24 752.33 53.58 781.98 66.91 c 1
 796.64 20.66 l 1
 763 2.01 704.03 -11 647.68 -11 c 0
 558.99 -11 487.98 29.36 451.99 115.06 c 1
 449.66 115.06 l 1
 416.34 28.35 336.32 -11 260.65 -11 c 0
 133.99 -11 40.01 86.67 40.01 236.99 c 0
 40.01 396 141.34 492.32 264.64 492.32 c 0
 352 492.32 423.67 445.63 452.33 364.93 c 1
 454.33 364.93 l 1
 489.66 449.97 556 492.32 633.68 492.32 c 0
 788.68 492.32 821.64 344.62 821.64 273.36 c 0
 821.64 258.37 821.31 246.72 819.31 239.06 c 1
263.63 444.41 m 0
 144.9 444.41 101.54 328.69 101.54 239.66 c 0
 101.54 125.28 172.26 37.58 263.63 37.58 c 0
 358.68 37.58 425.06 120.28 425.06 240.66 c 0
 425.06 338.69 377.03 444.41 263.63 444.41 c 0
482.94 285.31 m 1
 760.09 285.31 l 1
 761.76 347.35 734.07 445.07 628.69 445.07 c 0
 530.97 445.07 489.95 355.02 482.94 285.31 c 1
EndSplineSet
Validated: 33
EndChar

StartChar: germandbls
Encoding: 223 223 149
Width: 526
Flags: W
HStem: -11 49.24<215.682 385.606> 0 21G<78.36 138.89> 671.43 49.57<198.267 340.148>
VStem: 78.36 60.53<0 599.502> 282.98 59.53<334.15 440.642> 383.66 58.54<501.939 626.91> 422.35 59.53<73.8064 208.133>
LayerCount: 2
Fore
SplineSet
138.89 0 m 1x7c
 78.36 0 l 1
 78.36 460.71 l 2
 78.36 574.71 104.69 636.7 147.35 675.36 c 0
 182 706.68 225.31 721 279.61 721 c 0
 363.89 721 442.2 666.36 442.2 558.7 c 0x7c
 442.2 522.36 429.53 492.03 419.87 476.7 c 1
 372.86 457.7 342.51 429.03 342.51 391.01 c 0
 342.51 351.65 365.86 329.98 400.21 295.97 c 0
 442.22 253.96 481.88 213.3 481.88 143.31 c 0
 481.88 51.99 415.89 -11 312.26 -11 c 0
 274.59 -11 235.93 -3.66 206.26 12.01 c 1
 220.92 60.25 l 1
 250.27 45.91 279.61 38.24 311.62 38.24 c 0
 384.33 38.24 422.35 82.27 422.35 135.64 c 0xba
 422.35 184.34 401 216.36 360.31 252.71 c 0
 314.96 294.72 282.98 330.38 282.98 382.36 c 0
 282.98 434.03 315.65 476.02 375.33 504.69 c 1
 380.33 516.69 383.66 532.7 383.66 551.04 c 0
 383.66 629.42 336.97 671.43 269.61 671.43 c 0
 183.9 671.43 138.89 611.4 138.89 460.69 c 2
 138.89 0 l 1x7c
EndSplineSet
Validated: 1
EndChar

StartChar: onesuperior
Encoding: 185 185 150
Width: 221
Flags: W
VStem: 102.98 49.9<443 785.07>
LayerCount: 2
Fore
SplineSet
152.88 443 m 1
 102.98 443 l 1
 102.98 785.07 l 1
 100.98 785.07 l 1
 31.66 751.07 l 1
 22.67 790.34 l 1
 108.63 833 l 1
 152.88 833 l 1
 152.88 443 l 1
EndSplineSet
Validated: 1
EndChar

StartChar: logicalnot
Encoding: 172 172 151
Width: 596
Flags: W
HStem: 343.02 46.6<40 506.07>
VStem: 506.07 49.93<127.03 343.02>
LayerCount: 2
Fore
SplineSet
40 389.62 m 1
 556 389.62 l 1
 556 127.03 l 1
 506.07 127.03 l 1
 506.07 343.02 l 1
 40 343.02 l 1
 40 389.62 l 1
EndSplineSet
Validated: 1
EndChar

StartChar: mu
Encoding: 181 181 152
Width: 540
Flags: W
HStem: -198 21G<87.025 147.91> -9.67 50.57<191.086 334.442 484.131 504.26> 461.32 20G<78.36 138.56 402.38 462.58>
VStem: 78.36 60.2<-196.028 53.38 96.9134 481.32> 402.38 60.2<45.9853 78.35 109.5 481.32>
LayerCount: 2
Fore
SplineSet
407.69 78.35 m 1
 404.69 78.35 l 1
 382.68 39.68 333.67 -9.67 258.32 -9.67 c 0
 206.95 -9.67 159.92 8.34 136.91 53.38 c 1
 136.91 -13.99 l 2
 136.91 -67.66 137.91 -156.66 147.91 -198 c 1
 92.36 -198 l 1
 81.69 -165.32 78.36 -98.34 78.36 -19.33 c 2
 78.36 481.32 l 1
 138.56 481.32 l 1
 138.56 190.63 l 2
 138.56 111.61 172.57 40.9 262.3 40.9 c 0
 327.67 40.9 374.36 87.59 393.04 132.62 c 0
 398.04 146.96 402.38 164.97 402.38 182.98 c 2
 402.38 481.32 l 1
 462.58 481.32 l 1
 462.58 122.28 l 2
 462.58 64.59 472.24 40.24 510.59 37.57 c 1
 504.26 -9.01 l 1
 494.26 -10.67 494.29 -11 483.64 -11 c 0
 447.34 -11 412.34 11.66 407.69 78.35 c 1
EndSplineSet
Validated: 1
EndChar

StartChar: trademark
Encoding: 8482 8482 153
Width: 606
Flags: W
HStem: 406 46.57<423.745 438.173> 638.38 35.62<32.01 122.36 164.3 254.65 324.6 333.177 525.155 534.64>
VStem: 122.36 41.94<402 638.38>
LayerCount: 2
Fore
SplineSet
32.01 674 m 1
 254.65 674 l 1
 254.65 638.38 l 1
 164.3 638.38 l 1
 164.3 402 l 1
 122.36 402 l 1
 122.36 638.38 l 1
 32.01 638.38 l 1
 32.01 674 l 1
592.6 402 m 1
 549.32 402 l 1
 537.31 578.75 l 2
 536.31 596.4 535.64 618.38 534.64 642.69 c 1
 532.31 642.69 l 1
 525.31 624.05 517.31 594.73 509.98 572.41 c 2
 451.6 406 l 1
 405.65 406 l 1
 346.6 577.08 l 2
 341.6 595.4 332.26 623.38 326.93 642.69 c 1
 324.6 642.69 l 1
 324.6 622.38 323.6 601.07 322.6 578.75 c 2
 310.59 402 l 1
 269.31 402 l 1
 290.65 674 l 1
 352.89 674 l 1
 411.28 513.53 l 2
 418.62 493.2 423.62 473.87 429.95 452.57 c 1
 431.62 452.57 l 1
 437.95 473.55 444.62 495.88 449.28 511.86 c 2
 507.67 674 l 1
 569.59 674 l 1
 592.6 402 l 1
EndSplineSet
Validated: 1
EndChar

StartChar: Eth
Encoding: 208 208 154
Width: 657
Flags: W
HStem: -6.33 49.9<143.88 380.489> 317.05 49.23<-3.34 83.68 143.88 343.31> 632.1 49.9<145.092 393.572>
VStem: 83.68 60.2<45.962 317.05 366.28 625.535> 557.07 62.86<222.795 476.644>
LayerCount: 2
Fore
SplineSet
-3.34 317.05 m 1
 -3.34 366.28 l 1
 83.68 366.28 l 1
 83.68 667 l 1
 135.34 676 194.99 682 259.97 682 c 0
 383.3 682 475.31 649.65 532.3 591.97 c 0
 588.28 536.3 619.93 459.98 619.93 353 c 0
 619.93 250.04 590.62 160.37 528.96 94.69 c 0
 467.97 30.35 365.65 -6.33 235.65 -6.33 c 0
 180.02 -6.33 130.36 -5 83.68 0 c 1
 83.68 317.05 l 1
 -3.34 317.05 l 1
343.31 366.28 m 1
 343.31 317.05 l 1
 143.88 317.05 l 1
 143.88 48.24 l 1
 169.9 44.57 206.59 43.57 245.62 43.57 c 0
 452.38 43.57 557.07 158.63 557.07 353.34 c 0
 558.07 521.04 464.72 632.1 259.28 632.1 c 0
 209.59 632.1 170.9 627.43 143.88 621.76 c 1
 143.88 366.28 l 1
 343.31 366.28 l 1
EndSplineSet
Validated: 33
EndChar

StartChar: onehalf
Encoding: 189 189 155
Width: 729
Flags: W
HStem: -11 21G<106.27 162.979> 0 42.27<494.78 675.83> 353.07 41.93<466.204 591.516>
VStem: 111.32 50.57<266 609.07> 614.93 53.9<207.978 330.268>
LayerCount: 2
Fore
SplineSet
161.89 266 m 1x38
 111.32 266 l 1
 111.32 609.07 l 1
 109.32 609.07 l 1
 40.67 574.07 l 1
 31.01 614.01 l 1
 116.64 656 l 1
 161.89 656 l 1
 161.89 266 l 1x38
151.55 -11 m 1xb8
 106.27 -11 l 1
 489.96 661 l 1
 535.57 661 l 1
 151.55 -11 l 1xb8
421.91 0 m 1x78
 421.91 28.96 l 1
 485.58 89.3 l 2
 570.59 168.32 614.93 220.68 614.93 274.36 c 0
 614.93 316.38 590.26 353.07 532.23 353.07 c 0
 495.89 353.07 466.56 333.73 448.9 320.73 c 1
 431.92 353.67 l 1
 456.24 376 497.89 395 544.54 395 c 0
 636.86 395 668.83 333.32 668.83 285.35 c 0
 668.83 209.01 611.16 149.99 528.46 75.62 c 2
 494.78 44.27 l 1
 494.78 42.27 l 1
 675.83 42.27 l 1
 675.83 0 l 1
 421.91 0 l 1x78
EndSplineSet
Validated: 1
EndChar

StartChar: plusminus
Encoding: 177 177 156
Width: 596
Flags: W
HStem: 0 46.6<40 556> 319.01 46.6<40 273.37 323.3 556>
VStem: 273.37 49.93<108.96 319.01 365.61 568.65>
LayerCount: 2
Fore
SplineSet
273.37 568.65 m 1
 323.3 568.65 l 1
 323.3 365.61 l 1
 556 365.61 l 1
 556 319.01 l 1
 323.3 319.01 l 1
 323.3 108.96 l 1
 273.37 108.96 l 1
 273.37 319.01 l 1
 40 319.01 l 1
 40 365.61 l 1
 273.37 365.61 l 1
 273.37 568.65 l 1
40 46.6 m 1
 556 46.6 l 1
 556 0 l 1
 40 0 l 1
 40 46.6 l 1
EndSplineSet
Validated: 1
EndChar

StartChar: Thorn
Encoding: 222 222 157
Width: 510
Flags: W
HStem: 0 21G<80.02 139.22> 161.05 49.9<139.22 326.483> 497.08 49.57<140.378 340.851> 654 20G<80.02 139.22>
VStem: 80.02 59.2<0 166.05 214.021 492.49 537.98 674> 406.68 60.87<282.48 437.634>
LayerCount: 2
Fore
SplineSet
80.02 0 m 1
 80.02 674 l 1
 139.22 674 l 1
 139.22 537.98 l 1
 170.24 544.32 207.26 546.65 240.58 546.65 c 0
 320.25 546.65 377.58 526.98 415.9 491.65 c 0
 448.22 459.99 467.55 416.67 467.55 367.35 c 0
 467.55 234.73 365.91 161.05 218.57 161.05 c 0
 191.91 161.05 162.9 162.38 139.22 166.05 c 1
 139.22 0 l 1
 80.02 0 l 1
139.22 488.41 m 1
 139.22 217.62 l 1
 165.57 211.95 193.58 210.95 220.25 210.95 c 0
 338.97 210.95 406.68 266.97 406.68 359.69 c 0
 406.68 456.07 335.97 497.08 236.6 497.08 c 0
 193.92 497.08 157.23 493.08 139.22 488.41 c 1
EndSplineSet
Validated: 1
EndChar

StartChar: onequarter
Encoding: 188 188 158
Width: 729
Flags: W
HStem: 0 10G<123.93 180.639 580.59 631.17> 107.69 39.62<447.52 580.59 631.17 688.18>
VStem: 126.66 50.57<266 609.07> 580.59 50.58<0 107.69 147.31 340.226>
LayerCount: 2
Fore
SplineSet
177.23 266 m 1
 126.66 266 l 1
 126.66 609.07 l 1
 124.66 609.07 l 1
 56.01 574.07 l 1
 46.35 614.01 l 1
 132.31 656 l 1
 177.23 656 l 1
 177.23 266 l 1
169.21 -11 m 1
 123.93 -11 l 1
 507.95 661 l 1
 553.23 661 l 1
 169.21 -11 l 1
631.17 0 m 1
 580.59 0 l 1
 580.59 107.69 l 1
 392.26 107.69 l 1
 392.26 138.98 l 1
 574.95 391.33 l 1
 631.17 391.33 l 1
 631.17 147.31 l 1
 688.18 147.31 l 1
 688.18 107.69 l 1
 631.17 107.69 l 1
 631.17 0 l 1
580.59 147.31 m 1
 580.59 282.73 l 2
 580.59 304.06 581.92 323.72 582.92 341.04 c 1
 580.92 341.71 l 1
 568.92 319.38 559.59 303.39 548.26 286.06 c 2
 447.52 148.64 l 1
 447.52 147.31 l 1
 580.59 147.31 l 1
EndSplineSet
Validated: 1
EndChar

StartChar: divide
Encoding: 247 247 159
Width: 596
Flags: W
HStem: 44.04 95.59<260.441 336.539> 243.7 46.6<40 556> 394.37 95.59<260.441 336.539>
VStem: 253.71 89.25<50.3494 132.955 400.679 483.285>
LayerCount: 2
Fore
SplineSet
298 394.37 m 0
 271.36 394.37 253.04 415.69 253.71 442 c 0
 253.71 469.64 272.36 489.96 299 489.96 c 0
 325.31 489.96 342.96 469.64 342.96 442 c 0
 342.96 415.69 325.64 394.37 298 394.37 c 0
556 243.7 m 1
 40 243.7 l 1
 40 290.3 l 1
 556 290.3 l 1
 556 243.7 l 1
298 44.04 m 0
 271.36 44.04 253.04 65.36 253.71 91.67 c 0
 253.71 119.31 272.36 139.63 299 139.63 c 0
 325.31 139.63 342.96 119.31 342.96 91.67 c 0
 342.96 65.36 325.64 44.04 298 44.04 c 0
EndSplineSet
Validated: 33
EndChar

StartChar: brokenbar
Encoding: 166 166 160
Width: 220
Flags: W
HStem: 654 20G<85.33 135.58>
VStem: 85.33 50.25<-176 174 324 674>
LayerCount: 2
Fore
SplineSet
85.33 174 m 1
 135.58 174 l 1
 135.58 -176 l 1
 85.33 -176 l 1
 85.33 174 l 1
85.33 674 m 1
 135.58 674 l 1
 135.58 324 l 1
 85.33 324 l 1
 85.33 674 l 1
EndSplineSet
Validated: 1
EndChar

StartChar: degree
Encoding: 176 176 161
Width: 301
Flags: W
HStem: 433.06 38.29<102.848 204.823> 647.38 37.62<103.535 205.621>
VStem: 29.67 43.28<498.866 618.36> 235.31 43.95<498.997 621.655>
LayerCount: 2
Fore
SplineSet
155.3 685 m 0
 233.95 685 279.26 625.68 279.26 561.7 c 0
 279.26 483.38 216.27 433.06 152.63 433.06 c 0
 78.65 433.06 29.67 490.05 29.67 555.36 c 0
 29.34 629.68 85.32 685 155.3 685 c 0
153.63 647.38 m 0
 98.28 647.38 72.95 599.03 72.95 556.03 c 0
 72.95 508.69 108.29 471.35 153.63 471.35 c 0
 200.64 471.35 235.31 509.02 235.31 560.03 c 0
 235.31 596.36 214.65 647.38 153.63 647.38 c 0
EndSplineSet
Validated: 33
EndChar

StartChar: thorn
Encoding: 254 254 162
Width: 557
Flags: W
HStem: -198 21G<78.36 138.56> -11 49.57<213.72 370.666> 443.09 49.23<222.055 370.723> 690 20G<78.36 138.56>
VStem: 78.36 60.2<-198 73.04 112.783 358.341 398.29 710> 456.4 61.2<133.298 347.015>
LayerCount: 2
Fore
SplineSet
78.36 710 m 1
 138.56 710 l 1
 138.56 398.29 l 1
 140.56 398.29 l 1
 174.23 455.31 229.91 492.32 312.93 492.32 c 0
 430.95 492.65 517.6 392.64 517.6 248 c 0
 517.6 72.34 410.28 -11 297.6 -11 c 0
 231.59 -11 174.24 18.34 140.56 73.04 c 1
 138.56 73.04 l 1
 138.56 -198 l 1
 78.36 -198 l 1
 78.36 710 l 1
138.56 278.66 m 2
 138.56 187.65 l 2
 138.56 173.65 141.22 157.32 146.55 144.32 c 0
 166.89 78.6 226.6 38.57 295.32 38.57 c 0
 391.03 38.57 456.4 118.94 456.4 247 c 0
 456.4 351.04 397.37 443.09 295.98 443.09 c 0
 232.61 443.09 170.9 399.39 147.89 331.01 c 0
 143.56 315.67 138.56 296 138.56 278.66 c 2
EndSplineSet
Validated: 33
EndChar

StartChar: threequarters
Encoding: 190 190 163
Width: 729
Flags: W
HStem: 0 10G<162.94 219.649 591.59 641.84> 107.69 39.62<459.19 591.59 641.84 699.18> 261 39.94<57.4462 203.458> 456.03 37.29<92.99 186.437> 621.06 39.94<78.9791 202.846>
VStem: 216.68 52.57<518.417 607.356> 233.02 52.9<326.835 426.914> 591.59 50.25<0 107.69 147.31 340.226>
LayerCount: 2
Fore
SplineSet
67.34 593.72 m 1xfd
 51.68 630 l 1
 72.67 644.33 110.98 661 155.96 661 c 0
 237.94 661 269.25 615 269.25 569.01 c 0xfd
 269.25 530.35 242.26 495.68 195.26 478.34 c 1
 195.26 476.34 l 1
 249.26 467.67 285.92 428.33 285.92 377.33 c 0
 285.92 318.68 236.28 261 137.63 261 c 0
 91.98 261 51.66 274.67 31.34 289 c 1
 47.33 326.94 l 1
 61.32 316.61 99.65 300.94 138.32 300.94 c 0
 208.36 300.94 233.69 344.31 233.02 377.32 c 0xfb
 232.02 434.69 175 456.03 118.98 456.03 c 2
 92.99 456.03 l 1
 92.99 493.32 l 1
 120.32 493.32 l 2
 158.66 493.32 216.68 513 216.68 565.36 c 0
 216.68 592.04 197.34 621.06 149.66 621.06 c 0
 112.99 621.06 81.33 604.72 67.34 593.72 c 1xfd
208.22 -11 m 1
 162.94 -11 l 1
 546.96 661 l 1
 592.24 661 l 1
 208.22 -11 l 1
641.84 0 m 1
 591.59 0 l 1
 591.59 107.69 l 1
 403.93 107.69 l 1
 403.93 138.98 l 1
 586.29 391.33 l 1
 641.84 391.33 l 1
 641.84 147.31 l 1
 699.18 147.31 l 1
 699.18 107.69 l 1
 641.84 107.69 l 1
 641.84 0 l 1
591.59 147.31 m 1
 591.59 282.73 l 2
 591.59 304.06 593.59 323.72 594.59 341.04 c 1
 592.59 341.71 l 1
 580.59 319.38 571.26 303.39 559.26 286.06 c 2
 458.86 148.64 l 1
 459.19 147.31 l 1
 591.59 147.31 l 1
EndSplineSet
Validated: 33
EndChar

StartChar: twosuperior
Encoding: 178 178 164
Width: 294
Flags: W
HStem: 443 41.6<84.2 264.58> 795.07 42.93<53.3809 182.159>
VStem: 204.35 53.9<650.356 772.786>
LayerCount: 2
Fore
SplineSet
10.66 443 m 1
 10.66 471.96 l 1
 74.33 531.3 l 2
 160.01 610.65 204.35 663.01 204.35 717.36 c 0
 204.35 759.38 179.68 795.07 120.98 795.07 c 0
 85.31 795.07 55.31 776.06 38.32 763.4 c 1
 21.34 796 l 1
 44.99 818 87.31 838 133.29 838 c 0
 225.28 838 258.25 775.32 258.25 728.35 c 0
 258.25 651.01 199.91 591.99 117.88 518.62 c 2
 84.2 486.6 l 1
 84.2 484.6 l 1
 264.58 484.6 l 1
 264.58 443 l 1
 10.66 443 l 1
EndSplineSet
Validated: 1
EndChar

StartChar: registered
Encoding: 174 174 165
Width: 402
Flags: W
HStem: 361.7 30.98<142.098 261.991> 505.69 24.99<174.28 224.724> 583.03 24.99<174.28 231.645> 655.35 29.65<143.813 259.935>
VStem: 36.98 37.31<456.139 591.494> 140.64 33.31<437.01 505.69 530.68 582.897> 235.64 35.64<437.298 499.83 534.334 580.158> 327.96 37.98<452.867 593.123>
LayerCount: 2
Fore
SplineSet
173.95 505.69 m 1
 173.95 437.01 l 1
 140.64 437.01 l 1
 140.64 603.02 l 1
 156.98 606.02 175.97 608.02 200.29 608.02 c 0
 229.28 608.02 243.28 603.02 254.61 595.35 c 0
 264.28 588.35 271.28 575.35 271.28 560.02 c 0
 271.28 540.01 256.61 526.68 237.95 520.68 c 1
 237.95 518.68 l 1
 253.28 512.68 261.61 500.01 266.61 478.68 c 0
 271.61 453.01 274.61 443.01 278.61 437.01 c 1
 243.64 437.01 l 1
 238.64 443.01 234.97 458.01 230.64 479.69 c 0
 226.97 497.69 216.3 505.69 193.29 505.69 c 2
 173.95 505.69 l 1
174.28 581.03 m 1
 174.28 530.68 l 1
 194.29 530.68 l 2
 216.63 530.68 235.64 537.68 235.64 556.69 c 0
 235.64 572.36 225.31 583.03 197.29 583.03 c 0
 185.95 583.03 178.95 582.03 174.28 581.03 c 1
201.96 685 m 0
 294.28 685 365.94 614.01 365.94 524.35 c 0
 365.94 432.69 294.28 361.7 201.96 361.7 c 0
 109.97 361.7 36.98 432.69 36.98 524.35 c 0
 36.98 614.01 109.97 685 201.96 685 c 0
201.96 655.35 m 0
 128.96 655.35 74.29 596.35 74.29 524.35 c 0
 74.29 450.68 128.96 392.68 202.96 392.68 c 0
 274.96 392.68 327.96 450.68 327.96 523.35 c 0
 327.96 596.35 274.96 655.35 201.96 655.35 c 0
EndSplineSet
Validated: 1
EndChar

StartChar: minus
Encoding: 8722 8722 166
Width: 596
Flags: W
HStem: 243.7 46.6<40 556>
LayerCount: 2
Fore
SplineSet
40 290.3 m 1
 556 290.3 l 1
 556 243.7 l 1
 40 243.7 l 1
 40 290.3 l 1
EndSplineSet
Validated: 1
EndChar

StartChar: eth
Encoding: 240 240 167
Width: 527
Flags: W
HStem: -11 48.58<186.935 336.554> 442.76 45.93<188.93 344.998>
VStem: 40.01 61.53<137.992 341.962> 422.39 62.53<138.176 362.942>
LayerCount: 2
Fore
SplineSet
258.96 37.58 m 0
 357.68 37.58 422.39 123.62 422.39 243 c 0
 422.39 311.36 412.72 354.04 383.7 389.06 c 0
 359.69 416.74 322 442.76 262.96 442.76 c 0
 147.57 442.76 101.54 325.04 101.54 237 c 0
 101.54 124.28 171.26 37.58 258.96 37.58 c 0
120.02 519.06 m 1
 104.37 555.36 l 1
 224.39 613.71 l 1
 194.39 637.05 154.71 659.06 115.7 678.4 c 1
 142.98 720.67 l 1
 188.97 698 236.96 670 276.61 639.67 c 1
 400.59 700.67 l 1
 418.24 663.37 l 1
 312.24 611.36 l 1
 368.58 564.35 412.58 509.01 442.25 449.01 c 0
 469.25 392.34 484.92 327.67 484.92 250.99 c 0
 485.25 65.66 369.6 -11 258.96 -11 c 0
 133.32 -11 40.01 85.67 40.01 235.33 c 0
 40.01 397.02 150.01 488.69 259.65 488.69 c 0
 303.35 488.69 345.38 479.68 389.41 436.31 c 1
 391.41 439.31 l 1
 361.07 493.34 319.05 541.7 261.35 586.4 c 1
 120.02 519.06 l 1
EndSplineSet
Validated: 33
EndChar

StartChar: multiply
Encoding: 215 215 168
Width: 596
Flags: W
HStem: 0 21G<54.62 94.2397 501.149 541.097>
LayerCount: 2
Fore
SplineSet
40 491.38 m 1
 74.62 526 l 1
 298 298.29 l 1
 521.38 526 l 1
 556 491.38 l 1
 332.29 263 l 1
 556 34.62 l 1
 520.71 0 l 1
 298 227.71 l 1
 74.62 0 l 1
 40 34.62 l 1
 263.38 263 l 1
 40 491.38 l 1
EndSplineSet
Validated: 1
EndChar

StartChar: threesuperior
Encoding: 179 179 169
Width: 287
Flags: W
HStem: 438 39.61<35.9865 180.768> 633.03 36.62<69.98 161.627> 798.06 39.94<57.6432 179.988>
VStem: 194.34 52.57<696.118 784.907> 209.68 53.9<503.835 603.425>
LayerCount: 2
Fore
SplineSet
44.33 769.72 m 1xf0
 28.67 806.67 l 1
 50.33 820.33 88.64 838 133.62 838 c 0
 215.6 838 246.91 791.33 246.91 745.01 c 0xf0
 246.91 706.35 219.25 672.01 172.59 654.34 c 1
 172.59 652.34 l 1
 226.92 644.67 263.58 604.33 263.58 554.33 c 0
 263.58 495.68 213.61 438 114.96 438 c 0
 68.97 438 28.32 450.67 8.33 465 c 1
 24.99 503.61 l 1
 38.98 493.61 77.31 477.61 115.98 477.61 c 0
 185.69 477.61 210.68 520.98 209.68 553.99 c 0xe8
 209.68 611.69 151.99 633.03 95.64 633.03 c 2
 69.98 633.03 l 1
 69.98 669.65 l 1
 97.31 669.65 l 2
 135.65 669.65 193.34 689.33 194.34 742.03 c 0
 194.34 768.37 175 798.06 126.65 798.06 c 0
 90.65 798.06 58.99 780.72 44.33 769.72 c 1xf0
EndSplineSet
Validated: 33
EndChar

StartChar: copyright
Encoding: 169 169 170
Width: 677
Flags: W
HStem: 30 34.97<249.131 429.791> 153 36.3<290.604 453.133> 483.7 36.3<287.326 451.523> 613.03 34.97<249.131 429.791>
VStem: 38.01 43.3<227.69 445.905> 174.34 44.63<254.944 420.662> 595.69 43.97<228.464 450.196>
LayerCount: 2
Fore
SplineSet
340 648 m 0
 509 648 639.66 510 639.66 340 c 0
 639.66 168 509 30 340 30 c 0
 170 30 38.01 168 38.01 340 c 0
 38.01 510 170 648 340 648 c 0
340 613.03 m 0
 192.65 613.03 81.31 493.69 81.31 336.33 c 0
 81.31 183.31 192.65 64.97 340 64.97 c 0
 484.35 64.97 595.69 183.31 595.69 340 c 0
 595.69 493.69 484.35 613.03 340 613.03 c 0
474 493.67 m 1
 463.34 460.03 l 1
 449.67 467.7 414.01 483.7 365 483.7 c 0
 264.97 483.7 218.97 418.34 218.97 337 c 0
 218.97 256.32 267.97 189.3 366.67 189.3 c 0
 407.34 189.3 445.34 200.3 469.01 215.97 c 1
 479.67 184 l 1
 444.67 160.33 398 153 356.67 153 c 0
 241.34 153 174.34 233 174.34 334 c 0
 174.34 447.33 263.67 520 364 520 c 0
 417.34 520 460.33 505 474 493.67 c 1
EndSplineSet
Validated: 1
EndChar

StartChar: Aacute
Encoding: 193 193 171
Width: 593
Flags: W
HStem: 0 21G<28.35 97.782 500.983 571.58> 228.08 49.24<185.58 411.36> 654 20G<260.307 339.953> 710 21G<256.34 329.47>
LayerCount: 2
Fore
SplineSet
427.35 228.08 m 1
 169.59 228.08 l 1
 90.88 0 l 1
 28.35 0 l 1
 267.4 674 l 1
 332.87 674 l 1
 571.58 0 l 1
 508.06 0 l 1
 427.35 228.08 l 1
185.58 277.32 m 1
 411.36 277.32 l 1
 334.64 492.09 l 2
 318.97 538.1 309.64 574.08 299.64 612.41 c 1
 297.64 612.41 l 1
 287.64 573.08 276.64 536.1 262.97 493.76 c 2
 185.58 277.32 l 1
352.02 824.32 m 1
 435.91 824.32 l 1
 306.9 710 l 1
 256.34 710 l 1
 352.02 824.32 l 1
EndSplineSet
Validated: 1
EndChar

StartChar: Acircumflex
Encoding: 194 194 172
Width: 593
Flags: W
HStem: 0 21G<28.35 97.782 500.983 571.58> 228.08 49.24<185.58 411.36> 654 20G<260.307 339.953> 710 21G<175.34 251.443 353.578 432.59>
LayerCount: 2
Fore
SplineSet
427.35 228.08 m 1
 169.59 228.08 l 1
 90.88 0 l 1
 28.35 0 l 1
 267.4 674 l 1
 332.87 674 l 1
 571.58 0 l 1
 508.06 0 l 1
 427.35 228.08 l 1
185.58 277.32 m 1
 411.36 277.32 l 1
 334.64 492.09 l 2
 318.97 538.1 309.64 574.08 299.64 612.41 c 1
 297.64 612.41 l 1
 287.64 573.08 276.64 536.1 262.97 493.76 c 2
 185.58 277.32 l 1
278.68 820.65 m 1
 326.25 820.65 l 1
 432.59 710 l 1
 372.66 710 l 1
 303.63 782.35 l 1
 301.63 782.35 l 1
 232.27 710 l 1
 175.34 710 l 1
 278.68 820.65 l 1
EndSplineSet
Validated: 1
EndChar

StartChar: Adieresis
Encoding: 196 196 173
Width: 593
Flags: W
HStem: 0 21G<28.35 97.782 500.983 571.58> 228.08 49.24<185.58 411.36> 654 20G<260.307 339.953> 721.68 86.93<177.803 248.448 354.41 425.054>
VStem: 172.02 81.59<726.116 803.262> 348.64 81.59<726.116 803.262>
LayerCount: 2
Fore
SplineSet
427.35 228.08 m 1
 169.59 228.08 l 1
 90.88 0 l 1
 28.35 0 l 1
 267.4 674 l 1
 332.87 674 l 1
 571.58 0 l 1
 508.06 0 l 1
 427.35 228.08 l 1
185.58 277.32 m 1
 411.36 277.32 l 1
 334.64 492.09 l 2
 318.97 538.1 309.64 574.08 299.64 612.41 c 1
 297.64 612.41 l 1
 287.64 573.08 276.64 536.1 262.97 493.76 c 2
 185.58 277.32 l 1
212.31 721.68 m 0
 187.33 721.68 172.02 742 172.02 765.31 c 0
 172.02 788.62 189.67 808.61 213.31 808.61 c 0
 236.96 808.61 253.61 789.29 253.61 765.31 c 0
 253.61 742 238.63 721.68 212.31 721.68 c 0
388.6 721.68 m 0
 363.62 721.68 348.64 742 348.64 765.31 c 0
 348.64 788.62 366.29 808.61 389.6 808.61 c 0
 413.58 808.61 430.23 789.29 430.23 765.31 c 0
 430.23 742 415.25 721.68 388.6 721.68 c 0
EndSplineSet
Validated: 1
EndChar

StartChar: Agrave
Encoding: 192 192 174
Width: 593
Flags: W
HStem: 0 21G<28.35 97.782 500.983 571.58> 228.08 49.24<185.58 411.36> 654 20G<260.307 339.953> 710.33 21G<270.549 343.59>
LayerCount: 2
Fore
SplineSet
427.35 228.08 m 1
 169.59 228.08 l 1
 90.88 0 l 1
 28.35 0 l 1
 267.4 674 l 1
 332.87 674 l 1
 571.58 0 l 1
 508.06 0 l 1
 427.35 228.08 l 1
185.58 277.32 m 1
 411.36 277.32 l 1
 334.64 492.09 l 2
 318.97 538.1 309.64 574.08 299.64 612.41 c 1
 297.64 612.41 l 1
 287.64 573.08 276.64 536.1 262.97 493.76 c 2
 185.58 277.32 l 1
163.35 824.32 m 1
 248.24 824.32 l 1
 343.59 710.33 l 1
 293.36 710.33 l 1
 163.35 824.32 l 1
EndSplineSet
Validated: 1
EndChar

StartChar: Aring
Encoding: 197 197 175
Width: 593
Flags: W
HStem: 0 21G<28.35 97.782 500.983 571.58> 228.08 49.24<185.58 411.36> 654 20G<260.307 339.953> 698.33 30.97<266.466 334.02> 839.99 30.64<265.869 334.621>
VStem: 207.33 42.96<739.145 830.381> 349.64 43.96<738.758 830.576>
LayerCount: 2
Fore
SplineSet
427.35 228.08 m 1
 169.59 228.08 l 1
 90.88 0 l 1
 28.35 0 l 1
 267.4 674 l 1
 332.87 674 l 1
 571.58 0 l 1
 508.06 0 l 1
 427.35 228.08 l 1
185.58 277.32 m 1
 411.36 277.32 l 1
 334.64 492.09 l 2
 318.97 538.1 309.64 574.08 299.64 612.41 c 1
 297.64 612.41 l 1
 287.64 573.08 276.64 536.1 262.97 493.76 c 2
 185.58 277.32 l 1
300.63 870.63 m 0
 356.27 870.63 393.6 831.97 393.6 783.31 c 0
 393.6 735.32 353.27 698.33 300.63 698.33 c 0
 245.66 698.33 207.33 736.32 207.33 782.98 c 0
 207.33 830.97 244.66 870.63 300.63 870.63 c 0
299.63 839.99 m 0
 268.63 839.99 250.29 813.32 250.29 782.98 c 0
 250.29 755.97 270.63 729.3 299.63 729.3 c 0
 329.3 729.3 349.64 753.97 349.64 784.98 c 0
 349.64 815.32 329.3 839.99 299.63 839.99 c 0
EndSplineSet
Validated: 1
EndChar

StartChar: Atilde
Encoding: 195 195 176
Width: 593
Flags: W
HStem: 0 21G<28.35 97.782 500.983 571.58> 228.08 49.24<185.58 411.36> 654 20G<260.307 339.953> 721 47.95<297.141 378.393> 759.67 47.28<225.334 301.76>
VStem: 182.99 37.62<715.67 757.462> 380.97 37.62<771.46 806.61>
LayerCount: 2
Fore
SplineSet
427.35 228.08 m 1xe6
 169.59 228.08 l 1
 90.88 0 l 1
 28.35 0 l 1
 267.4 674 l 1
 332.87 674 l 1
 571.58 0 l 1
 508.06 0 l 1
 427.35 228.08 l 1xe6
185.58 277.32 m 1
 411.36 277.32 l 1
 334.64 492.09 l 2
 318.97 538.1 309.64 574.08 299.64 612.41 c 1
 297.64 612.41 l 1
 287.64 573.08 276.64 536.1 262.97 493.76 c 2
 185.58 277.32 l 1
220.61 715.67 m 1
 182.99 715.67 l 1
 181.99 766.62 205.98 806.95 246.97 806.95 c 0xee
 267.63 806.95 282.62 798.62 304.96 786.28 c 0
 320.96 777.95 337.63 768.95 353.97 768.95 c 0
 369.3 768.95 378.97 775.28 380.97 806.61 c 1
 418.59 806.61 l 1
 418.92 755 399.6 721 355.95 721 c 0xf6
 336.96 721 319.63 728.33 296.29 740.67 c 0
 276.62 750.67 262.28 759.67 247.28 759.67 c 0xee
 229.94 759.67 223.61 741.33 220.61 715.67 c 1
EndSplineSet
Validated: 33
EndChar

StartChar: Ccedilla
Encoding: 199 199 177
Width: 573
Flags: HW
LayerCount: 2
Back
SplineSet
525.65 71.57 m 5
 540.97 23.34 l 5
 507.63 6 442.96 -10 360.96 -10 c 4
 189.05 -10 37.34 99.28 37.34 332.34 c 4
 37.34 535.97 170.96 685 381.97 685 c 4
 467.31 685 518.3 666.33 539.96 655 c 5
 522.31 604.77 l 5
 488.64 621.44 440.3 633.44 383.63 633.44 c 4
 209.55 633.44 100.53 521.05 100.53 332.66 c 4
 100.53 155.6 202.23 41.56 376.95 41.56 c 4
 433.3 41.56 488.64 53.23 525.65 71.57 c 5
EndSplineSet
Fore
SplineSet
328.719726562 -8 m 1
 285.379882812 -81 l 1
 329.030273438 -85 362.379882812 -95.66015625 363.379882812 -125.009765625 c 0
 364.049804688 -150.349609375 341.040039062 -159.01953125 317.700195312 -159.01953125 c 0
 298.360351562 -159.01953125 279.030273438 -154.690429688 263.700195312 -145.360351562 c 1
 250.709960938 -182.330078125 l 1
 266.370117188 -191.66015625 292.370117188 -198.66015625 313.349609375 -198.66015625 c 0
 365.669921875 -198.66015625 410.650390625 -176.66015625 410.650390625 -120.33984375 c 0
 410.650390625 -83.009765625 378.3203125 -57.6796875 341.990234375 -52.6796875 c 1
 370 -10 l 1
 452 -10 510 8 542 24 c 1
 525 71 l 1xd4
 490 54 432 42 370 42 c 0
 206 42 100 156 100 334 c 0
 100 534 222 634 388 634 c 0
 444 634 489 620 522 604 c 1
 540 655 l 1xcc
 517 667 472 685 388 685 c 0xb6
 179 685 36 542 36 331 c 0
 36 130 157 6 328.719726562 -8 c 1
EndSplineSet
EndChar

StartChar: Eacute
Encoding: 201 201 178
Width: 474
Flags: W
HStem: 0 50.89<140.22 438.92> 328.73 50.56<140.22 407.58> 623.11 50.89<140.22 423.25> 710 21G<211.01 284.81>
VStem: 80.02 60.2<50.89 328.73 379.29 623.11>
LayerCount: 2
Fore
SplineSet
407.58 379.29 m 1
 407.58 328.73 l 1
 140.22 328.73 l 1
 140.22 50.89 l 1
 438.92 50.89 l 1
 438.92 0 l 1
 80.02 0 l 1
 80.02 674 l 1
 423.25 674 l 1
 423.25 623.11 l 1
 140.22 623.11 l 1
 140.22 379.29 l 1
 407.58 379.29 l 1
307.36 824.32 m 1
 391.25 824.32 l 1
 262.24 710 l 1
 211.01 710 l 1
 307.36 824.32 l 1
EndSplineSet
Validated: 1
EndChar

StartChar: Ecircumflex
Encoding: 202 202 179
Width: 474
Flags: W
HStem: 0 50.89<140.22 438.92> 328.73 50.56<140.22 407.58> 623.11 50.89<140.22 423.25> 710 21G<120 196.342 298.477 377.58>
VStem: 80.02 60.2<50.89 328.73 379.29 623.11>
LayerCount: 2
Fore
SplineSet
407.58 379.29 m 1
 407.58 328.73 l 1
 140.22 328.73 l 1
 140.22 50.89 l 1
 438.92 50.89 l 1
 438.92 0 l 1
 80.02 0 l 1
 80.02 674 l 1
 423.25 674 l 1
 423.25 623.11 l 1
 140.22 623.11 l 1
 140.22 379.29 l 1
 407.58 379.29 l 1
223.67 820.65 m 1
 271.24 820.65 l 1
 377.58 710 l 1
 317.65 710 l 1
 248.29 782.35 l 1
 246.29 782.35 l 1
 177.26 710 l 1
 120 710 l 1
 223.67 820.65 l 1
EndSplineSet
Validated: 1
EndChar

StartChar: Edieresis
Encoding: 203 203 180
Width: 474
Flags: W
HStem: 0 50.89<140.22 438.92> 328.73 50.56<140.22 407.58> 623.11 50.89<140.22 423.25> 724.35 86.26<124.425 196.07 301.031 372.679>
VStem: 80.02 60.2<50.89 328.73 379.29 623.11> 119.03 81.92<729.145 805.351> 295.65 81.92<729.145 805.351>
LayerCount: 2
Fore
SplineSet
407.58 379.29 m 1xfa
 407.58 328.73 l 1
 140.22 328.73 l 1
 140.22 50.89 l 1
 438.92 50.89 l 1
 438.92 0 l 1
 80.02 0 l 1
 80.02 674 l 1
 423.25 674 l 1
 423.25 623.11 l 1
 140.22 623.11 l 1
 140.22 379.29 l 1
 407.58 379.29 l 1xfa
160.32 724.35 m 0
 135.01 724.35 119.03 744 119.03 767.98 c 0
 119.03 790.96 137.01 810.61 160.99 810.61 c 0
 184.97 810.61 200.95 791.29 200.95 767.98 c 0xf6
 200.95 744 185.97 724.35 160.32 724.35 c 0
336.61 724.35 m 0
 311.63 724.35 295.65 744 295.65 767.98 c 0
 295.65 790.96 313.3 810.61 337.28 810.61 c 0
 361.59 810.61 377.57 791.29 377.57 767.98 c 0
 377.57 744 362.59 724.35 336.61 724.35 c 0
EndSplineSet
Validated: 1
EndChar

StartChar: Egrave
Encoding: 200 200 181
Width: 474
Flags: W
HStem: 0 50.89<140.22 438.92> 328.73 50.56<140.22 407.58> 623.11 50.89<140.22 423.25> 710.33 21G<229.277 302.59>
VStem: 80.02 60.2<50.89 328.73 379.29 623.11>
LayerCount: 2
Fore
SplineSet
407.58 379.29 m 1
 407.58 328.73 l 1
 140.22 328.73 l 1
 140.22 50.89 l 1
 438.92 50.89 l 1
 438.92 0 l 1
 80.02 0 l 1
 80.02 674 l 1
 423.25 674 l 1
 423.25 623.11 l 1
 140.22 623.11 l 1
 140.22 379.29 l 1
 407.58 379.29 l 1
122.35 824.32 m 1
 206.24 824.32 l 1
 302.59 710.33 l 1
 252.03 710.33 l 1
 122.35 824.32 l 1
EndSplineSet
Validated: 1
EndChar

StartChar: Iacute
Encoding: 205 205 182
Width: 220
Flags: W
HStem: 0 21G<80.02 140.22> 654 20G<80.02 140.22> 710 21G<66.33 139.305>
VStem: 80.02 60.2<0 674>
LayerCount: 2
Fore
SplineSet
80.02 674 m 1
 140.22 674 l 1
 140.22 0 l 1
 80.02 0 l 1
 80.02 674 l 1
162.35 824.32 m 1
 246.57 824.32 l 1
 116.56 710 l 1
 66.33 710 l 1
 162.35 824.32 l 1
EndSplineSet
Validated: 1
EndChar

StartChar: Icircumflex
Encoding: 206 206 183
Width: 220
Flags: W
HStem: 0 21G<80.02 140.22> 654 20G<80.02 140.22> 710 21G<-17.67 58.4335 160.807 239.58>
VStem: 80.02 60.2<0 674>
LayerCount: 2
Fore
SplineSet
80.02 674 m 1
 140.22 674 l 1
 140.22 0 l 1
 80.02 0 l 1
 80.02 674 l 1
85.67 820.65 m 1
 133.24 820.65 l 1
 239.58 710 l 1
 179.98 710 l 1
 110.62 782.35 l 1
 108.62 782.35 l 1
 39.26 710 l 1
 -17.67 710 l 1
 85.67 820.65 l 1
EndSplineSet
Validated: 1
EndChar

StartChar: Idieresis
Encoding: 207 207 184
Width: 220
Flags: W
HStem: 0 21G<80.02 140.22> 654 20G<80.02 140.22> 724.35 86.26<-13.2553 58.8913 163.351 235.511>
VStem: -18.65 82.59<729.145 805.351> 80.02 60.2<0 674> 157.97 82.59<729.145 805.351>
LayerCount: 2
Fore
SplineSet
80.02 674 m 1
 140.22 674 l 1
 140.22 0 l 1
 80.02 0 l 1
 80.02 674 l 1
22.64 724.35 m 0
 -2.67 724.35 -18.65 744 -18.65 767.98 c 0
 -18.65 790.96 -0.67 810.61 23.31 810.61 c 0
 47.29 810.61 63.94 791.29 63.94 767.98 c 0
 63.94 744 48.29 724.35 22.64 724.35 c 0
198.93 724.35 m 0
 173.95 724.35 157.97 744 157.97 767.98 c 0
 157.97 790.96 175.62 810.61 199.93 810.61 c 0
 223.91 810.61 240.56 791.29 240.56 767.98 c 0
 240.56 744 224.91 724.35 198.93 724.35 c 0
EndSplineSet
Validated: 1
EndChar

StartChar: Igrave
Encoding: 204 204 185
Width: 220
Flags: W
HStem: 0 21G<80.02 140.22> 654 20G<80.02 140.22> 710.33 21G<82.5971 155.58>
VStem: 80.02 60.2<0 674>
LayerCount: 2
Fore
SplineSet
80.02 674 m 1
 140.22 674 l 1
 140.22 0 l 1
 80.02 0 l 1
 80.02 674 l 1
-24.33 824.32 m 1
 60.23 824.32 l 1
 155.58 710.33 l 1
 105.35 710.33 l 1
 -24.33 824.32 l 1
EndSplineSet
Validated: 1
EndChar

StartChar: Ntilde
Encoding: 209 209 186
Width: 644
Flags: W
HStem: 0 21G<80.02 137.9 493.127 565.25> 654 20G<80.02 154.574 506.7 565.25> 721 47.95<324.775 406.34> 759.67 47.28<253.13 329.385>
VStem: 80.02 57.88<0 594.81> 210.67 37.62<715.67 757.462> 409.32 36.62<771.46 806.61> 506.7 58.55<131.491 674>
LayerCount: 2
Fore
SplineSet
137.9 0 m 1xcf
 80.02 0 l 1
 80.02 674 l 1
 141.52 674 l 1
 389.01 294.81 l 2
 441.69 212.46 480.69 146.82 513.36 80.5 c 1
 515.36 81.5 l 1
 508.03 172.17 506.7 250.82 506.7 356.49 c 2
 506.7 674 l 1
 565.25 674 l 1
 565.25 0 l 1
 506.06 0 l 1
 263.25 375.5 l 2
 214.24 452.51 168.57 525.49 133.9 595.81 c 1
 131.57 594.81 l 1
 136.57 511.15 137.9 435.51 137.9 323.51 c 2
 137.9 0 l 1xcf
248.29 715.67 m 1
 210.67 715.67 l 1
 209.34 766.62 233.33 806.95 275.32 806.95 c 0xdf
 295.31 806.95 310.64 798.62 332.31 786.28 c 0
 348.31 777.95 364.98 768.95 381.65 768.95 c 0
 396.65 768.95 406.99 775.28 409.32 806.61 c 1
 445.94 806.61 l 1
 446.27 755 427.62 721 383.63 721 c 0xef
 364.64 721 347.98 728.33 323.97 740.67 c 0
 304.97 750.67 290.3 759.67 275.63 759.67 c 0xdf
 258.29 759.67 250.96 741.33 248.29 715.67 c 1
EndSplineSet
Validated: 33
EndChar

StartChar: Oacute
Encoding: 211 211 187
Width: 676
Flags: W
HStem: -11 50.23<242.988 431.693> 634.77 50.23<244.449 434.154>
VStem: 37.34 63.52<204.781 462.853> 576.08 63.19<208.852 466.37>
LayerCount: 2
Fore
SplineSet
342.97 685 m 0
 517.59 685 639.27 550.03 639.27 344 c 0
 639.27 107.98 495.59 -11 334.31 -11 c 0
 164.35 -11 37.34 122.31 37.34 330.33 c 0
 37.34 549.02 170.34 685 342.97 685 c 0
339.64 634.77 m 0
 177.55 634.77 100.86 486.36 100.86 332.33 c 0
 100.86 182.97 185.56 39.23 337.97 39.23 c 0
 490.71 39.23 576.08 178.29 576.08 340.67 c 0
 576.08 480.03 500.72 634.77 339.64 634.77 c 0
388.02 826.99 m 1
 472.58 826.99 l 1
 342.9 713.67 l 1
 292.34 713.67 l 1
 388.02 826.99 l 1
EndSplineSet
Validated: 1
EndChar

StartChar: Ocircumflex
Encoding: 212 212 188
Width: 676
Flags: W
HStem: -11 50.23<242.988 431.693> 634.77 50.23<244.449 434.154>
VStem: 37.34 63.52<204.781 462.853> 576.08 63.19<208.852 466.37>
LayerCount: 2
Fore
SplineSet
342.97 685 m 0
 517.59 685 639.27 550.03 639.27 344 c 0
 639.27 107.98 495.59 -11 334.31 -11 c 0
 164.35 -11 37.34 122.31 37.34 330.33 c 0
 37.34 549.02 170.34 685 342.97 685 c 0
339.64 634.77 m 0
 177.55 634.77 100.86 486.36 100.86 332.33 c 0
 100.86 182.97 185.56 39.23 337.97 39.23 c 0
 490.71 39.23 576.08 178.29 576.08 340.67 c 0
 576.08 480.03 500.72 634.77 339.64 634.77 c 0
313.35 824.32 m 1
 360.92 824.32 l 1
 467.26 713.67 l 1
 407.33 713.67 l 1
 337.97 785.35 l 1
 335.97 785.35 l 1
 266.94 713.67 l 1
 209.68 713.67 l 1
 313.35 824.32 l 1
EndSplineSet
Validated: 1
EndChar

StartChar: Odieresis
Encoding: 214 214 189
Width: 676
Flags: W
HStem: -11 50.23<242.988 431.693> 634.77 50.23<244.449 434.154> 724.35 86.26<214.334 286.241 390.701 462.861>
VStem: 37.34 63.52<204.781 462.853> 209.03 82.26<729.145 805.351> 385.32 82.59<729.145 805.351> 576.08 63.19<208.852 466.37>
LayerCount: 2
Fore
SplineSet
342.97 685 m 0
 517.59 685 639.27 550.03 639.27 344 c 0
 639.27 107.98 495.59 -11 334.31 -11 c 0
 164.35 -11 37.34 122.31 37.34 330.33 c 0
 37.34 549.02 170.34 685 342.97 685 c 0
339.64 634.77 m 0
 177.55 634.77 100.86 486.36 100.86 332.33 c 0
 100.86 182.97 185.56 39.23 337.97 39.23 c 0
 490.71 39.23 576.08 178.29 576.08 340.67 c 0
 576.08 480.03 500.72 634.77 339.64 634.77 c 0
249.99 724.35 m 0
 224.68 724.35 209.03 744 209.03 767.98 c 0
 209.03 790.96 226.68 810.61 250.66 810.61 c 0
 274.64 810.61 291.29 791.29 291.29 767.98 c 0
 291.29 744 275.64 724.35 249.99 724.35 c 0
426.28 724.35 m 0
 401.3 724.35 385.32 744 385.32 767.98 c 0
 385.32 790.96 402.97 810.61 427.28 810.61 c 0
 451.26 810.61 467.91 791.29 467.91 767.98 c 0
 467.91 744 452.26 724.35 426.28 724.35 c 0
EndSplineSet
Validated: 1
EndChar

StartChar: Ograve
Encoding: 210 210 190
Width: 676
Flags: W
HStem: -11 50.23<242.988 431.693> 634.77 50.23<244.449 434.154>
VStem: 37.34 63.52<204.781 462.853> 576.08 63.19<208.852 466.37>
LayerCount: 2
Fore
SplineSet
342.97 685 m 0
 517.59 685 639.27 550.03 639.27 344 c 0
 639.27 107.98 495.59 -11 334.31 -11 c 0
 164.35 -11 37.34 122.31 37.34 330.33 c 0
 37.34 549.02 170.34 685 342.97 685 c 0
339.64 634.77 m 0
 177.55 634.77 100.86 486.36 100.86 332.33 c 0
 100.86 182.97 185.56 39.23 337.97 39.23 c 0
 490.71 39.23 576.08 178.29 576.08 340.67 c 0
 576.08 480.03 500.72 634.77 339.64 634.77 c 0
203.69 826.99 m 1
 288.58 826.99 l 1
 383.93 713.67 l 1
 333.7 713.67 l 1
 203.69 826.99 l 1
EndSplineSet
Validated: 1
EndChar

StartChar: Otilde
Encoding: 213 213 191
Width: 676
Flags: W
HStem: -11 50.23<242.988 431.693> 634.77 50.23<244.449 434.154> 724.34 47.95<334.108 415.704> 763.01 47.28<262.489 338.239>
VStem: 37.34 63.52<204.781 462.853> 220 37.62<719.01 760.802> 418.65 37.29<774.518 809.95> 576.08 63.19<208.852 466.37>
LayerCount: 2
Fore
SplineSet
342.97 685 m 0xcf
 517.59 685 639.27 550.03 639.27 344 c 0
 639.27 107.98 495.59 -11 334.31 -11 c 0
 164.35 -11 37.34 122.31 37.34 330.33 c 0
 37.34 549.02 170.34 685 342.97 685 c 0xcf
339.64 634.77 m 0
 177.55 634.77 100.86 486.36 100.86 332.33 c 0
 100.86 182.97 185.56 39.23 337.97 39.23 c 0
 490.71 39.23 576.08 178.29 576.08 340.67 c 0
 576.08 480.03 500.72 634.77 339.64 634.77 c 0
257.62 719.01 m 1
 220 719.01 l 1
 219.34 769.96 242.66 810.29 284.65 810.29 c 0xdf
 304.64 810.29 319.97 801.62 342.31 789.62 c 0
 357.64 781.29 374.31 772.29 391.65 772.29 c 0
 405.98 772.29 416.32 778.62 418.65 809.95 c 1
 455.94 809.95 l 1
 456.27 757.67 436.95 724.34 392.96 724.34 c 0xef
 374.64 724.34 357.31 731.67 333.97 743.34 c 0
 314.3 754.01 299.63 763.01 284.96 763.01 c 0xdf
 267.62 763.01 260.29 744.67 257.62 719.01 c 1
EndSplineSet
Validated: 33
EndChar

StartChar: Scaron
Encoding: 352 352 192
Width: 473
Flags: W
HStem: -10 50.56<105.084 303.708> 634.44 50.56<173.579 361.479>
VStem: 58.68 60.53<447.011 584.236> 367.03 60.86<100.61 248.61>
LayerCount: 2
Fore
SplineSet
42 34.34 m 1
 61.32 85.23 l 1
 99.65 59.89 153.97 40.56 211.96 40.56 c 0
 308.33 40.56 367.03 94.26 367.03 172.31 c 0
 367.03 244.02 329.02 285.38 234 322.39 c 0
 124.67 360.72 58.68 417.05 58.68 510.04 c 0
 58.68 611.02 142.33 685 261.94 685 c 0
 326.92 685 375.58 668.33 400.89 652.67 c 1
 380.91 602.44 l 1
 361.59 615.11 317.93 634.44 258.94 634.44 c 0
 155.55 634.44 119.21 569.39 119.21 518.7 c 0
 119.21 447.66 161.55 411.97 257.23 374.63 c 0
 369.22 329.96 427.89 278.31 427.89 177.97 c 0
 427.89 77.99 355.58 -10 206.63 -10 c 0
 146.32 -10 77.33 9 42 34.34 c 1
273.24 713.67 m 1
 225.67 713.67 l 1
 119.33 824.32 l 1
 179.26 824.32 l 1
 249.29 751.64 l 1
 251.29 751.64 l 1
 319.65 824.32 l 1
 376.58 824.32 l 1
 273.24 713.67 l 1
EndSplineSet
Validated: 1
EndChar

StartChar: Uacute
Encoding: 218 218 193
Width: 632
Flags: W
HStem: -11 50.9<230.66 400.249> 654 20G<79.69 140.22 492.71 553.91> 710 21G<278.02 350.995>
VStem: 79.69 60.53<144.143 674> 492.71 61.2<145.581 674>
LayerCount: 2
Fore
SplineSet
79.69 674 m 1
 140.22 674 l 1
 140.22 269.64 l 2
 140.22 105.24 215.93 39.9 312.63 39.9 c 0
 420 39.9 492.71 109.92 492.71 269.64 c 2
 492.71 674 l 1
 553.91 674 l 1
 553.91 274.97 l 2
 553.91 67.97 442.9 -11 309.63 -11 c 0
 185.03 -11 79.69 61.3 79.69 268.29 c 2
 79.69 674 l 1
374.04 824.32 m 1
 458.26 824.32 l 1
 328.25 710 l 1
 278.02 710 l 1
 374.04 824.32 l 1
EndSplineSet
Validated: 1
EndChar

StartChar: Ucircumflex
Encoding: 219 219 194
Width: 632
Flags: W
HStem: -11 50.9<230.66 400.249> 654 20G<79.69 140.22 492.71 553.91> 710 21G<192.33 268.433 370.568 449.58>
VStem: 79.69 60.53<144.143 674> 492.71 61.2<145.581 674>
LayerCount: 2
Fore
SplineSet
79.69 674 m 1
 140.22 674 l 1
 140.22 269.64 l 2
 140.22 105.24 215.93 39.9 312.63 39.9 c 0
 420 39.9 492.71 109.92 492.71 269.64 c 2
 492.71 674 l 1
 553.91 674 l 1
 553.91 274.97 l 2
 553.91 67.97 442.9 -11 309.63 -11 c 0
 185.03 -11 79.69 61.3 79.69 268.29 c 2
 79.69 674 l 1
295.67 820.65 m 1
 343.24 820.65 l 1
 449.58 710 l 1
 389.65 710 l 1
 320.62 782.35 l 1
 318.62 782.35 l 1
 249.26 710 l 1
 192.33 710 l 1
 295.67 820.65 l 1
EndSplineSet
Validated: 1
EndChar

StartChar: Udieresis
Encoding: 220 220 195
Width: 632
Flags: W
HStem: -11 50.9<230.66 400.249> 654 20G<79.69 140.22 492.71 553.91> 724.35 86.26<193.401 264.715 369.944 441.095>
VStem: 79.69 60.53<144.143 674> 188.02 81.92<729.145 805.351> 364.64 81.59<729.145 805.351> 492.71 61.2<145.581 674>
LayerCount: 2
Fore
SplineSet
79.69 674 m 1
 140.22 674 l 1
 140.22 269.64 l 2
 140.22 105.24 215.93 39.9 312.63 39.9 c 0
 420 39.9 492.71 109.92 492.71 269.64 c 2
 492.71 674 l 1
 553.91 674 l 1
 553.91 274.97 l 2
 553.91 67.97 442.9 -11 309.63 -11 c 0
 185.03 -11 79.69 61.3 79.69 268.29 c 2
 79.69 674 l 1
228.98 724.35 m 0
 204 724.35 188.02 744 188.02 767.98 c 0
 188.02 790.96 206 810.61 229.31 810.61 c 0
 252.96 810.61 269.94 791.29 269.94 767.98 c 0
 269.94 744 254.63 724.35 228.98 724.35 c 0
405.6 724.35 m 0
 380.29 724.35 364.64 744 364.64 767.98 c 0
 364.64 790.96 382.29 810.61 405.6 810.61 c 0
 429.58 810.61 446.23 791.29 446.23 767.98 c 0
 446.23 744 431.25 724.35 405.6 724.35 c 0
EndSplineSet
Validated: 1
EndChar

StartChar: Ugrave
Encoding: 217 217 196
Width: 632
Flags: W
HStem: -11 50.9<230.66 400.249> 654 20G<79.69 140.22 492.71 553.91> 710.33 21G<293.395 367.26>
VStem: 79.69 60.53<144.143 674> 492.71 61.2<145.581 674>
LayerCount: 2
Fore
SplineSet
79.69 674 m 1
 140.22 674 l 1
 140.22 269.64 l 2
 140.22 105.24 215.93 39.9 312.63 39.9 c 0
 420 39.9 492.71 109.92 492.71 269.64 c 2
 492.71 674 l 1
 553.91 674 l 1
 553.91 274.97 l 2
 553.91 67.97 442.9 -11 309.63 -11 c 0
 185.03 -11 79.69 61.3 79.69 268.29 c 2
 79.69 674 l 1
187.02 824.32 m 1
 270.91 824.32 l 1
 367.26 710.33 l 1
 316.03 710.33 l 1
 187.02 824.32 l 1
EndSplineSet
Validated: 1
EndChar

StartChar: Yacute
Encoding: 221 221 197
Width: 515
Flags: W
HStem: 0 21G<228.68 289.21> 654 20G<14.34 93.975 436.536 516.55>
VStem: 228.68 60.53<0 289.68>
LayerCount: 2
Fore
SplineSet
289.21 0 m 1
 228.68 0 l 1
 228.68 290.02 l 1
 14.34 674 l 1
 83.19 674 l 1
 188.91 477.95 l 2
 216.25 425.61 239.6 383.27 261.94 334.93 c 1
 263.94 334.93 l 1
 284.28 380.27 309.96 426.28 338.64 478.62 c 2
 447.7 674 l 1
 516.55 674 l 1
 289.21 289.68 l 1
 289.21 0 l 1
320 816.98 m 1
 403.89 816.98 l 1
 274.88 703.66 l 1
 224.32 703.66 l 1
 320 816.98 l 1
EndSplineSet
Validated: 1
EndChar

StartChar: Ydieresis
Encoding: 376 376 198
Width: 515
Flags: W
HStem: 0 21G<228.68 289.21> 654 20G<14.34 93.975 436.536 516.55> 715.34 86.26<143.381 214.455 319.911 391.061>
VStem: 138 81.59<720.135 796.341> 228.68 60.53<0 289.68> 314.62 81.59<719.662 796.341>
LayerCount: 2
Fore
SplineSet
289.21 0 m 1
 228.68 0 l 1
 228.68 290.02 l 1
 14.34 674 l 1
 83.19 674 l 1
 188.91 477.95 l 2
 216.25 425.61 239.6 383.27 261.94 334.93 c 1
 263.94 334.93 l 1
 284.28 380.27 309.96 426.28 338.64 478.62 c 2
 447.7 674 l 1
 516.55 674 l 1
 289.21 289.68 l 1
 289.21 0 l 1
178.96 715.34 m 0
 153.98 715.34 138 734.99 138 758.97 c 0
 138 781.95 155.65 801.6 179.29 801.6 c 0
 202.94 801.6 219.59 782.28 219.59 758.97 c 0
 219.59 734.99 204.61 715.34 178.96 715.34 c 0
355.25 715.34 m 0
 330.27 715.34 314.62 734.99 314.62 758.97 c 0
 314.62 781.95 332.27 801.6 355.58 801.6 c 0
 379.56 801.6 396.21 782.28 396.21 758.97 c 0
 396.21 734.99 381.23 715.34 355.25 715.34 c 0
EndSplineSet
Validated: 1
EndChar

StartChar: Zcaron
Encoding: 381 381 199
Width: 543
Flags: W
HStem: 0 50.89<110.83 511.28> 623.11 50.89<65.35 428.12> 710 21G<241.539 327.008>
LayerCount: 2
Fore
SplineSet
32.68 0 m 1
 32.68 38.27 l 1
 428.12 620.11 l 1
 428.12 623.11 l 1
 65.35 623.11 l 1
 65.35 674 l 1
 506.28 674 l 1
 506.28 635.07 l 1
 110.83 53.89 l 1
 110.83 50.89 l 1
 511.28 50.89 l 1
 511.28 0 l 1
 32.68 0 l 1
308.27 710 m 1
 260.7 710 l 1
 154.69 820.65 l 1
 214.29 820.65 l 1
 284.32 748.3 l 1
 286.32 748.3 l 1
 354.68 820.65 l 1
 411.94 820.65 l 1
 308.27 710 l 1
EndSplineSet
Validated: 1
EndChar

StartChar: aacute
Encoding: 225 225 200
Width: 463
Flags: W
HStem: -11 48.25<130.708 270.18> 0 21G<340.23 397.55> 253.7 46.93<173.021 330.02> 444.07 48.25<113.099 287.165>
VStem: 37.68 62.54<67.5439 195.85> 330.68 59.54<97.0845 253.7 300.63 396.094>
LayerCount: 2
Fore
SplineSet
397.55 0 m 1x7c
 342.34 0 l 1x7c
 335.34 66.36 l 1
 332.34 66.36 l 1
 308.02 29.03 255.35 -11 180.99 -11 c 0xbc
 84.33 -11 37.68 57.33 37.68 123.31 c 0
 37.68 236.29 137.66 302.3 330.02 300.63 c 1
 330.02 311.97 l 2
 330.02 357.33 320.36 444.74 211.31 444.07 c 0
 168.32 444.07 123.33 432.08 89.33 408.07 c 1
 72.68 450.66 l 1
 114.69 478.67 170.01 492.32 218.95 492.32 c 0
 360.92 492.32 390.22 389.31 390.22 299.68 c 2
 390.22 114.66 l 2
 390.22 75.34 392.22 35.68 397.55 0 c 1x7c
330.68 156.97 m 2
 330.68 253.7 l 1
 228.65 256.37 100.22 240.04 100.22 131.97 c 0
 100.22 66.93 143.58 37.25 191.93 37.25 c 0xbc
 266.32 37.25 309.67 83.28 325.68 128.3 c 0
 328.68 137.97 330.68 147.97 330.68 156.97 c 2
272.99 689.65 m 1
 351.9 689.65 l 1
 229.9 550 l 1
 184.32 550 l 1
 272.99 689.65 l 1
EndSplineSet
Validated: 33
EndChar

StartChar: acircumflex
Encoding: 226 226 201
Width: 463
Flags: W
HStem: -11 48.25<130.708 270.18> 0 21G<340.23 397.55> 253.7 46.93<173.021 330.02> 444.07 48.25<113.099 287.165>
VStem: 37.68 62.54<67.5439 195.85> 330.68 59.54<97.0845 253.7 300.63 396.094>
LayerCount: 2
Fore
SplineSet
397.55 0 m 1x7c
 342.34 0 l 1x7c
 335.34 66.36 l 1
 332.34 66.36 l 1
 308.02 29.03 255.35 -11 180.99 -11 c 0xbc
 84.33 -11 37.68 57.33 37.68 123.31 c 0
 37.68 236.29 137.66 302.3 330.02 300.63 c 1
 330.02 311.97 l 2
 330.02 357.33 320.36 444.74 211.31 444.07 c 0
 168.32 444.07 123.33 432.08 89.33 408.07 c 1
 72.68 450.66 l 1
 114.69 478.67 170.01 492.32 218.95 492.32 c 0
 360.92 492.32 390.22 389.31 390.22 299.68 c 2
 390.22 114.66 l 2
 390.22 75.34 392.22 35.68 397.55 0 c 1x7c
330.68 156.97 m 2
 330.68 253.7 l 1
 228.65 256.37 100.22 240.04 100.22 131.97 c 0
 100.22 66.93 143.58 37.25 191.93 37.25 c 0xbc
 266.32 37.25 309.67 83.28 325.68 128.3 c 0
 328.68 137.97 330.68 147.97 330.68 156.97 c 2
203.66 689.65 m 1
 247.91 689.65 l 1
 341.9 550 l 1
 288.3 550 l 1
 226.95 648.35 l 1
 224.95 648.35 l 1
 163.6 550 l 1
 111.67 550 l 1
 203.66 689.65 l 1
EndSplineSet
Validated: 33
EndChar

StartChar: adieresis
Encoding: 228 228 202
Width: 463
Flags: W
HStem: -11 48.25<130.708 270.18> 0 21G<340.23 397.55> 253.7 46.93<173.021 330.02> 444.07 48.25<113.099 287.165> 575.36 85.92<108.175 179.889 283.365 354.839>
VStem: 37.68 62.54<67.5439 195.85> 102.69 82.58<580.323 656.011> 277.97 82.25<580.323 656.011> 330.68 59.54<97.0845 253.7 300.63 396.094>
LayerCount: 2
Fore
SplineSet
397.55 0 m 1x7e80
 342.34 0 l 1x7e80
 335.34 66.36 l 1
 332.34 66.36 l 1
 308.02 29.03 255.35 -11 180.99 -11 c 0xbe80
 84.33 -11 37.68 57.33 37.68 123.31 c 0
 37.68 236.29 137.66 302.3 330.02 300.63 c 1
 330.02 311.97 l 2
 330.02 357.33 320.36 444.74 211.31 444.07 c 0
 168.32 444.07 123.33 432.08 89.33 408.07 c 1
 72.68 450.66 l 1
 114.69 478.67 170.01 492.32 218.95 492.32 c 0
 360.92 492.32 390.22 389.31 390.22 299.68 c 2
 390.22 114.66 l 2
 390.22 75.34 392.22 35.68 397.55 0 c 1x7e80
330.68 156.97 m 2
 330.68 253.7 l 1
 228.65 256.37 100.22 240.04 100.22 131.97 c 0
 100.22 66.93 143.58 37.25 191.93 37.25 c 0xbe80
 266.32 37.25 309.67 83.28 325.68 128.3 c 0
 328.68 137.97 330.68 147.97 330.68 156.97 c 2
144.31 575.36 m 0
 119 575.36 102.69 596.01 102.69 618.32 c 0
 102.69 641.63 121 661.28 144.98 661.28 c 0
 168.29 661.28 185.27 641.96 185.27 618.32 c 0
 185.27 596.01 169.29 575.36 144.31 575.36 c 0
319.26 575.36 m 0
 293.95 575.36 277.97 596.01 277.97 618.32 c 0
 277.97 641.63 295.95 661.28 319.93 661.28 c 0
 343.24 661.28 360.22 641.96 360.22 618.32 c 0x3f
 360.22 596.01 344.24 575.36 319.26 575.36 c 0
EndSplineSet
Validated: 33
EndChar

StartChar: agrave
Encoding: 224 224 203
Width: 463
Flags: W
HStem: -11 48.25<130.708 270.18> 0 21G<340.23 397.55> 253.7 46.93<173.021 330.02> 444.07 48.25<113.099 287.165>
VStem: 37.68 62.54<67.5439 195.85> 330.68 59.54<97.0845 253.7 300.63 396.094>
LayerCount: 2
Fore
SplineSet
397.55 0 m 1x7c
 342.34 0 l 1x7c
 335.34 66.36 l 1
 332.34 66.36 l 1
 308.02 29.03 255.35 -11 180.99 -11 c 0xbc
 84.33 -11 37.68 57.33 37.68 123.31 c 0
 37.68 236.29 137.66 302.3 330.02 300.63 c 1
 330.02 311.97 l 2
 330.02 357.33 320.36 444.74 211.31 444.07 c 0
 168.32 444.07 123.33 432.08 89.33 408.07 c 1
 72.68 450.66 l 1
 114.69 478.67 170.01 492.32 218.95 492.32 c 0
 360.92 492.32 390.22 389.31 390.22 299.68 c 2
 390.22 114.66 l 2
 390.22 75.34 392.22 35.68 397.55 0 c 1x7c
330.68 156.97 m 2
 330.68 253.7 l 1
 228.65 256.37 100.22 240.04 100.22 131.97 c 0
 100.22 66.93 143.58 37.25 191.93 37.25 c 0xbc
 266.32 37.25 309.67 83.28 325.68 128.3 c 0
 328.68 137.97 330.68 147.97 330.68 156.97 c 2
92.99 689.65 m 1
 171.23 689.65 l 1
 259.57 550 l 1
 214.99 550 l 1
 92.99 689.65 l 1
EndSplineSet
Validated: 33
EndChar

StartChar: aring
Encoding: 229 229 204
Width: 463
Flags: W
HStem: -11 48.25<130.708 270.18> 0 21G<340.23 397.55> 253.7 46.93<173.021 330.02> 444.07 48.25<113.099 287.165> 536.33 32.31<193.672 266.131> 685 32.64<193.037 266.541>
VStem: 37.68 62.54<67.5439 195.85> 134.31 42.96<580.406 673.918> 282.96 40.96<581.784 672.257> 330.68 59.54<97.0845 253.7 300.63 396.094>
LayerCount: 2
Fore
SplineSet
397.55 0 m 1x7fc0
 342.34 0 l 1x7fc0
 335.34 66.36 l 1
 332.34 66.36 l 1
 308.02 29.03 255.35 -11 180.99 -11 c 0xbfc0
 84.33 -11 37.68 57.33 37.68 123.31 c 0
 37.68 236.29 137.66 302.3 330.02 300.63 c 1
 330.02 311.97 l 2
 330.02 357.33 320.36 444.74 211.31 444.07 c 0
 168.32 444.07 123.33 432.08 89.33 408.07 c 1
 72.68 450.66 l 1
 114.69 478.67 170.01 492.32 218.95 492.32 c 0
 360.92 492.32 390.22 389.31 390.22 299.68 c 2
 390.22 114.66 l 2
 390.22 75.34 392.22 35.68 397.55 0 c 1x7fc0
330.68 156.97 m 2
 330.68 253.7 l 1
 228.65 256.37 100.22 240.04 100.22 131.97 c 0
 100.22 66.93 143.58 37.25 191.93 37.25 c 0xbfc0
 266.32 37.25 309.67 83.28 325.68 128.3 c 0
 328.68 137.97 330.68 147.97 330.68 156.97 c 2
229.95 536.33 m 0
 174.64 536.33 134.31 575.66 134.31 625.32 c 0
 134.31 676.31 172.64 717.64 230.95 717.64 c 0
 284.92 717.64 323.92 677.31 323.92 625.65 c 0
 323.92 574.66 280.92 536.33 229.95 536.33 c 0
228.95 568.64 m 0
 260.95 568.64 282.96 595.31 282.96 626.65 c 0
 282.96 659.33 260.95 685 228.28 685 c 0
 196.61 685 177.27 657.66 177.27 625.32 c 0
 177.27 597.31 198.61 568.64 228.95 568.64 c 0
EndSplineSet
Validated: 33
EndChar

StartChar: atilde
Encoding: 227 227 205
Width: 463
Flags: W
HStem: -11 48.25<130.708 270.18> 0 21G<340.23 397.55> 253.7 46.93<173.021 330.02> 444.07 48.25<113.099 287.165> 577.35 47.95<227.875 305.841> 616.02 47.61<158.682 231.904>
VStem: 37.68 62.54<67.5439 195.85> 115.67 37.95<571.02 613.704> 308.97 37.29<627.164 666.96> 330.68 59.54<97.0845 253.7 300.63 396.094>
LayerCount: 2
Fore
SplineSet
397.55 0 m 1x7340
 342.34 0 l 1x7340
 335.34 66.36 l 1
 332.34 66.36 l 1
 308.02 29.03 255.35 -11 180.99 -11 c 0xb340
 84.33 -11 37.68 57.33 37.68 123.31 c 0
 37.68 236.29 137.66 302.3 330.02 300.63 c 1
 330.02 311.97 l 2
 330.02 357.33 320.36 444.74 211.31 444.07 c 0
 168.32 444.07 123.33 432.08 89.33 408.07 c 1
 72.68 450.66 l 1
 114.69 478.67 170.01 492.32 218.95 492.32 c 0
 360.92 492.32 390.22 389.31 390.22 299.68 c 2
 390.22 114.66 l 2
 390.22 75.34 392.22 35.68 397.55 0 c 1x7340
330.68 156.97 m 2
 330.68 253.7 l 1
 228.65 256.37 100.22 240.04 100.22 131.97 c 0
 100.22 66.93 143.58 37.25 191.93 37.25 c 0xb340
 266.32 37.25 309.67 83.28 325.68 128.3 c 0
 328.68 137.97 330.68 147.97 330.68 156.97 c 2
153.62 571.02 m 1
 115.67 571.02 l 1
 114.34 627.98 138.66 663.63 178.31 663.63 c 0x3780
 198.3 663.63 213.96 654.63 238.97 640.96 c 0
 254.97 632.63 268.3 625.3 280.97 625.3 c 0
 296.3 625.3 306.64 634.3 308.97 666.96 c 1
 346.26 666.96 l 1
 346.92 610.68 327.94 577.35 283.62 577.35 c 0x3b80
 264.63 577.35 246.3 586.35 225.97 597.35 c 0
 204.63 609.35 192.96 616.02 180.96 616.02 c 0x3780
 164.29 616.02 156.29 597.68 153.62 571.02 c 1
EndSplineSet
Validated: 33
EndChar

StartChar: ccedilla
Encoding: 231 231 206
Width: 446
Flags: W
HStem: -198.66 39.64<171.265 272.833> -10 50.57<282.95 390.207> 441.42 50.57<200.228 389.716>
VStem: 40.01 61.53<138.572 338.972> 276.33 47.27<-154.443 -94.7227>
LayerCount: 2
Fore
SplineSet
400.32 66.58 m 1
 413.98 20.01 l 1
 393.65 9.01 346.31 -8.67 282.95 -10 c 1
 254.94 -52.68 l 1
 291.27 -57.68 323.6 -83.01 323.6 -120.34 c 0
 323.6 -176.66 278.62 -198.66 226.3 -198.66 c 0
 205.32 -198.66 179.32 -191.66 163.66 -182.33 c 1
 176.65 -145.36 l 1
 191.98 -154.69 211.31 -159.02 230.65 -159.02 c 0
 253.99 -159.02 277 -150.35 276.33 -125.01 c 0
 275.33 -95.66 241.98 -85 198.33 -81 c 1
 241.67 -8 l 1
 119.01 5.99 40.01 101.33 40.01 235.66 c 0
 40.01 386.67 143.35 491.99 291.97 491.99 c 0
 348.66 491.99 396 476.31 416.65 463.64 c 1
 398.66 415.07 l 1
 375.65 427.74 339.97 441.42 288.62 441.42 c 0
 165.56 441.42 101.54 348.03 101.54 238.99 c 0
 101.54 118.28 178.23 40.57 284.28 40.57 c 0
 338.97 40.57 374.65 55.58 400.32 66.58 c 1
EndSplineSet
Validated: 33
EndChar

StartChar: eacute
Encoding: 233 233 207
Width: 490
Flags: W
HStem: -10 49.91<187.647 399.648> 238.73 46.25<101.56 389.38> 445.4 46.92<179.573 329.059>
VStem: 40.01 59.21<133.999 238.73 284.98 349.912> 389.38 61.55<284.98 379.283>
LayerCount: 2
Fore
SplineSet
448.6 238.73 m 1
 99.22 238.73 l 1
 99.88 96.28 181.24 39.91 276.61 39.91 c 0
 344.3 39.91 380.96 52.92 409.94 66.25 c 1
 422.93 20 l 1
 400.64 8.68 350.32 -10 268.63 -10 c 0
 127 -10 40.01 89.34 40.01 231.99 c 0
 40.01 387.37 130.03 492.32 259.64 492.32 c 0
 416.97 492.32 450.93 347.29 450.93 271.69 c 0
 450.93 257.04 450.27 247.06 448.6 238.73 c 1
101.56 284.98 m 1
 389.38 284.98 l 1
 390.38 348.35 363.7 445.4 253.31 445.4 c 0
 152.92 445.4 109.23 354.69 101.56 284.98 c 1
305.34 689.65 m 1
 384.25 689.65 l 1
 262.25 550 l 1
 216.67 550 l 1
 305.34 689.65 l 1
EndSplineSet
Validated: 33
EndChar

StartChar: ecircumflex
Encoding: 234 234 208
Width: 490
Flags: W
HStem: -10 49.91<187.647 399.648> 238.73 46.25<101.56 389.38> 445.4 46.92<179.573 329.059>
VStem: 40.01 59.21<133.999 238.73 284.98 349.912> 389.38 61.55<284.98 379.283>
LayerCount: 2
Fore
SplineSet
448.6 238.73 m 1
 99.22 238.73 l 1
 99.88 96.28 181.24 39.91 276.61 39.91 c 0
 344.3 39.91 380.96 52.92 409.94 66.25 c 1
 422.93 20 l 1
 400.64 8.68 350.32 -10 268.63 -10 c 0
 127 -10 40.01 89.34 40.01 231.99 c 0
 40.01 387.37 130.03 492.32 259.64 492.32 c 0
 416.97 492.32 450.93 347.29 450.93 271.69 c 0
 450.93 257.04 450.27 247.06 448.6 238.73 c 1
101.56 284.98 m 1
 389.38 284.98 l 1
 390.38 348.35 363.7 445.4 253.31 445.4 c 0
 152.92 445.4 109.23 354.69 101.56 284.98 c 1
234.68 689.65 m 1
 278.6 689.65 l 1
 373.26 550 l 1
 318.99 550 l 1
 257.64 648.35 l 1
 255.64 648.35 l 1
 194.29 550 l 1
 143.03 550 l 1
 234.68 689.65 l 1
EndSplineSet
Validated: 33
EndChar

StartChar: edieresis
Encoding: 235 235 209
Width: 490
Flags: W
HStem: -10 49.91<187.647 399.648> 238.73 46.25<101.56 389.38> 445.4 46.92<179.573 329.059> 575.36 85.92<139.865 211.579 315.055 386.529>
VStem: 40.01 59.21<133.999 238.73 284.98 349.912> 134.38 82.58<580.323 656.011> 309.66 82.25<580.323 656.011> 389.38 61.55<284.98 379.283>
LayerCount: 2
Fore
SplineSet
448.6 238.73 m 1xfd
 99.22 238.73 l 1
 99.88 96.28 181.24 39.91 276.61 39.91 c 0
 344.3 39.91 380.96 52.92 409.94 66.25 c 1
 422.93 20 l 1
 400.64 8.68 350.32 -10 268.63 -10 c 0
 127 -10 40.01 89.34 40.01 231.99 c 0
 40.01 387.37 130.03 492.32 259.64 492.32 c 0
 416.97 492.32 450.93 347.29 450.93 271.69 c 0
 450.93 257.04 450.27 247.06 448.6 238.73 c 1xfd
101.56 284.98 m 1
 389.38 284.98 l 1
 390.38 348.35 363.7 445.4 253.31 445.4 c 0
 152.92 445.4 109.23 354.69 101.56 284.98 c 1
176 575.36 m 0
 150.69 575.36 134.38 596.01 134.38 618.32 c 0
 134.38 641.63 152.69 661.28 176.67 661.28 c 0
 199.98 661.28 216.96 641.96 216.96 618.32 c 0
 216.96 596.01 200.98 575.36 176 575.36 c 0
350.95 575.36 m 0
 325.64 575.36 309.66 596.01 309.66 618.32 c 0
 309.66 641.63 327.64 661.28 351.62 661.28 c 0
 374.93 661.28 391.91 641.96 391.91 618.32 c 0xfe
 391.91 596.01 375.93 575.36 350.95 575.36 c 0
EndSplineSet
Validated: 33
EndChar

StartChar: egrave
Encoding: 232 232 210
Width: 490
Flags: W
HStem: -10 49.91<187.647 399.648> 238.73 46.25<101.56 389.38> 445.4 46.92<179.573 329.059>
VStem: 40.01 59.21<133.999 238.73 284.98 349.912> 389.38 61.55<284.98 379.283>
LayerCount: 2
Fore
SplineSet
448.6 238.73 m 1
 99.22 238.73 l 1
 99.88 96.28 181.24 39.91 276.61 39.91 c 0
 344.3 39.91 380.96 52.92 409.94 66.25 c 1
 422.93 20 l 1
 400.64 8.68 350.32 -10 268.63 -10 c 0
 127 -10 40.01 89.34 40.01 231.99 c 0
 40.01 387.37 130.03 492.32 259.64 492.32 c 0
 416.97 492.32 450.93 347.29 450.93 271.69 c 0
 450.93 257.04 450.27 247.06 448.6 238.73 c 1
101.56 284.98 m 1
 389.38 284.98 l 1
 390.38 348.35 363.7 445.4 253.31 445.4 c 0
 152.92 445.4 109.23 354.69 101.56 284.98 c 1
141.7 689.65 m 1
 220.61 689.65 l 1
 308.61 550 l 1
 263.7 550 l 1
 141.7 689.65 l 1
EndSplineSet
Validated: 33
EndChar

StartChar: iacute
Encoding: 237 237 211
Width: 217
Flags: W
HStem: 0 21G<78.36 138.89> 461.32 20G<78.36 138.89>
VStem: 78.36 60.53<0 481.32>
LayerCount: 2
Fore
SplineSet
138.89 0 m 1
 78.36 0 l 1
 78.36 481.32 l 1
 138.89 481.32 l 1
 138.89 0 l 1
154.33 689.65 m 1
 233.24 689.65 l 1
 111.24 550 l 1
 65.66 550 l 1
 154.33 689.65 l 1
EndSplineSet
Validated: 1
EndChar

StartChar: icircumflex
Encoding: 238 238 212
Width: 217
Flags: W
HStem: 0 21G<78.36 138.89> 461.32 20G<78.36 138.89>
VStem: 78.36 60.53<0 481.32>
LayerCount: 2
Fore
SplineSet
138.89 0 m 1
 78.36 0 l 1
 78.36 481.32 l 1
 138.89 481.32 l 1
 138.89 0 l 1
86 689.65 m 1
 129.58 689.65 l 1
 224.24 550 l 1
 169.64 550 l 1
 108.96 648.35 l 1
 106.96 648.35 l 1
 45.61 550 l 1
 -5.99 550 l 1
 86 689.65 l 1
EndSplineSet
Validated: 1
EndChar

StartChar: idieresis
Encoding: 239 239 213
Width: 217
Flags: W
HStem: 0 21G<78.36 138.89> 461.32 20G<78.36 138.89> 575.36 85.92<-14.4852 57.2287 160.705 232.179>
VStem: -19.97 82.58<580.323 656.011> 78.36 60.53<0 481.32> 155.31 82.25<580.323 656.011>
LayerCount: 2
Fore
SplineSet
138.89 0 m 1
 78.36 0 l 1
 78.36 481.32 l 1
 138.89 481.32 l 1
 138.89 0 l 1
21.65 575.36 m 0
 -3.66 575.36 -19.97 596.01 -19.97 618.32 c 0
 -19.97 641.63 -1.66 661.28 22.32 661.28 c 0
 45.63 661.28 62.61 641.96 62.61 618.32 c 0
 62.61 596.01 46.63 575.36 21.65 575.36 c 0
196.6 575.36 m 0
 171.29 575.36 155.31 596.01 155.31 618.32 c 0
 155.31 641.63 173.29 661.28 197.27 661.28 c 0
 220.58 661.28 237.56 641.96 237.56 618.32 c 0
 237.56 596.01 221.58 575.36 196.6 575.36 c 0
EndSplineSet
Validated: 1
EndChar

StartChar: igrave
Encoding: 236 236 214
Width: 217
Flags: W
HStem: 0 21G<78.36 138.89> 461.32 20G<78.36 138.89>
VStem: 78.36 60.53<0 481.32>
LayerCount: 2
Fore
SplineSet
138.89 0 m 1
 78.36 0 l 1
 78.36 481.32 l 1
 138.89 481.32 l 1
 138.89 0 l 1
-26.66 689.65 m 1
 52.25 689.65 l 1
 140.92 550 l 1
 95.67 550 l 1
 -26.66 689.65 l 1
EndSplineSet
Validated: 1
EndChar

StartChar: ntilde
Encoding: 241 241 215
Width: 542
Flags: W
HStem: 0 21G<78.36 138.89 407.05 467.58> 440.76 51.56<210.163 354.612> 461.32 20G<74.36 130.603> 577.35 47.95<268.545 346.582> 616.02 47.61<199.352 272.574>
VStem: 74.36 55.22<396.63 481.32> 78.36 60.53<0 370.757> 156.34 37.95<571.02 613.704> 349.64 37.62<627.164 666.96> 407.05 60.53<0 378.025>
LayerCount: 2
Fore
SplineSet
78.36 0 m 1xc3c0
 78.36 361.04 l 2xc3c0
 78.36 407.02 76.69 442.66 74.36 481.32 c 1
 129.58 481.32 l 1xa5c0
 133.91 396.63 l 1
 135.91 396.63 l 1
 161.25 447.99 219.93 492.32 299.26 492.32 c 0
 352.19 492.32 467.58 463.71 467.58 288.33 c 2
 467.58 0 l 1
 407.05 0 l 1
 407.05 282.35 l 2
 407.05 366.38 374.7 440.76 280.98 440.76 c 0
 216.28 440.76 163.24 395.07 145.56 337.36 c 0
 141.56 325.69 138.89 310.02 138.89 295.02 c 2
 138.89 0 l 1
 78.36 0 l 1xc3c0
194.29 571.02 m 1
 156.34 571.02 l 1
 155.01 627.98 179.33 663.63 218.98 663.63 c 0x89c0
 238.97 663.63 254.63 654.63 279.64 640.96 c 0
 295.64 632.63 308.97 625.3 321.64 625.3 c 0
 336.97 625.3 347.64 634.3 349.64 666.96 c 1
 387.26 666.96 l 1
 387.59 610.68 368.61 577.35 324.29 577.35 c 0x91c0
 305.3 577.35 286.97 586.35 266.64 597.35 c 0
 245.3 609.35 233.63 616.02 221.63 616.02 c 0x89c0
 204.96 616.02 196.96 597.68 194.29 571.02 c 1
EndSplineSet
Validated: 33
EndChar

StartChar: oacute
Encoding: 243 243 216
Width: 537
Flags: W
HStem: -11 48.58<190.933 343.322> 444.41 47.91<189.403 348.812>
VStem: 40.01 61.53<138.694 344.875> 435.74 61.86<139.996 342.234>
LayerCount: 2
Fore
SplineSet
271.3 492.32 m 0
 406.28 492.32 497.6 392.66 497.6 245.33 c 0
 497.6 65.66 374.27 -11 263.97 -11 c 0
 137.66 -11 40.01 85.67 40.01 236.66 c 0
 40.01 400.67 147.35 492.32 271.3 492.32 c 0
269.97 444.41 m 0
 153.91 444.41 101.54 339.03 101.54 239.66 c 0
 101.54 124.28 173.26 37.58 267.3 37.58 c 0
 362.02 37.58 435.74 123.95 435.74 242.33 c 0
 435.74 328.35 388.71 444.41 269.97 444.41 c 0
309.67 689.65 m 1
 388.58 689.65 l 1
 266.58 550 l 1
 221 550 l 1
 309.67 689.65 l 1
EndSplineSet
Validated: 1
EndChar

StartChar: ocircumflex
Encoding: 244 244 217
Width: 537
Flags: W
HStem: -11 48.58<190.933 343.322> 444.41 47.91<189.403 348.812>
VStem: 40.01 61.53<138.694 344.875> 435.74 61.86<139.996 342.234>
LayerCount: 2
Fore
SplineSet
271.3 492.32 m 0
 406.28 492.32 497.6 392.66 497.6 245.33 c 0
 497.6 65.66 374.27 -11 263.97 -11 c 0
 137.66 -11 40.01 85.67 40.01 236.66 c 0
 40.01 400.67 147.35 492.32 271.3 492.32 c 0
269.97 444.41 m 0
 153.91 444.41 101.54 339.03 101.54 239.66 c 0
 101.54 124.28 173.26 37.58 267.3 37.58 c 0
 362.02 37.58 435.74 123.95 435.74 242.33 c 0
 435.74 328.35 388.71 444.41 269.97 444.41 c 0
245.01 689.65 m 1
 289.26 689.65 l 1
 383.92 550 l 1
 329.32 550 l 1
 267.97 648.35 l 1
 265.97 648.35 l 1
 204.62 550 l 1
 153.69 550 l 1
 245.01 689.65 l 1
EndSplineSet
Validated: 1
EndChar

StartChar: odieresis
Encoding: 246 246 218
Width: 537
Flags: W
HStem: -11 48.58<190.933 343.322> 444.41 47.91<189.403 348.812> 575.36 85.92<145.195 216.909 320.385 391.859>
VStem: 40.01 61.53<138.694 344.875> 139.71 82.58<580.323 656.011> 314.99 82.25<580.323 656.011> 435.74 61.86<139.996 342.234>
LayerCount: 2
Fore
SplineSet
271.3 492.32 m 0
 406.28 492.32 497.6 392.66 497.6 245.33 c 0
 497.6 65.66 374.27 -11 263.97 -11 c 0
 137.66 -11 40.01 85.67 40.01 236.66 c 0
 40.01 400.67 147.35 492.32 271.3 492.32 c 0
269.97 444.41 m 0
 153.91 444.41 101.54 339.03 101.54 239.66 c 0
 101.54 124.28 173.26 37.58 267.3 37.58 c 0
 362.02 37.58 435.74 123.95 435.74 242.33 c 0
 435.74 328.35 388.71 444.41 269.97 444.41 c 0
181.33 575.36 m 0
 156.02 575.36 139.71 596.01 139.71 618.32 c 0
 139.71 641.63 158.02 661.28 182 661.28 c 0
 205.31 661.28 222.29 641.96 222.29 618.32 c 0
 222.29 596.01 206.31 575.36 181.33 575.36 c 0
356.28 575.36 m 0
 330.97 575.36 314.99 596.01 314.99 618.32 c 0
 314.99 641.63 332.97 661.28 356.95 661.28 c 0
 380.26 661.28 397.24 641.96 397.24 618.32 c 0
 397.24 596.01 381.26 575.36 356.28 575.36 c 0
EndSplineSet
Validated: 1
EndChar

StartChar: ograve
Encoding: 242 242 219
Width: 537
Flags: W
HStem: -11 48.58<190.933 343.322> 444.41 47.91<189.403 348.812>
VStem: 40.01 61.53<138.694 344.875> 435.74 61.86<139.996 342.234>
LayerCount: 2
Fore
SplineSet
271.3 492.32 m 0
 406.28 492.32 497.6 392.66 497.6 245.33 c 0
 497.6 65.66 374.27 -11 263.97 -11 c 0
 137.66 -11 40.01 85.67 40.01 236.66 c 0
 40.01 400.67 147.35 492.32 271.3 492.32 c 0
269.97 444.41 m 0
 153.91 444.41 101.54 339.03 101.54 239.66 c 0
 101.54 124.28 173.26 37.58 267.3 37.58 c 0
 362.02 37.58 435.74 123.95 435.74 242.33 c 0
 435.74 328.35 388.71 444.41 269.97 444.41 c 0
150.36 689.65 m 1
 228.6 689.65 l 1
 316.94 550 l 1
 272.36 550 l 1
 150.36 689.65 l 1
EndSplineSet
Validated: 1
EndChar

StartChar: otilde
Encoding: 245 245 220
Width: 537
Flags: W
HStem: -11 48.58<190.933 343.322> 444.41 47.91<189.403 348.812> 577.35 47.95<265.885 343.922> 616.02 47.61<196.692 269.914>
VStem: 40.01 61.53<138.694 344.875> 153.68 37.95<571.02 613.704> 346.98 37.62<627.164 666.96> 435.74 61.86<139.996 342.234>
LayerCount: 2
Fore
SplineSet
271.3 492.32 m 0xcf
 406.28 492.32 497.6 392.66 497.6 245.33 c 0
 497.6 65.66 374.27 -11 263.97 -11 c 0
 137.66 -11 40.01 85.67 40.01 236.66 c 0
 40.01 400.67 147.35 492.32 271.3 492.32 c 0xcf
269.97 444.41 m 0
 153.91 444.41 101.54 339.03 101.54 239.66 c 0
 101.54 124.28 173.26 37.58 267.3 37.58 c 0
 362.02 37.58 435.74 123.95 435.74 242.33 c 0
 435.74 328.35 388.71 444.41 269.97 444.41 c 0
191.63 571.02 m 1
 153.68 571.02 l 1
 152.35 627.98 176.67 663.63 216.32 663.63 c 0xdf
 236.31 663.63 251.97 654.63 276.98 640.96 c 0
 292.98 632.63 306.31 625.3 318.98 625.3 c 0
 334.31 625.3 344.98 634.3 346.98 666.96 c 1
 384.6 666.96 l 1
 384.93 610.68 365.95 577.35 321.63 577.35 c 0xef
 302.64 577.35 284.31 586.35 263.98 597.35 c 0
 242.64 609.35 230.97 616.02 218.97 616.02 c 0xdf
 202.3 616.02 194.3 597.68 191.63 571.02 c 1
EndSplineSet
Validated: 33
EndChar

StartChar: scaron
Encoding: 353 353 221
Width: 380
Flags: W
HStem: -10 48.25<83.5071 246.549> 443.74 48.58<140.84 289.873>
VStem: 56.35 59.21<314.793 418.835> 277.7 59.54<68.61 181.12>
LayerCount: 2
Fore
SplineSet
42.35 23 m 1
 61 71.91 l 1
 87 55.58 128.31 38.25 171.64 38.25 c 0
 243.68 38.25 277.7 76.28 277.7 122.98 c 0
 277.7 172.35 248.01 198.7 180.33 225.38 c 0
 98.69 255.71 56.35 300.36 56.35 358.36 c 0
 56.35 430.33 113.32 492.32 210.62 492.32 c 0
 256.27 492.32 295.25 478.99 320.91 462.32 c 1
 300.92 415.07 l 1
 283.93 427.07 251.61 443.74 204.6 443.74 c 0
 146.57 443.74 115.56 407.71 115.56 366.35 c 0
 115.56 319.65 147.91 298.97 212.25 272.96 c 0
 292.23 242.3 337.24 202.31 337.24 129.64 c 0
 337.24 46.65 272.58 -10 168.97 -10 c 0
 119.99 -10 75.01 3 42.35 23 c 1
219.59 550 m 1
 172.34 550 l 1
 78.35 689.65 l 1
 132.28 689.65 l 1
 195.3 591.3 l 1
 197.3 591.3 l 1
 259.65 689.65 l 1
 311.58 689.65 l 1
 219.59 550 l 1
EndSplineSet
Validated: 1
EndChar

StartChar: uacute
Encoding: 250 250 222
Width: 537
Flags: W
HStem: -11 52.23<185.742 327.773> 0 21G<407.138 463.24> 461.32 20G<74.69 135.22 398.71 459.24>
VStem: 74.69 60.53<98.1415 481.32> 398.71 60.53<20.5989 83.02 109.526 481.32> 408.02 55.22<0 83.02>
LayerCount: 2
Fore
SplineSet
459.24 481.32 m 1xb8
 459.24 121.95 l 2xb8
 459.24 77.31 460.91 37.33 463.24 0 c 1
 408.02 0 l 1x74
 404.36 83.02 l 1
 402.36 83.02 l 1
 378.69 40.67 325.01 -11 239.01 -11 c 0
 173.06 -11 74.69 22.96 74.69 201 c 2
 74.69 481.32 l 1
 135.22 481.32 l 1
 135.22 211.98 l 2
 135.22 111.94 166.57 41.23 256.62 41.23 c 0
 322.99 41.23 370.69 87.59 389.37 132.62 c 0
 394.37 146.96 398.71 164.97 398.71 182.98 c 2
 398.71 481.32 l 1
 459.24 481.32 l 1xb8
323.01 689.65 m 1
 401.92 689.65 l 1
 279.92 550 l 1
 234.34 550 l 1
 323.01 689.65 l 1
EndSplineSet
Validated: 1
EndChar

StartChar: ucircumflex
Encoding: 251 251 223
Width: 537
Flags: W
HStem: -11 52.23<185.742 327.773> 0 21G<407.138 463.24> 461.32 20G<74.69 135.22 398.71 459.24>
VStem: 74.69 60.53<98.1415 481.32> 398.71 60.53<20.5989 83.02 109.526 481.32> 408.02 55.22<0 83.02>
LayerCount: 2
Fore
SplineSet
459.24 481.32 m 1xb8
 459.24 121.95 l 2xb8
 459.24 77.31 460.91 37.33 463.24 0 c 1
 408.02 0 l 1x74
 404.36 83.02 l 1
 402.36 83.02 l 1
 378.69 40.67 325.01 -11 239.01 -11 c 0
 173.06 -11 74.69 22.96 74.69 201 c 2
 74.69 481.32 l 1
 135.22 481.32 l 1
 135.22 211.98 l 2
 135.22 111.94 166.57 41.23 256.62 41.23 c 0
 322.99 41.23 370.69 87.59 389.37 132.62 c 0
 394.37 146.96 398.71 164.97 398.71 182.98 c 2
 398.71 481.32 l 1
 459.24 481.32 l 1xb8
245.34 689.65 m 1
 289.59 689.65 l 1
 383.58 550 l 1
 329.98 550 l 1
 268.63 648.35 l 1
 266.63 648.35 l 1
 205.28 550 l 1
 153.35 550 l 1
 245.34 689.65 l 1
EndSplineSet
Validated: 1
EndChar

StartChar: udieresis
Encoding: 252 252 224
Width: 537
Flags: W
HStem: -11 52.23<185.742 327.773> 0 21G<407.138 463.24> 461.32 20G<74.69 135.22 398.71 459.24> 575.36 85.92<147.855 219.569 323.045 394.519>
VStem: 74.69 60.53<98.1415 481.32> 142.37 82.58<580.323 656.011> 317.65 82.25<580.323 656.011> 398.71 60.53<20.5989 83.02 109.526 481.32> 408.02 55.22<0 83.02>
LayerCount: 2
Fore
SplineSet
459.24 481.32 m 1xbd
 459.24 121.95 l 2xbd
 459.24 77.31 460.91 37.33 463.24 0 c 1
 408.02 0 l 1x7c80
 404.36 83.02 l 1
 402.36 83.02 l 1
 378.69 40.67 325.01 -11 239.01 -11 c 0
 173.06 -11 74.69 22.96 74.69 201 c 2
 74.69 481.32 l 1
 135.22 481.32 l 1
 135.22 211.98 l 2
 135.22 111.94 166.57 41.23 256.62 41.23 c 0
 322.99 41.23 370.69 87.59 389.37 132.62 c 0
 394.37 146.96 398.71 164.97 398.71 182.98 c 2
 398.71 481.32 l 1
 459.24 481.32 l 1xbd
183.99 575.36 m 0
 158.68 575.36 142.37 596.01 142.37 618.32 c 0
 142.37 641.63 160.68 661.28 184.66 661.28 c 0
 207.97 661.28 224.95 641.96 224.95 618.32 c 0
 224.95 596.01 208.97 575.36 183.99 575.36 c 0
358.94 575.36 m 0
 333.63 575.36 317.65 596.01 317.65 618.32 c 0
 317.65 641.63 335.63 661.28 359.61 661.28 c 0
 382.92 661.28 399.9 641.96 399.9 618.32 c 0x3e
 399.9 596.01 383.92 575.36 358.94 575.36 c 0
EndSplineSet
Validated: 1
EndChar

StartChar: ugrave
Encoding: 249 249 225
Width: 537
Flags: W
HStem: -11 52.23<185.742 327.773> 0 21G<407.138 463.24> 461.32 20G<74.69 135.22 398.71 459.24>
VStem: 74.69 60.53<98.1415 481.32> 398.71 60.53<20.5989 83.02 109.526 481.32> 408.02 55.22<0 83.02>
LayerCount: 2
Fore
SplineSet
459.24 481.32 m 1xb8
 459.24 121.95 l 2xb8
 459.24 77.31 460.91 37.33 463.24 0 c 1
 408.02 0 l 1x74
 404.36 83.02 l 1
 402.36 83.02 l 1
 378.69 40.67 325.01 -11 239.01 -11 c 0
 173.06 -11 74.69 22.96 74.69 201 c 2
 74.69 481.32 l 1
 135.22 481.32 l 1
 135.22 211.98 l 2
 135.22 111.94 166.57 41.23 256.62 41.23 c 0
 322.99 41.23 370.69 87.59 389.37 132.62 c 0
 394.37 146.96 398.71 164.97 398.71 182.98 c 2
 398.71 481.32 l 1
 459.24 481.32 l 1xb8
144.02 689.65 m 1
 222.26 689.65 l 1
 310.93 550 l 1
 266.02 550 l 1
 144.02 689.65 l 1
EndSplineSet
Validated: 1
EndChar

StartChar: yacute
Encoding: 253 253 226
Width: 450
Flags: W
HStem: 461.32 20G<10.34 84.0257 369.073 441.22>
LayerCount: 2
Fore
SplineSet
10.34 481.32 m 1
 76.19 481.32 l 1
 195.59 176.56 l 2
 207.93 143.22 220.6 105.22 229.27 74.88 c 1
 231.27 74.88 l 1
 240.94 104.55 252.28 141.55 266.29 179.23 c 2
 376.36 481.32 l 1
 441.22 481.32 l 1
 301.18 127.61 l 2
 241.53 -27 199.87 -114.68 137.86 -168.69 c 0
 98.21 -202.67 61.24 -217 45.94 -221 c 1
 28.63 -169.78 l 1
 51.97 -161.44 82.98 -145.43 110.32 -119.41 c 0
 134.32 -97.73 165.66 -59.71 188.34 -6.67 c 0
 192.34 3.67 194.67 9.33 194.67 14.33 c 0
 194.67 19.33 192.67 25.66 188.67 35.99 c 2
 10.34 481.32 l 1
280.31 689.65 m 1
 359.22 689.65 l 1
 237.22 550 l 1
 191.64 550 l 1
 280.31 689.65 l 1
EndSplineSet
Validated: 1
EndChar

StartChar: ydieresis
Encoding: 255 255 227
Width: 450
Flags: W
HStem: 461.32 20G<10.34 84.0257 369.073 441.22> 575.36 85.92<112.963 185.192 288.026 359.576>
VStem: 107.35 83.25<580.323 655.498> 282.63 82.25<580.323 656.011>
LayerCount: 2
Fore
SplineSet
10.34 481.32 m 1
 76.19 481.32 l 1
 195.59 176.56 l 2
 207.93 143.22 220.6 105.22 229.27 74.88 c 1
 231.27 74.88 l 1
 240.94 104.55 252.28 141.55 266.29 179.23 c 2
 376.36 481.32 l 1
 441.22 481.32 l 1
 301.18 127.61 l 2
 241.53 -27 199.87 -114.68 137.86 -168.69 c 0
 98.21 -202.67 61.24 -217 45.94 -221 c 1
 28.63 -169.78 l 1
 51.97 -161.44 82.98 -145.43 110.32 -119.41 c 0
 134.32 -97.73 165.66 -59.71 188.34 -6.67 c 0
 192.34 3.67 194.67 9.33 194.67 14.33 c 0
 194.67 19.33 192.67 25.66 188.67 35.99 c 2
 10.34 481.32 l 1
148.97 575.36 m 0
 123.66 575.36 107.35 596.01 107.35 618.32 c 0
 107.35 641.63 126.33 661.28 149.64 661.28 c 0
 172.95 661.28 190.6 641.96 190.6 618.32 c 0
 190.6 596.01 174.62 575.36 148.97 575.36 c 0
323.92 575.36 m 0
 298.61 575.36 282.63 596.01 282.63 618.32 c 0
 282.63 641.63 300.61 661.28 324.92 661.28 c 0
 347.9 661.28 364.88 641.96 364.88 618.32 c 0
 364.88 596.01 349.23 575.36 323.92 575.36 c 0
EndSplineSet
Validated: 1
EndChar

StartChar: zcaron
Encoding: 382 382 228
Width: 411
Flags: W
HStem: 0 49.23<93.83 395.59> 431.76 49.56<37.33 319.43>
LayerCount: 2
Fore
SplineSet
16.66 0 m 1
 16.66 36.26 l 1
 261.79 358.78 l 2
 280.78 382.77 299.44 405.1 319.43 429.76 c 1
 319.43 431.76 l 1
 37.33 431.76 l 1
 37.33 481.32 l 1
 393.6 481.32 l 1
 392.6 441.73 l 1
 148.46 121.2 l 2
 130.47 96.88 112.48 74.89 93.83 51.23 c 1
 93.83 49.23 l 1
 395.59 49.23 l 1
 395.59 0 l 1
 16.66 0 l 1
245.6 550 m 1
 198.35 550 l 1
 104.36 689.65 l 1
 158.29 689.65 l 1
 221.31 591.3 l 1
 223.31 591.3 l 1
 285.66 689.65 l 1
 337.59 689.65 l 1
 245.6 550 l 1
EndSplineSet
Validated: 1
EndChar

StartChar: Dcroat
Encoding: 272 272 229
Width: 657
Flags: W
HStem: -6.33 49.9<143.88 380.489> 317.05 49.23<-3.34 83.68 143.88 343.31> 632.1 49.9<145.092 393.572>
VStem: 83.68 60.2<45.962 317.05 366.28 625.535> 557.07 62.86<222.795 476.644>
LayerCount: 2
Fore
SplineSet
-3.34 317.05 m 1
 -3.34 366.28 l 1
 83.68 366.28 l 1
 83.68 667 l 1
 135.34 676 194.99 682 259.97 682 c 0
 383.3 682 475.31 649.65 532.3 591.97 c 0
 588.28 536.3 619.93 459.98 619.93 353 c 0
 619.93 250.04 590.62 160.37 528.96 94.69 c 0
 467.97 30.35 365.65 -6.33 235.65 -6.33 c 0
 180.02 -6.33 130.36 -5 83.68 0 c 1
 83.68 317.05 l 1
 -3.34 317.05 l 1
343.31 366.28 m 1
 343.31 317.05 l 1
 143.88 317.05 l 1
 143.88 48.24 l 1
 169.9 44.57 206.59 43.57 245.62 43.57 c 0
 452.38 43.57 557.07 158.63 557.07 353.34 c 0
 558.07 521.04 464.72 632.1 259.28 632.1 c 0
 209.59 632.1 170.9 627.43 143.88 621.76 c 1
 143.88 366.28 l 1
 343.31 366.28 l 1
EndSplineSet
Validated: 33
EndChar

StartChar: Eng
Encoding: 330 330 230
Width: 644
Flags: W
HStem: -192.3 48.57<384.595 439.433> 0 21G<80.02 137.9> 654 20G<80.02 154.574 506.7 565.25>
VStem: 80.02 57.88<0 594.81> 506.7 58.55<131.491 674>
LayerCount: 2
Fore
SplineSet
137.9 0 m 1
 80.02 0 l 1
 80.02 674 l 1
 141.52 674 l 1
 389.01 294.81 l 2
 441.69 212.46 480.69 146.82 513.36 80.5 c 1
 515.36 81.5 l 1
 508.03 172.17 506.7 250.82 506.7 356.49 c 2
 506.7 674 l 1
 565.25 674 l 1
 565.25 33.98 l 2
 565.25 -96.29 510.3 -171.96 386.32 -192.3 c 1
 374.35 -143.73 l 1
 460.38 -127.73 502.39 -83.7 508.05 -1.98 c 1
 263.25 375.5 l 2
 214.24 452.51 168.57 525.49 133.9 595.81 c 1
 131.57 594.81 l 1
 136.57 511.15 137.9 435.51 137.9 323.51 c 2
 137.9 0 l 1
EndSplineSet
Validated: 1
EndChar

StartChar: Hbar
Encoding: 294 294 231
Width: 638
Flags: W
HStem: 0 21G<80.68 140.88 497.7 558.23> 320.76 51.55<140.88 497.7> 482.35 44.6<26.36 80.68 140.88 497.7 558.23 612.55> 654 20G<80.68 140.88 497.7 558.23>
VStem: 80.68 60.2<0 320.76 372.31 482.35 526.95 674> 497.7 60.53<0 320.76 372.31 482.35 526.95 674>
LayerCount: 2
Fore
SplineSet
612.55 482.35 m 1
 558.23 482.35 l 1
 558.23 0 l 1
 497.7 0 l 1
 497.7 320.76 l 1
 140.88 320.76 l 1
 140.88 0 l 1
 80.68 0 l 1
 80.68 482.35 l 1
 26.36 482.35 l 1
 26.36 526.95 l 1
 80.68 526.95 l 1
 80.68 674 l 1
 140.88 674 l 1
 140.88 526.95 l 1
 497.7 526.95 l 1
 497.7 674 l 1
 558.23 674 l 1
 558.23 526.95 l 1
 612.55 526.95 l 1
 612.55 482.35 l 1
497.7 372.31 m 1
 497.7 482.35 l 1
 140.88 482.35 l 1
 140.88 372.31 l 1
 497.7 372.31 l 1
EndSplineSet
Validated: 1
EndChar

StartChar: Tbar
Encoding: 358 358 232
Width: 475
Flags: W
HStem: 0 21G<207.35 268.55> 332.73 44.6<79.33 207.35 268.55 396.57> 622.78 51.22<-7.03 207.35 268.55 483.93>
VStem: 207.35 61.2<0 332.73 377.33 622.78>
LayerCount: 2
Fore
SplineSet
483.93 622.78 m 1
 268.55 622.78 l 1
 268.55 377.33 l 1
 396.57 377.33 l 1
 396.57 332.73 l 1
 268.55 332.73 l 1
 268.55 0 l 1
 207.35 0 l 1
 207.35 332.73 l 1
 79.33 332.73 l 1
 79.33 377.33 l 1
 207.35 377.33 l 1
 207.35 622.78 l 1
 -7.03 622.78 l 1
 -7.03 674 l 1
 483.93 674 l 1
 483.93 622.78 l 1
EndSplineSet
Validated: 1
EndChar

StartChar: uni021C
Encoding: 540 540 233
Width: 456
Flags: W
HStem: -110.31 49.57<56.4651 138.837> 313.42 45.25<101.972 158.34> 634.43 50.57<78.8842 257.185>
VStem: 300.35 61.2<466.598 593.665> 354.36 63.19<101.55 262.338>
LayerCount: 2
Fore
SplineSet
57.64 -110.31 m 1xe8
 49.32 -60.74 l 1
 234.78 -31.38 354.36 62.66 354.36 184.68 c 0xe8
 354.36 268.73 293.99 332.42 195.3 331.42 c 0
 174.3 331.42 137.98 324.42 103.31 313.42 c 1
 94.66 358.67 l 1
 215.03 388.02 300.35 453.04 300.35 534.05 c 0
 300.35 595.08 250.33 634.43 179.97 634.43 c 0
 124.63 634.43 63.95 610.09 42.3 598.43 c 1
 28.32 639.34 l 1
 54.96 657.33 125.29 685 189.27 685 c 0
 293.58 685 361.55 625.67 361.55 541.35 c 0xf0
 361.55 465.01 303.87 407.01 237.21 376.01 c 1
 237.21 373.01 l 1
 340.22 365.02 417.55 297.01 417.55 189.34 c 0
 417.55 43.38 287.64 -76.61 57.64 -110.31 c 1xe8
EndSplineSet
Validated: 33
EndChar

StartChar: dcroat
Encoding: 273 273 234
Width: 550
Flags: W
HStem: -11 50.23<183.871 336.879> 0 21G<420.609 476.24> 443.42 48.9<186.373 339.937> 556.69 43.61<207.34 411.71 472.24 548.57> 690 20G<411.71 472.24>
VStem: 40.01 61.53<133.416 346.275> 411.71 60.53<24.3553 88.69 115.79 371.663 411.62 556.69 600.3 710> 421.36 54.88<0 88.69>
LayerCount: 2
Fore
SplineSet
548.57 556.69 m 1xbe
 472.24 556.69 l 1
 472.24 116.29 l 2xbe
 472.24 77.98 473.91 33.67 476.24 0 c 1
 421.36 0 l 1x7d
 418.03 88.69 l 1
 416.03 88.69 l 1
 390.37 35.36 332.71 -11 247.01 -11 c 0
 129.34 -11 40.01 88 40.01 232.32 c 0
 39.01 392.65 138.34 492.32 256.34 492.32 c 0
 336.37 492.32 387.71 451.96 409.71 411.62 c 1
 411.71 411.62 l 1
 411.71 556.69 l 1
 207.34 556.69 l 1
 207.34 600.3 l 1
 411.71 600.3 l 1
 411.71 710 l 1
 472.24 710 l 1
 472.24 600.3 l 1
 548.57 600.3 l 1
 548.57 556.69 l 1xbe
411.71 196.97 m 2
 411.71 289.01 l 2
 411.71 301.35 410.04 318.36 407.04 330.7 c 0
 391.36 392.06 338 443.42 263.96 443.42 c 0
 163.58 443.42 101.54 356.05 101.54 236.99 c 0
 101.54 132.29 153.56 39.23 261.29 39.23 c 0
 326.99 39.23 387.69 82.25 407.04 157.63 c 0
 410.04 170.3 411.71 182.3 411.71 196.97 c 2
EndSplineSet
Validated: 33
EndChar

StartChar: eng
Encoding: 331 331 235
Width: 542
Flags: W
HStem: -172.3 50.57<284.009 331.775> 0 21G<78.36 138.89> 440.76 51.56<210.163 354.612> 461.32 20G<74.36 130.603>
VStem: 74.36 55.22<396.63 481.32> 78.36 60.53<0 370.757> 407.05 60.53<-42.8663 378.025>
LayerCount: 2
Fore
SplineSet
78.36 0 m 1xe6
 78.36 361.04 l 2xe6
 78.36 407.02 76.69 442.66 74.36 481.32 c 1
 129.58 481.32 l 1xda
 133.91 396.63 l 1
 135.91 396.63 l 1
 161.25 447.99 219.93 492.32 299.26 492.32 c 0
 352.19 492.32 467.58 463.71 467.58 288.33 c 2
 467.58 59 l 2
 467.58 -84.95 388.6 -155.96 285.62 -172.3 c 1
 273.98 -121.73 l 1
 361.69 -103.72 407.05 -45.35 407.05 57.7 c 2
 407.05 282.35 l 2
 407.05 366.38 374.7 440.76 280.98 440.76 c 0
 216.28 440.76 163.24 395.07 145.56 337.36 c 0
 141.56 325.69 138.89 310.02 138.89 295.02 c 2
 138.89 0 l 1
 78.36 0 l 1xe6
EndSplineSet
Validated: 1
EndChar

StartChar: hbar
Encoding: 295 295 236
Width: 542
Flags: W
HStem: 0 21G<78.36 138.89 407.05 467.58> 440.76 51.56<214.388 353.247> 556.69 43.61<1.36 78.36 138.89 337.25> 690 20G<78.36 138.89>
VStem: 78.36 60.53<0 368.919 398.62 556.69 600.3 710> 407.05 60.53<0 378.536>
LayerCount: 2
Fore
SplineSet
467.58 0 m 1
 407.05 0 l 1
 407.05 282.02 l 2
 407.05 366.05 374.7 440.76 281.65 440.76 c 0
 217.28 440.76 164.24 394.73 145.56 338.69 c 0
 140.56 325.35 138.89 311.68 138.89 293.34 c 2
 138.89 0 l 1
 78.36 0 l 1
 78.36 556.69 l 1
 1.36 556.69 l 1
 1.36 600.3 l 1
 78.36 600.3 l 1
 78.36 710 l 1
 138.89 710 l 1
 138.89 600.3 l 1
 337.25 600.3 l 1
 337.25 556.69 l 1
 138.89 556.69 l 1
 138.89 398.62 l 1
 140.89 398.62 l 1
 154.89 424.96 177.56 449.64 205.9 465.98 c 0
 232.57 482.32 264.91 492.32 300.59 492.32 c 0
 352.19 492.32 467.58 463.71 467.58 289.34 c 2
 467.58 0 l 1
EndSplineSet
Validated: 1
EndChar

StartChar: kgreenlandic
Encoding: 312 312 237
Width: 438
Flags: W
HStem: 0 21G<78.36 138.56 357.476 446.84> 461.32 20G<78.36 138.56 327.968 420.17>
VStem: 78.36 60.2<0 194.06 253.29 481.32>
LayerCount: 2
Fore
SplineSet
138.56 481.32 m 1
 138.56 253.29 l 1
 140.56 253.29 l 1
 152.56 268.95 171.57 290.62 186.24 306.95 c 2
 346.33 481.32 l 1
 420.17 481.32 l 1
 228.48 282.32 l 1
 446.84 0 l 1
 372.67 0 l 1
 186.24 245.4 l 1
 138.56 194.06 l 1
 138.56 0 l 1
 78.36 0 l 1
 78.36 481.32 l 1
 138.56 481.32 l 1
EndSplineSet
Validated: 1
EndChar

StartChar: napostrophe
Encoding: 329 329 238
Width: 542
Flags: W
HStem: 0 21G<78.36 138.89 407.05 467.58> 440.76 51.56<210.163 354.612> 461.32 20G<74.36 130.603>
VStem: 61.7 51.25<584.062 693.792> 74.36 55.22<396.63 481.32> 78.36 60.53<0 370.757> 407.05 60.53<0 378.025>
LayerCount: 2
Fore
SplineSet
47.96 540.69 m 1x92
 22.69 565 l 1
 39.02 580.65 61.7 604.31 61.7 644.99 c 0
 61.7 668.66 46.36 692 26.68 705.33 c 1
 76.61 718.98 l 1
 94.28 708.98 112.95 682.65 112.95 648.99 c 0
 112.95 583.33 62.62 551.35 47.96 540.69 c 1x92
78.36 0 m 1xc6
 78.36 361.04 l 2xc6
 78.36 407.02 76.69 442.66 74.36 481.32 c 1
 129.58 481.32 l 1xaa
 133.91 396.63 l 1
 135.91 396.63 l 1
 161.25 447.99 219.93 492.32 299.26 492.32 c 0
 352.19 492.32 467.58 463.71 467.58 288.33 c 2
 467.58 0 l 1
 407.05 0 l 1
 407.05 282.35 l 2
 407.05 366.38 374.7 440.76 280.98 440.76 c 0
 216.28 440.76 163.24 395.07 145.56 337.36 c 0
 141.56 325.69 138.89 310.02 138.89 295.02 c 2
 138.89 0 l 1
 78.36 0 l 1xc6
EndSplineSet
Validated: 1
EndChar

StartChar: tbar
Encoding: 359 359 239
Width: 316
Flags: W
HStem: -10 50.56<176.166 281.142> 256.71 43.28<28.68 97.02 157.56 262.26> 433.75 47.57<18 97.02 157.56 290.93>
VStem: 97.02 60.54<59.8286 256.71 299.99 433.75 481.32 602.68>
LayerCount: 2
Fore
SplineSet
290.93 433.75 m 1
 157.56 433.75 l 1
 157.56 299.99 l 1
 262.26 299.99 l 1
 262.26 256.71 l 1
 157.56 256.71 l 1
 157.56 138.58 l 2
 157.56 77.91 175.9 40.56 226.24 40.56 c 0
 250.58 40.56 268.25 44.23 279.92 47.9 c 1
 285.26 1.33 l 1
 268.93 -5 245.28 -10 214.63 -10 c 0
 177.65 -10 147.33 1.66 128.34 24.99 c 0
 105.35 50.32 97.02 91.31 97.02 142.95 c 2
 97.02 256.71 l 1
 28.68 256.71 l 1
 28.68 299.99 l 1
 97.02 299.99 l 1
 97.02 433.75 l 1
 18 433.75 l 1
 18 481.32 l 1
 97.02 481.32 l 1
 97.02 602.68 l 1
 157.56 620.32 l 1
 157.56 481.32 l 1
 290.93 481.32 l 1
 290.93 433.75 l 1
EndSplineSet
Validated: 1
EndChar

StartChar: uni021D
Encoding: 541 541 240
Width: 408
Flags: W
HStem: -209 48.57<40.5057 135.53> 152.39 45.58<89.2709 150.554> 443.42 48.9<69.8328 235.023>
VStem: 272.03 60.21<284.786 409.895> 320.05 61.19<-31.5452 115.453>
LayerCount: 2
Fore
SplineSet
41.32 -209 m 1xe8
 35.67 -160.43 l 1
 65.63 -157.43 320.05 -124.08 320.05 45.66 c 0xe8
 320.05 114.04 272.34 167.39 179.99 167.39 c 0
 149.98 167.39 118.32 159.72 90.65 152.39 c 1
 81.67 197.97 l 1
 195.37 226.32 272.03 269 272.03 348.7 c 0
 272.03 407.4 228.68 443.42 159.99 443.42 c 0
 106.98 443.42 56.64 415.74 34.65 404.08 c 1
 20.67 444.66 l 1
 54.32 466.65 111.3 492.32 172.95 492.32 c 0
 267.25 492.32 332.24 438.99 332.24 357.67 c 0xf0
 332.24 288.99 285.22 236.64 224.23 213.65 c 1
 224.23 210.65 l 1
 316.9 201.32 381.24 142.99 381.24 52.98 c 0
 381.24 -61.61 285.04 -183.97 41.32 -209 c 1xe8
EndSplineSet
Validated: 1
EndChar

StartChar: IJ
Encoding: 306 306 241
Width: 573
Flags: W
HStem: -11 51.89<234.003 389.835> 0 21G<80.02 140.22> 654 20G<80.02 140.22 440.27 501.14>
VStem: 80.02 60.2<0 674> 440.27 60.87<99.5827 674>
LayerCount: 2
Fore
SplineSet
80.02 674 m 1x78
 140.22 674 l 1
 140.22 0 l 1
 80.02 0 l 1
 80.02 674 l 1x78
440.27 222.63 m 2
 440.27 674 l 1
 501.14 674 l 1
 501.14 213.62 l 2
 501.14 39.31 415.48 -11 312.21 -11 c 0
 281.22 -11 244.9 -3.33 226.25 5 c 1
 237.24 54.56 l 1
 254.57 47.56 279.9 40.89 309.9 40.89 c 0xb8
 392.93 40.89 440.27 79.24 440.27 222.63 c 2
EndSplineSet
Validated: 1
EndChar

StartChar: f_f
Encoding: 64256 64256 242
Width: 555
Flags: W
HStem: 0 21G<83.34 143.54 365.97 427.17> 433.75 47.57<14.67 83.34 143.54 365.97 427.17 551.21> 660.1 49.9<182.768 307.177> 670.77 50.23<467.993 594.482>
VStem: 83.34 60.2<0 433.75 481.32 615.07> 365.97 61.2<0 433.75 481.32 624.427>
LayerCount: 2
Fore
SplineSet
427.17 0 m 1xdc
 365.97 0 l 1
 365.97 433.75 l 1
 143.54 433.75 l 1
 143.54 0 l 1
 83.34 0 l 1
 83.34 433.75 l 1
 14.67 433.75 l 1
 14.67 481.32 l 1
 83.34 481.32 l 1
 83.34 500 l 2
 83.34 572.69 100.01 631.69 136.67 668.35 c 0
 162.66 695.01 199.31 710 247.28 710 c 0
 276.62 710 303.29 700.33 317.62 691.66 c 1
 300.96 645.42 l 1
 287.29 652.76 266.28 660.1 243.6 660.1 c 0xec
 165.22 660.1 143.54 591.72 143.54 505 c 2
 143.54 481.32 l 1
 365.97 481.32 l 1
 365.97 506.33 l 2
 365.97 578.35 381.3 639.01 420.29 678.01 c 0
 451.28 708 491.93 721 530.59 721 c 0
 561.92 721 587.92 713.33 603.58 705.66 c 1
 589.9 657.76 l 1
 575.9 664.43 558.23 670.77 530.22 670.77 c 0
 445.5 670.77 426.84 594.05 426.84 507.99 c 2
 426.84 481.32 l 1
 551.21 481.32 l 1
 551.21 433.75 l 1
 427.17 433.75 l 1
 427.17 0 l 1xdc
EndSplineSet
Validated: 1
EndChar

StartChar: f_f_i
Encoding: 64259 64259 243
Width: 780
Flags: W
HStem: 0 21G<83.34 143.54 366.3 427.5 641.27 701.8> 433.75 47.57<14.67 83.34 143.54 366.3 427.5 641.27> 660.43 49.57<188.287 327.574> 670.77 50.23<479.751 638.804>
VStem: 83.34 60.2<0 433.75 481.32 607.157> 366.3 61.2<0 433.75 481.32 613.636> 641.27 60.53<0 433.75>
LayerCount: 2
Fore
SplineSet
673.51 688.66 m 1xde
 650.19 642.09 l 1
 628.86 656.76 592.86 670.77 552.86 670.77 c 0xde
 454.5 670.77 427.17 595.72 427.17 508 c 2
 427.17 481.32 l 1
 701.8 481.32 l 1
 701.8 0 l 1
 641.27 0 l 1
 641.27 433.75 l 1
 427.5 433.75 l 1
 427.5 0 l 1
 366.3 0 l 1
 366.3 433.75 l 1
 143.54 433.75 l 1
 143.54 0 l 1
 83.34 0 l 1
 83.34 433.75 l 1
 14.67 433.75 l 1
 14.67 481.32 l 1
 83.34 481.32 l 1
 83.34 503.34 l 2
 83.34 565.01 98.67 624.01 139.33 665.01 c 0
 165.99 692.67 205.31 710 253.95 710 c 0
 286.95 710 321.62 696.66 339.62 686.99 c 1
 318.97 640.08 l 1
 301.96 650.09 276.28 660.43 251.27 660.43 c 0xee
 219.92 660.43 197.24 649.76 180.9 631.08 c 0
 152.88 601.06 143.54 551.03 143.54 501.66 c 2
 143.54 481.32 l 1
 366.3 481.32 l 1
 366.3 510.67 l 2
 366.3 635.32 430.24 721 559.54 721 c 0
 602.2 721 650.19 706.66 673.51 688.66 c 1xde
EndSplineSet
Validated: 1
EndChar

StartChar: f_f_j
Encoding: 57347 57347 244
Width: 777
Flags: W
HStem: -209 48.9<514.57 584.305> 0 21G<83.34 143.54 366.3 427.5> 433.75 47.57<14.67 83.34 143.54 366.3 427.5 641.27> 660.43 49.57<188.287 327.574> 670.77 50.23<479.751 638.804>
VStem: 83.34 60.2<0 433.75 481.32 607.157> 366.3 61.2<0 433.75 481.32 613.636> 641.27 60.53<-101.393 433.75>
LayerCount: 2
Fore
SplineSet
673.51 688.66 m 1xef
 650.19 642.09 l 1
 628.86 656.76 592.86 670.77 552.86 670.77 c 0xef
 454.5 670.77 427.17 595.72 427.17 508 c 2
 427.17 481.32 l 1
 701.8 481.32 l 1
 701.8 36.96 l 2
 701.8 -51.68 690.82 -111.34 648.49 -156.01 c 0
 612.84 -194.34 551.52 -208.33 514.57 -209 c 1
 507.58 -160.1 l 1
 548.92 -157.77 584.59 -145.43 606.26 -121.09 c 0
 630.93 -91.75 641.27 -53.75 641.27 69.62 c 2
 641.27 433.75 l 1
 427.5 433.75 l 1
 427.5 0 l 1
 366.3 0 l 1
 366.3 433.75 l 1
 143.54 433.75 l 1
 143.54 0 l 1
 83.34 0 l 1
 83.34 433.75 l 1
 14.67 433.75 l 1
 14.67 481.32 l 1
 83.34 481.32 l 1
 83.34 503.34 l 2
 83.34 565.01 98.67 624.01 139.33 665.01 c 0
 165.99 692.67 205.31 710 253.95 710 c 0
 286.95 710 321.62 696.66 339.62 686.99 c 1
 318.97 640.08 l 1
 301.96 650.09 276.28 660.43 251.27 660.43 c 0xf7
 219.92 660.43 197.24 649.76 180.9 631.08 c 0
 152.88 601.06 143.54 551.03 143.54 501.66 c 2
 143.54 481.32 l 1
 366.3 481.32 l 1
 366.3 510.67 l 2
 366.3 635.32 430.24 721 559.54 721 c 0
 602.2 721 650.19 706.66 673.51 688.66 c 1xef
EndSplineSet
Validated: 1
EndChar

StartChar: f_f_l
Encoding: 64260 64260 245
Width: 780
Flags: W
HStem: 0 21G<83.34 143.54 366.3 427.5 641.6 702.47> 433.75 47.57<14.67 83.34 143.54 366.3 427.5 550.55> 660.43 49.57<189.078 326.411> 671.76 49.24<484.864 641.003>
VStem: 83.34 60.2<0 433.75 481.32 608.454> 366.3 61.2<0 433.75 481.32 610.617> 641.6 60.87<0 665.185>
LayerCount: 2
Fore
SplineSet
338.95 689.99 m 1xee
 318.63 642.75 l 1
 299.29 653.76 275.61 660.43 252.6 660.43 c 0xee
 220.92 660.43 197.24 649.76 180.9 631.08 c 0
 152.88 601.73 143.54 554.03 143.54 502.66 c 2
 143.54 481.32 l 1
 366.3 481.32 l 1
 366.3 502.32 l 2
 366.3 575.35 388.29 634.01 432.62 674.68 c 0
 466.27 704 511.58 721 574.89 721 c 0
 624.19 721 670.83 709.67 702.47 693.02 c 1
 702.47 0 l 1
 641.6 0 l 1
 641.6 657.42 l 1
 624.93 665.42 600.92 671.76 563.24 671.76 c 0xde
 459.51 671.76 427.17 594.71 427.17 508 c 2
 427.17 481.32 l 1
 550.55 481.32 l 1
 550.55 433.75 l 1
 427.5 433.75 l 1
 427.5 0 l 1
 366.3 0 l 1
 366.3 433.75 l 1
 143.54 433.75 l 1
 143.54 0 l 1
 83.34 0 l 1
 83.34 433.75 l 1
 14.67 433.75 l 1
 14.67 481.32 l 1
 83.34 481.32 l 1
 83.34 495.33 l 2
 83.34 556.99 95.33 621.67 137.33 664.68 c 0
 164.98 692.67 205.29 710 256.27 710 c 0
 290.28 710 323.95 697.66 338.95 689.99 c 1xee
EndSplineSet
Validated: 1
EndChar

StartChar: f_i
Encoding: 65537 -1 246
Width: 496
Flags: W
HStem: 0 21G<83.34 143.54 357.64 418.51> 433.75 47.57<14.67 83.34 143.54 357.64> 670.77 50.23<196.198 355.531>
VStem: 83.34 60.2<0 433.75 481.32 613.636> 357.64 60.87<0 433.75>
LayerCount: 2
Fore
SplineSet
143.54 0 m 1
 83.34 0 l 1
 83.34 433.75 l 1
 14.67 433.75 l 1
 14.67 481.32 l 1
 83.34 481.32 l 1
 83.34 510.67 l 2
 83.34 635.32 146.28 721 276.25 721 c 0
 318.57 721 367.55 706.33 390.54 688.33 c 1
 367.55 641.43 l 1
 347.22 656.43 309.89 670.77 268.9 670.77 c 0
 171.21 670.77 143.54 595.72 143.54 508 c 2
 143.54 481.32 l 1
 418.51 481.32 l 1
 418.51 0 l 1
 357.64 0 l 1
 357.64 433.75 l 1
 143.54 433.75 l 1
 143.54 0 l 1
EndSplineSet
Validated: 1
EndChar

StartChar: f_j
Encoding: 57348 57348 247
Width: 495
Flags: W
HStem: -209 48.9<231.28 300.64> 0 21G<83.34 143.54> 433.75 47.57<14.67 83.34 143.54 357.64> 670.77 50.23<196.198 355.531>
VStem: 83.34 60.2<0 433.75 481.32 613.636> 357.64 60.87<-101.393 433.75>
LayerCount: 2
Fore
SplineSet
143.54 0 m 1
 83.34 0 l 1
 83.34 433.75 l 1
 14.67 433.75 l 1
 14.67 481.32 l 1
 83.34 481.32 l 1
 83.34 510.67 l 2
 83.34 635.32 146.28 721 276.25 721 c 0
 318.57 721 367.55 706.33 390.54 688.33 c 1
 367.55 641.43 l 1
 347.22 656.43 309.89 670.77 268.9 670.77 c 0
 171.21 670.77 143.54 595.72 143.54 508 c 2
 143.54 481.32 l 1
 418.51 481.32 l 1
 418.51 36.96 l 2
 418.51 -51.68 406.86 -111.34 365.2 -156.01 c 0
 329.21 -194.34 267.56 -208.33 231.28 -209 c 1
 224.29 -160.1 l 1
 265.29 -157.77 300.63 -145.43 322.3 -121.09 c 0
 347.64 -91.75 357.64 -53.75 357.64 69.62 c 2
 357.64 433.75 l 1
 143.54 433.75 l 1
 143.54 0 l 1
EndSplineSet
Validated: 1
EndChar

StartChar: f_l
Encoding: 65538 -1 248
Width: 496
Flags: W
HStem: 0 21G<83.34 143.54 358.31 418.51> 433.75 47.57<14.67 83.34 143.54 267.26> 671.76 49.24<201.403 357.611>
VStem: 83.34 60.2<0 433.75 481.32 607.525> 358.31 60.2<0 665.185>
LayerCount: 2
Fore
SplineSet
143.54 0 m 1
 83.34 0 l 1
 83.34 433.75 l 1
 14.67 433.75 l 1
 14.67 481.32 l 1
 83.34 481.32 l 1
 83.34 502.32 l 2
 83.34 575.35 105 634.01 148.66 674.68 c 0
 182.64 704 227.95 721 291.6 721 c 0
 340.9 721 387.2 709.67 418.51 693.02 c 1
 418.51 0 l 1
 358.31 0 l 1
 358.31 657.42 l 1
 341.3 665.42 316.96 671.76 280.28 671.76 c 0
 176.22 671.76 143.54 594.71 143.54 508 c 2
 143.54 481.32 l 1
 267.26 481.32 l 1
 267.26 433.75 l 1
 143.54 433.75 l 1
 143.54 0 l 1
EndSplineSet
Validated: 1
EndChar

StartChar: ij
Encoding: 307 307 249
Width: 440
Flags: W
HStem: -209 48.9<176.56 246.295> 0 21G<78.36 138.89> 461.32 20G<78.36 138.89 303.26 363.79> 572.7 91.58<71.4738 146.017 296.393 370.963>
VStem: 64.68 87.56<578.781 657.596> 78.36 60.53<0 481.32> 289.58 87.56<578.443 657.44> 303.26 60.53<-99.7895 481.32>
LayerCount: 2
Fore
SplineSet
138.89 0 m 1xf4
 78.36 0 l 1
 78.36 481.32 l 1
 138.89 481.32 l 1
 138.89 0 l 1xf4
108.96 664.28 m 0
 135.26 664.28 152.24 643.63 152.24 617.99 c 0
 152.57 593.35 135.26 572.7 106.96 572.7 c 0
 81.99 572.7 64.68 593.35 64.68 617.99 c 0xf8
 64.68 642.96 83.66 664.28 108.96 664.28 c 0
176.56 -209 m 1
 169.24 -160.1 l 1
 210.91 -157.77 246.25 -145.43 267.92 -121.09 c 0
 292.59 -91.75 303.26 -53.75 303.26 69.62 c 2
 303.26 481.32 l 1
 363.79 481.32 l 1
 363.79 36.96 l 2xf1
 363.79 -51.68 352.81 -111.34 310.48 -156.01 c 0
 274.83 -194.34 213.51 -208.33 176.56 -209 c 1
334.86 664.28 m 0
 360.16 664.28 377.14 642.96 377.14 617.99 c 0
 377.14 594.35 361.16 572.7 332.19 572.7 c 0
 306.56 572.7 289.58 594.35 289.58 617.99 c 0xf2
 289.58 642.96 308.56 664.28 334.86 664.28 c 0
EndSplineSet
Validated: 33
EndChar

StartChar: zero.slash
Encoding: 63032 63032 250
Width: 496
Flags: W
HStem: -11 49.24<181.462 312.214> 612.43 48.57<186.534 315.239>
VStem: 37.34 60.88<165.785 480.66> 397.36 61.55<160.027 493.592>
LayerCount: 2
Fore
SplineSet
129.25 138.52 m 1
 348.34 557.41 l 1
 324.99 592.09 292.31 612.43 248.29 612.43 c 0
 157.58 612.43 99.89 496.71 98.22 328.67 c 0
 98.22 252.27 108.9 187.55 129.25 138.52 c 1
371 509.14 m 1
 152.25 90.59 l 1
 176.26 56.58 208.61 38.24 246.29 38.24 c 0
 349.35 38.24 397.36 155.3 397.36 328.67 c 0
 397.36 398.73 389.02 460.78 371 509.14 c 1
254.63 661 m 0
 376.89 661 458.91 552.4 458.91 333.34 c 0
 458.91 104.3 375.57 -11 240.95 -11 c 0
 131.37 -11 40.01 94.6 37.34 322.33 c 0
 37.34 553.06 138.04 661 254.63 661 c 0
EndSplineSet
Validated: 1
EndChar

StartChar: Euro
Encoding: 8364 8364 251
Width: 496
Flags: W
HStem: -11 51.23<251.776 442.639> 256.7 40.96<12.01 69.68 134.2 430.6> 362.35 41.29<12.01 71.68 138.87 430.6> 611.1 49.9<254.667 445.798>
VStem: 69.68 60.87<180.267 256.7 297.66 362.35> 78.01 60.86<403.64 479.037>
LayerCount: 2
Fore
SplineSet
469.62 75.91 m 1xf8
 483.94 32.34 l 1
 454.28 10.67 404.29 -11 337.62 -11 c 0
 263.32 -11 198.69 16.65 151.37 67.95 c 0
 109.35 112.63 81.67 177.33 73.34 256.7 c 1
 12.01 256.7 l 1
 12.01 297.66 l 1
 69.68 297.66 l 1
 69.68 301.99 69.68 306.99 69.68 311.32 c 0xf8
 69.68 329.33 70.68 346.34 71.68 362.35 c 1
 12.01 362.35 l 1
 12.01 403.64 l 1
 78.01 403.64 l 1
 89.34 480.34 121.35 542.36 165.37 586.04 c 0
 213.69 633.68 272.66 661 348.63 661 c 0
 408.3 661 450.95 643.33 475.6 628.33 c 1
 458.95 581.76 l 1
 433.95 598.1 391.95 611.1 346.95 611.1 c 0
 290.27 611.1 245.6 591.43 210.26 556.77 c 0
 174.23 522.41 150.21 468.03 138.87 403.64 c 1xf4
 430.6 403.64 l 1
 430.6 362.35 l 1
 132.55 362.35 l 1
 130.88 348.01 130.55 331.67 130.55 315.66 c 0
 130.55 308.99 130.55 303.99 130.55 297.66 c 1
 430.6 297.66 l 1
 430.6 256.7 l 1
 134.2 256.7 l 1
 142.87 187.31 165.55 136.27 198.58 100.91 c 0
 236.92 59.9 288.26 40.23 344.27 40.23 c 0
 400.62 40.23 445.95 61.57 469.62 75.91 c 1xf8
EndSplineSet
Validated: 1
EndChar

StartChar: Aringacute
Encoding: 506 506 252
Width: 593
Flags: W
HStem: 0 21G<28.35 97.782 500.983 571.58> 228.08 49.24<185.58 411.36> 654 20G<260.307 339.953> 691.33 31.64<269.408 340.077> 807.98 29.97<270.173 337.915>
VStem: 221 38.96<730.206 800.699> 348.3 39.63<729.493 801.003>
LayerCount: 2
Fore
SplineSet
304.63 691.33 m 0
 253.32 691.33 221 723.32 221 763.64 c 0
 221 804.63 252.99 837.95 305.63 837.95 c 0
 355.6 837.95 387.93 804.96 387.93 763.64 c 0
 387.93 722.32 353.27 691.33 304.63 691.33 c 0
303.63 722.97 m 0
 330.63 722.97 348.3 738.97 348.3 764.64 c 0
 348.3 788.98 330.63 807.98 303.3 807.98 c 0
 276.3 807.98 259.96 787.31 259.96 763.64 c 0
 259.96 740.97 278.3 722.97 303.63 722.97 c 0
366.67 940.61 m 1
 459.23 940.61 l 1
 318.91 856.62 l 1
 261.34 856.62 l 1
 366.67 940.61 l 1
427.35 228.08 m 1
 169.59 228.08 l 1
 90.88 0 l 1
 28.35 0 l 1
 267.4 674 l 1
 332.87 674 l 1
 571.58 0 l 1
 508.06 0 l 1
 427.35 228.08 l 1
185.58 277.32 m 1
 411.36 277.32 l 1
 334.64 492.09 l 2
 318.97 538.1 309.64 574.08 299.64 612.41 c 1
 297.64 612.41 l 1
 287.64 573.08 276.64 536.1 262.97 493.76 c 2
 185.58 277.32 l 1
EndSplineSet
Validated: 1
EndChar

StartChar: estimated
Encoding: 8494 8494 253
Width: 817
Flags: W
HStem: -11 20<333.094 486.98> 316 19<172 646> 641 20<333.293 485.033>
VStem: 35 137<217.068 316 335 432.932> 646 136<335 432.932>
LayerCount: 2
Fore
SplineSet
782 316 m 2
 177 316 l 2
 174 316 172 315 172 312 c 2
 172 129 l 2
 172 121 176 114 181 108 c 0
 238 47 320 9 410 9 c 0
 506 9 592 52 650 120 c 1
 705 120 l 1
 637 41 529 -11 409 -11 c 0
 203 -11 35 139 35 325 c 0
 35 511 203 661 409 661 c 0
 615 661 782 511 782 325 c 0
 782 322 782 319 782 316 c 2
646 340 m 2
 646 524 l 2
 646 533 642 540 636 546 c 0
 578 604 498 641 410 641 c 0
 320 641 240 603 182 543 c 0
 176 537 172 529 172 520 c 2
 172 340 l 2
 172 337 174 335 177 335 c 2
 641 335 l 2
 644 335 646 337 646 340 c 2
EndSplineSet
Validated: 1
EndChar

StartChar: zero.oldstyle
Encoding: 63280 63280 254
Width: 517
Flags: W
HStem: -11 48.91<183.592 334.418> 444.08 48.24<183.306 334.277>
VStem: 44.02 59.54<130.031 350.403> 413.71 60.21<130.947 351.318>
LayerCount: 2
Fore
SplineSet
258.97 -11 m 0
 149.71 -11 44.02 70.95 44.02 240.66 c 0
 44.02 405.7 149.04 492.32 258.97 492.32 c 0
 368.23 492.32 473.92 410.04 473.92 240.66 c 0
 473.92 75.29 368.56 -11 258.97 -11 c 0
258.97 37.91 m 0
 356.68 37.91 413.71 126.29 413.71 240.66 c 0
 413.71 355.03 356.35 444.08 258.97 444.08 c 0
 160.92 444.08 103.56 355.03 103.56 240.66 c 0
 103.56 126.29 161.59 37.91 258.97 37.91 c 0
EndSplineSet
Validated: 1
EndChar

StartChar: one.oldstyle
Encoding: 63281 63281 255
Width: 341
Flags: W
HStem: 0 21G<179 237.54> 464.66 20G<141.566 237.54>
VStem: 179 58.54<0 431.11>
LayerCount: 2
Fore
SplineSet
237.54 0 m 1
 179 0 l 1
 179 431.11 l 1
 177 431.11 l 1
 38.65 365.43 l 1
 26 411 l 1
 184.64 484.66 l 1
 237.54 484.66 l 1
 237.54 0 l 1
EndSplineSet
Validated: 1
EndChar

StartChar: two.oldstyle
Encoding: 63282 63282 256
Width: 436
Flags: W
HStem: 0 50.57<124.84 406.6> 442.09 50.23<104.26 269.67>
VStem: 310.4 60.53<259.315 402.797>
LayerCount: 2
Fore
SplineSet
406.6 0 m 1
 24 0 l 1
 24 34.6 l 1
 67.98 65.92 l 1
 229.03 172.96 310.4 247.33 310.4 336.04 c 0
 310.4 407.74 259.71 442.09 194.36 442.09 c 0
 138.34 442.09 86.66 415.74 50.99 388.73 c 1
 32.01 428.98 l 1
 68.35 457.32 131 492.32 207.65 492.32 c 0
 300.27 492.32 370.93 438.67 370.93 341.34 c 0
 370.93 247.33 297.59 177.32 179.19 91.93 c 2
 124.84 50.91 l 1
 124.84 48.58 l 1
 144.15 49.57 169.45 50.57 196.46 50.57 c 2
 406.6 50.57 l 1
 406.6 0 l 1
EndSplineSet
Validated: 1
EndChar

StartChar: three.oldstyle
Encoding: 63283 63283 257
Width: 417
Flags: W
HStem: -111.98 48.9<22.0486 232.988> 184.72 47.92<96.32 150.852> 443.42 48.9<76.8398 252.668>
VStem: 285.03 61.2<295.577 411.475> 315.38 61.86<7.5605 135.082>
LayerCount: 2
Fore
SplineSet
16.33 -92.65 m 1xe8
 24.65 -46.41 l 1
 48.31 -54.74 90.31 -63.08 130.3 -63.08 c 0
 238.68 -63.08 315.38 -6.37 315.38 74 c 0xe8
 315.38 144.37 250.02 187.39 151.99 187.39 c 0
 127.65 187.39 107.65 186.39 96.32 184.72 c 1
 94.32 232.64 l 1
 109.97 233.97 l 2
 211.01 241.64 285.03 283.67 285.03 353.04 c 0
 285.03 413.74 241.01 443.42 171.32 443.42 c 0
 118.98 443.42 70.98 420.08 49.66 408.42 c 1
 35.01 449.33 l 1
 61.32 467.65 120.3 492.32 183.62 492.32 c 0
 278.92 492.32 346.23 443.33 346.23 363.35 c 0xf0
 346.23 294.68 296.9 246.02 228.9 224.68 c 1
 228.9 221.68 l 1
 308.57 210.68 377.24 162.68 377.24 76.34 c 0
 377.24 -35.31 266.27 -111.98 133.95 -111.98 c 0
 87.98 -111.98 36.65 -101.98 16.33 -92.65 c 1xe8
EndSplineSet
Validated: 1
EndChar

StartChar: four.oldstyle
Encoding: 63284 63284 258
Width: 483
Flags: W
HStem: 58.04 48.91<83.55 312.01 369.22 465.58> 471 20G<296.076 369.22>
VStem: 312.01 57.21<-111.65 58.04 106.95 421.672>
LayerCount: 2
Fore
SplineSet
465.58 58.04 m 1
 369.22 58.04 l 1
 369.22 -111.65 l 1
 312.01 -111.65 l 1
 312.01 58.04 l 1
 16.66 58.04 l 1
 16.66 98.29 l 1
 311.07 491 l 1
 369.22 491 l 1
 369.22 106.95 l 1
 465.58 106.95 l 1
 465.58 58.04 l 1
312.01 106.95 m 1
 312.01 335.76 l 2
 312.01 366.75 311.34 393.4 314.34 423.06 c 1
 310.34 424.06 l 1
 295.01 394.07 277.35 365.09 259.69 338.77 c 2
 82.22 109.28 l 1
 83.55 106.95 l 1
 312.01 106.95 l 1
EndSplineSet
Validated: 33
EndChar

StartChar: five.oldstyle
Encoding: 63285 63285 259
Width: 431
Flags: W
HStem: -111.31 48.57<47.2005 246.627> 430.76 50.56<152.27 371.95>
VStem: 327.74 61.53<10.0048 148.889>
LayerCount: 2
Fore
SplineSet
41.36 -94.65 m 1
 49.68 -49.07 l 1
 72.68 -56.74 113.01 -62.74 149.67 -62.74 c 0
 241.37 -62.74 327.74 -11.71 327.74 83.01 c 0
 327.74 114.69 314.4 143.04 292.72 164.72 c 0
 249.03 207.74 159.98 219.07 58.69 209.73 c 1
 109.35 481.32 l 1
 380.94 481.32 l 1
 371.95 430.76 l 1
 152.27 430.76 l 1
 118.25 259.32 l 1
 199.91 261.99 288.26 252 343.27 198.99 c 0
 373.27 169.99 389.27 127.65 389.27 88.67 c 0
 389.27 -35.67 282.92 -111.31 145.31 -111.31 c 0
 106.67 -111.31 65.02 -104.65 41.36 -94.65 c 1
EndSplineSet
Validated: 33
EndChar

StartChar: six.oldstyle
Encoding: 63286 63286 260
Width: 507
Flags: W
HStem: -11 48.24<189.541 334.539> 341.05 46.92<188.75 339.562> 555.07 46.91<319.175 419.395>
VStem: 52.36 62.54<116.424 314.885> 400.05 60.2<106.465 280.813>
LayerCount: 2
Fore
SplineSet
418.6 601.98 m 1
 423.93 555.07 l 1
 241.92 542.06 141.89 436.34 116.88 304.25 c 1
 120.55 304.92 l 1
 146.89 345.61 202.24 387.97 276.6 387.97 c 0
 375.92 387.97 460.25 314.97 460.25 197.31 c 0
 460.25 62.64 358.93 -11 265.65 -11 c 0
 140.02 -11 52.36 85.32 52.36 230.31 c 0
 52.36 435.3 192.67 584.29 418.6 601.98 c 1
264.31 37.24 m 0
 330.68 37.24 400.05 89.6 400.05 194.65 c 0
 400.05 284.69 345.69 341.05 263.98 341.05 c 0
 214.96 341.05 173.27 314.7 154.6 294.7 c 0
 124.24 264.34 114.9 237.66 114.9 199.3 c 0
 114.9 114.95 174.6 37.24 264.31 37.24 c 0
EndSplineSet
Validated: 1
EndChar

StartChar: seven.oldstyle
Encoding: 63287 63287 261
Width: 408
Flags: W
HStem: 430.43 50.89<17.67 323.04>
LayerCount: 2
Fore
SplineSet
386.24 481.32 m 1
 386.24 440.73 l 1
 322.9 272.37 200.22 45.69 98.55 -110.98 c 1
 42.68 -96.65 l 1
 123.34 19 270.71 286.42 323.04 427.76 c 1
 323.04 430.43 l 1
 17.67 430.43 l 1
 17.67 481.32 l 1
 386.24 481.32 l 1
EndSplineSet
Validated: 1
EndChar

StartChar: eight.oldstyle
Encoding: 63288 63288 262
Width: 497
Flags: W
HStem: -11 47.59<161.229 331.983> 557.05 45.26<174.968 327.732>
VStem: 44.35 62.54<89.1894 224.417> 69.02 59.54<392.926 513.793> 370.35 59.22<389.226 516.772> 390.71 61.86<90.0121 219.439>
LayerCount: 2
Fore
SplineSet
318.88 316.65 m 1xd8
 318.88 314.32 l 1
 400.24 286.65 452.57 230.97 452.57 161.31 c 0
 452.57 55.32 357.25 -11 247.97 -11 c 0
 128 -11 44.35 57.33 44.35 151.65 c 0xe4
 44.35 226.66 98.7 279.33 174.71 313.67 c 1
 174.71 316 l 1
 117.71 337.99 69.02 380.66 69.02 446.34 c 0
 69.02 538.99 154.35 602.31 254.63 602.31 c 0
 354.23 602.31 429.57 540 429.57 454.66 c 0
 429.57 399.34 397.92 353.33 318.88 316.65 c 1xd8
252.96 557.05 m 0
 186.6 557.05 128.56 518.04 128.56 452 c 0
 128.56 391.3 178.25 356.63 260.62 334.62 c 1
 321.99 352.63 370.35 390.64 370.35 453.34 c 0xd8
 370.35 522.37 312.32 557.05 252.96 557.05 c 0
246.96 36.59 m 0
 327.34 36.59 390.71 82.94 390.71 153.98 c 0
 390.71 223.68 335.69 267.69 233.3 295.04 c 1
 157.92 270.36 106.89 220.34 106.89 158.64 c 0xe4
 106.89 86.27 159.58 36.59 246.96 36.59 c 0
EndSplineSet
Validated: 1
EndChar

StartChar: nine.oldstyle
Encoding: 63289 63289 263
Width: 507
Flags: W
HStem: -111.98 47.58<82.67 194.23> 93.68 46.59<168.943 322.355> 443.75 48.57<175.933 321.365>
VStem: 47.69 61.2<202.838 375.671> 393.71 60.87<209.43 367.526>
LayerCount: 2
Fore
SplineSet
82.67 -111.98 m 1
 77.34 -64.4 l 1
 250.35 -56.73 358.05 37.99 385.05 170.06 c 1
 383.05 170.06 l 1
 363.05 132.37 304.7 93.68 232.01 93.68 c 0
 135.03 93.68 47.69 161.33 47.69 284.68 c 0
 47.69 401.66 137.33 492.32 252.63 492.32 c 0
 359.24 492.32 454.58 414.03 454.58 259.69 c 0
 454.58 52.41 315.63 -100.97 82.67 -111.98 c 1
243.96 140.27 m 0
 303 140.27 355.69 174.96 376.7 213.98 c 0
 387.04 228.99 393.71 251.66 393.71 278.67 c 0
 393.71 379.39 326 443.75 248.63 443.75 c 0
 182.27 443.75 108.89 395.4 108.89 290.01 c 0
 108.89 185.95 172.93 140.27 243.96 140.27 c 0
EndSplineSet
Validated: 1
EndChar

StartChar: percent.oldstyle
Encoding: 63042 63042 264
Width: 787
Flags: W
HStem: -6.33 40.27<565.364 664.097> 199.31 40.27<125.671 222.915> 351.73 40.27<567.679 664.577> 557.37 40.27<127.919 224.879>
VStem: 30.35 51.91<290.101 505.331> 266.34 51.24<286.3 510.402> 470.27 50.91<85.4015 296.549> 705.59 51.58<80.6599 306.088>
LayerCount: 2
Fore
SplineSet
177.3 597.64 m 0
 259.59 597.64 317.58 533 317.58 403.64 c 0
 317.58 265.97 251.61 199.31 172.3 199.31 c 0
 98 199.31 31.35 260.96 30.35 394.64 c 0
 29.68 530.67 101.35 597.64 177.3 597.64 c 0
174.63 557.37 m 0
 115.61 557.37 82.26 486.34 82.26 398.31 c 0
 80.59 309.61 114.94 239.58 173.63 239.58 c 0
 238.66 239.58 266.34 309.62 266.34 400.31 c 0
 266.34 485.34 241.66 557.37 174.63 557.37 c 0
239.56 -12.67 m 1
 194.28 -12.67 l 1
 546.95 603.98 l 1
 591.9 603.98 l 1
 239.56 -12.67 l 1
617.22 392 m 0
 699.51 392 757.17 327.36 757.17 198 c 0
 757.17 60.33 691.2 -6.33 611.55 -6.33 c 0
 537.92 -6.33 470.94 55.32 470.27 188.67 c 0
 469.27 325.7 541.27 392 617.22 392 c 0
614.22 351.73 m 0
 555.2 351.73 522.18 281.37 521.18 192.67 c 0
 520.18 103.64 554.86 33.94 613.55 33.94 c 0
 678.25 33.94 705.59 103.98 705.59 194.67 c 0
 705.59 279.7 681.25 351.73 614.22 351.73 c 0
EndSplineSet
Validated: 33
EndChar

StartChar: zero.fitted
Encoding: 63033 63033 265
Width: 496
Flags: W
HStem: -11 49.24<184.752 312.347> 612.43 48.57<186.018 314.54>
VStem: 37.34 61.87<159.194 482.214> 396.37 62.54<160.027 498.281>
LayerCount: 2
Fore
SplineSet
254.63 661 m 0
 376.89 661 458.91 552.4 458.91 333.34 c 0
 458.91 104.3 375.57 -11 240.95 -11 c 0
 131.37 -11 40.01 94.6 37.34 322.33 c 0
 37.34 553.06 138.04 661 254.63 661 c 0
248.29 612.43 m 0
 163.25 612.43 99.21 508.38 99.21 321.33 c 0
 99.21 144.29 157.91 38.24 247.29 38.24 c 0
 349.35 38.24 396.37 155.3 396.37 328.67 c 0
 396.37 495.37 352.02 612.43 248.29 612.43 c 0
EndSplineSet
Validated: 1
EndChar

StartChar: one.fitted
Encoding: 63196 63196 266
Width: 303
Flags: W
HStem: 0 21G<148.99 208.53> 630 20G<119.846 208.53>
VStem: 148.99 59.54<0 590.78>
LayerCount: 2
Fore
SplineSet
148.99 0 m 1
 148.99 590.78 l 1
 146.99 590.78 l 1
 38.68 528.44 l 1
 25.03 576.01 l 1
 154.97 650 l 1
 208.53 650 l 1
 208.53 0 l 1
 148.99 0 l 1
EndSplineSet
Validated: 1
EndChar

StartChar: two.fitted
Encoding: 63034 63034 267
Width: 427
Flags: W
HStem: 0 51.56<88.81 399.24> 608.77 52.23<95.9878 267.734>
VStem: 320.03 61.87<376.041 554.35>
LayerCount: 2
Fore
SplineSet
399.24 0 m 1
 3 0 l 1
 3 37.92 l 1
 65.97 101.57 l 1
 242.02 272.3 320.03 360.99 320.03 468.37 c 0
 320.03 539.73 289.03 608.77 183.32 608.77 c 0
 121.98 608.77 73.98 577.43 45.32 553.1 c 1
 23.35 595.67 l 1
 66.01 633.67 125.32 661 194.96 661 c 0
 331.61 661 381.9 560.98 381.9 478.7 c 0
 381.9 353.34 290.88 252.32 136.46 100.89 c 2
 88.81 53.56 l 1
 88.81 51.56 l 1
 399.24 51.56 l 1
 399.24 0 l 1
EndSplineSet
Validated: 1
EndChar

